<svg width="383" height="76" viewBox="0 0 383 76" fill="none" xmlns="http://www.w3.org/2000/svg">
<rect x="0.740601" y="0.5" width="381" height="75" stroke="white"/>
<rect width="29" height="38" transform="translate(0.240601 19)" fill="white"/>
<mask id="path-2-outside-1_18_393" maskUnits="userSpaceOnUse" x="-0.759399" y="19" width="31" height="33" fill="black">
<rect fill="white" x="-0.759399" y="19" width="31" height="33"/>
<path d="M11.68 37.72H21.64V43.6H27.44V49.04H17.72V43.6H7.75998V37.72H1.99998V32.32H7.75998V26.4H17.72V21H27.44V26.4H21.64V32.32H11.68V37.72Z"/>
</mask>
<path d="M11.68 37.72H21.64V43.6H27.44V49.04H17.72V43.6H7.75998V37.72H1.99998V32.32H7.75998V26.4H17.72V21H27.44V26.4H21.64V32.32H11.68V37.72Z" fill="#0F0099"/>
<path d="M11.68 37.72H9.67998L11.68 39.72V37.72ZM21.64 37.72H23.64L21.64 35.72V37.72ZM21.64 43.6H19.64L21.64 45.6V43.6ZM27.44 43.6H29.44L27.44 41.6V43.6ZM27.44 49.04V51.04L29.44 49.04H27.44ZM17.72 49.04H15.72L17.72 51.04V49.04ZM17.72 43.6H19.72L17.72 41.6V43.6ZM7.75998 43.6H5.75998L7.75998 45.6V43.6ZM7.75998 37.72H9.75998L7.75998 35.72V37.72ZM1.99998 37.72H-2.44081e-05L1.99998 39.72V37.72ZM1.99998 32.32V30.32L-2.44081e-05 32.32H1.99998ZM7.75998 32.32V34.32L9.75998 32.32H7.75998ZM7.75998 26.4V24.4L5.75998 26.4H7.75998ZM17.72 26.4V28.4L19.72 26.4H17.72ZM17.72 21V19L15.72 21H17.72ZM27.44 21H29.44L27.44 19V21ZM27.44 26.4V28.4L29.44 26.4H27.44ZM21.64 26.4V24.4L19.64 26.4H21.64ZM21.64 32.32V34.32L23.64 32.32H21.64ZM11.68 32.32V30.32L9.67998 32.32H11.68ZM11.68 37.72V39.72H21.64V37.72V35.72H11.68V37.72ZM21.64 37.72H19.64V43.6H21.64H23.64V37.72H21.64ZM21.64 43.6V45.6H27.44V43.6V41.6H21.64V43.6ZM27.44 43.6H25.44V49.04H27.44H29.44V43.6H27.44ZM27.44 49.04V47.04H17.72V49.04V51.04H27.44V49.04ZM17.72 49.04H19.72V43.6H17.72H15.72V49.04H17.72ZM17.72 43.6V41.6H7.75998V43.6V45.6H17.72V43.6ZM7.75998 43.6H9.75998V37.72H7.75998H5.75998V43.6H7.75998ZM7.75998 37.72V35.72H1.99998V37.72V39.72H7.75998V37.72ZM1.99998 37.72H3.99998V32.32H1.99998H-2.44081e-05V37.72H1.99998ZM1.99998 32.32V34.32H7.75998V32.32V30.32H1.99998V32.32ZM7.75998 32.32H9.75998V26.4H7.75998H5.75998V32.32H7.75998ZM7.75998 26.4V28.4H17.72V26.4V24.4H7.75998V26.4ZM17.72 26.4H19.72V21H17.72H15.72V26.4H17.72ZM17.72 21V23H27.44V21V19H17.72V21ZM27.44 21H25.44V26.4H27.44H29.44V21H27.44ZM27.44 26.4V24.4H21.64V26.4V28.4H27.44V26.4ZM21.64 26.4H19.64V32.32H21.64H23.64V26.4H21.64ZM21.64 32.32V30.32H11.68V32.32V34.32H21.64V32.32ZM11.68 32.32H9.67998V37.72H11.68H13.68V32.32H11.68Z" fill="white" mask="url(#path-2-outside-1_18_393)"/>
<mask id="path-4-outside-2_18_393" maskUnits="userSpaceOnUse" x="48.2406" y="0" width="240" height="33" fill="black">
<rect fill="white" x="48.2406" width="240" height="33"/>
<path d="M60.6683 2.04V7.44H64.2283V13.32H71.3883V7.44H74.9483V2.04H84.6283V30.04H74.9483V18.76H71.3883V24.64H64.2283V18.76H60.6683V30.04H50.9883V2.04H60.6683ZM87.4726 30.04V2.04H97.1526V30.04H87.4726ZM117.212 2.04H126.892V30.04H117.212V22.08H113.532V16.16H109.692V30.04H100.012V2.04H109.692V7.44H113.652V13.32H117.212V2.04ZM139.418 18.76V24.64H153.338V30.04H129.738V2.04H153.338V7.44H139.418V13.32H153.338V18.76H139.418ZM156.184 30.04V2.04H179.784V7.44H165.864V24.64H179.784V30.04H156.184ZM196.509 30.04V18.76H192.309V30.04H182.629V2.04H206.189V13.32H202.869V16.16H206.189V30.04H196.509ZM196.509 7.44H192.309V13.32H196.509V7.44ZM232.595 30.04H222.915V18.76H218.715V30.04H209.035V2.04H232.635L232.595 30.04ZM222.915 13.32V7.44H218.715V13.32H222.915ZM245.16 18.76V30.04H235.48V2.04H259.08V7.44H245.16V13.32H259.08V18.76H245.16ZM278.567 7.44V30.04H268.887V7.44H261.887V2.04H285.447V7.44H278.567Z"/>
</mask>
<path d="M60.6683 2.04H62.6683L60.6683 0.0399976V2.04ZM60.6683 7.44H58.6683L60.6683 9.44V7.44ZM64.2283 7.44H66.2283L64.2283 5.44V7.44ZM64.2283 13.32H62.2283L64.2283 15.32V13.32ZM71.3883 13.32V15.32L73.3883 13.32H71.3883ZM71.3883 7.44V5.44L69.3883 7.44H71.3883ZM74.9483 7.44V9.44L76.9483 7.44H74.9483ZM74.9483 2.04V0.0399976L72.9483 2.04H74.9483ZM84.6283 2.04H86.6283L84.6283 0.0399976V2.04ZM84.6283 30.04V32.04L86.6283 30.04H84.6283ZM74.9483 30.04H72.9483L74.9483 32.04V30.04ZM74.9483 18.76H76.9483L74.9483 16.76V18.76ZM71.3883 18.76V16.76L69.3883 18.76H71.3883ZM71.3883 24.64V26.64L73.3883 24.64H71.3883ZM64.2283 24.64H62.2283L64.2283 26.64V24.64ZM64.2283 18.76H66.2283L64.2283 16.76V18.76ZM60.6683 18.76V16.76L58.6683 18.76H60.6683ZM60.6683 30.04V32.04L62.6683 30.04H60.6683ZM50.9883 30.04H48.9883L50.9883 32.04V30.04ZM50.9883 2.04V0.0399976L48.9883 2.04H50.9883ZM60.6683 2.04H58.6683V7.44H60.6683H62.6683V2.04H60.6683ZM60.6683 7.44V9.44H64.2283V7.44V5.44H60.6683V7.44ZM64.2283 7.44H62.2283V13.32H64.2283H66.2283V7.44H64.2283ZM64.2283 13.32V15.32H71.3883V13.32V11.32H64.2283V13.32ZM71.3883 13.32H73.3883V7.44H71.3883H69.3883V13.32H71.3883ZM71.3883 7.44V9.44H74.9483V7.44V5.44H71.3883V7.44ZM74.9483 7.44H76.9483V2.04H74.9483H72.9483V7.44H74.9483ZM74.9483 2.04V4.04H84.6283V2.04V0.0399976H74.9483V2.04ZM84.6283 2.04H82.6283V30.04H84.6283H86.6283V2.04H84.6283ZM84.6283 30.04V28.04H74.9483V30.04V32.04H84.6283V30.04ZM74.9483 30.04H76.9483V18.76H74.9483H72.9483V30.04H74.9483ZM74.9483 18.76V16.76H71.3883V18.76V20.76H74.9483V18.76ZM71.3883 18.76H69.3883V24.64H71.3883H73.3883V18.76H71.3883ZM71.3883 24.64V22.64H64.2283V24.64V26.64H71.3883V24.64ZM64.2283 24.64H66.2283V18.76H64.2283H62.2283V24.64H64.2283ZM64.2283 18.76V16.76H60.6683V18.76V20.76H64.2283V18.76ZM60.6683 18.76H58.6683V30.04H60.6683H62.6683V18.76H60.6683ZM60.6683 30.04V28.04H50.9883V30.04V32.04H60.6683V30.04ZM50.9883 30.04H52.9883V2.04H50.9883H48.9883V30.04H50.9883ZM50.9883 2.04V4.04H60.6683V2.04V0.0399976H50.9883V2.04ZM87.4726 30.04H85.4726L87.4726 32.04V30.04ZM87.4726 2.04V0.0399976L85.4726 2.04H87.4726ZM97.1526 2.04H99.1526L97.1526 0.0399976V2.04ZM97.1526 30.04V32.04L99.1526 30.04H97.1526ZM87.4726 30.04H89.4726V2.04H87.4726H85.4726V30.04H87.4726ZM87.4726 2.04V4.04H97.1526V2.04V0.0399976H87.4726V2.04ZM97.1526 2.04H95.1526V30.04H97.1526H99.1526V2.04H97.1526ZM97.1526 30.04V28.04H87.4726V30.04V32.04H97.1526V30.04ZM117.212 2.04V0.0399976L115.212 2.04H117.212ZM126.892 2.04H128.892L126.892 0.0399976V2.04ZM126.892 30.04V32.04L128.892 30.04H126.892ZM117.212 30.04H115.212L117.212 32.04V30.04ZM117.212 22.08H119.212L117.212 20.08V22.08ZM113.532 22.08H111.532L113.532 24.08V22.08ZM113.532 16.16H115.532L113.532 14.16V16.16ZM109.692 16.16V14.16L107.692 16.16H109.692ZM109.692 30.04V32.04L111.692 30.04H109.692ZM100.012 30.04H98.0117L100.012 32.04V30.04ZM100.012 2.04V0.0399976L98.0117 2.04H100.012ZM109.692 2.04H111.692L109.692 0.0399976V2.04ZM109.692 7.44H107.692L109.692 9.44V7.44ZM113.652 7.44H115.652L113.652 5.44V7.44ZM113.652 13.32H111.652L113.652 15.32V13.32ZM117.212 13.32V15.32L119.212 13.32H117.212ZM117.212 2.04V4.04H126.892V2.04V0.0399976H117.212V2.04ZM126.892 2.04H124.892V30.04H126.892H128.892V2.04H126.892ZM126.892 30.04V28.04H117.212V30.04V32.04H126.892V30.04ZM117.212 30.04H119.212V22.08H117.212H115.212V30.04H117.212ZM117.212 22.08V20.08H113.532V22.08V24.08H117.212V22.08ZM113.532 22.08H115.532V16.16H113.532H111.532V22.08H113.532ZM113.532 16.16V14.16H109.692V16.16V18.16H113.532V16.16ZM109.692 16.16H107.692V30.04H109.692H111.692V16.16H109.692ZM109.692 30.04V28.04H100.012V30.04V32.04H109.692V30.04ZM100.012 30.04H102.012V2.04H100.012H98.0117V30.04H100.012ZM100.012 2.04V4.04H109.692V2.04V0.0399976H100.012V2.04ZM109.692 2.04H107.692V7.44H109.692H111.692V2.04H109.692ZM109.692 7.44V9.44H113.652V7.44V5.44H109.692V7.44ZM113.652 7.44H111.652V13.32H113.652H115.652V7.44H113.652ZM113.652 13.32V15.32H117.212V13.32V11.32H113.652V13.32ZM117.212 13.32H119.212V2.04H117.212H115.212V13.32H117.212ZM139.418 18.76V16.76L137.418 18.76H139.418ZM139.418 24.64H137.418L139.418 26.64V24.64ZM153.338 24.64H155.338L153.338 22.64V24.64ZM153.338 30.04V32.04L155.338 30.04H153.338ZM129.738 30.04H127.738L129.738 32.04V30.04ZM129.738 2.04V0.0399976L127.738 2.04H129.738ZM153.338 2.04H155.338L153.338 0.0399976V2.04ZM153.338 7.44V9.44L155.338 7.44H153.338ZM139.418 7.44V5.44L137.418 7.44H139.418ZM139.418 13.32H137.418L139.418 15.32V13.32ZM153.338 13.32H155.338L153.338 11.32V13.32ZM153.338 18.76V20.76L155.338 18.76H153.338ZM139.418 18.76H137.418V24.64H139.418H141.418V18.76H139.418ZM139.418 24.64V26.64H153.338V24.64V22.64H139.418V24.64ZM153.338 24.64H151.338V30.04H153.338H155.338V24.64H153.338ZM153.338 30.04V28.04H129.738V30.04V32.04H153.338V30.04ZM129.738 30.04H131.738V2.04H129.738H127.738V30.04H129.738ZM129.738 2.04V4.04H153.338V2.04V0.0399976H129.738V2.04ZM153.338 2.04H151.338V7.44H153.338H155.338V2.04H153.338ZM153.338 7.44V5.44H139.418V7.44V9.44H153.338V7.44ZM139.418 7.44H137.418V13.32H139.418H141.418V7.44H139.418ZM139.418 13.32V15.32H153.338V13.32V11.32H139.418V13.32ZM153.338 13.32H151.338V18.76H153.338H155.338V13.32H153.338ZM153.338 18.76V16.76H139.418V18.76V20.76H153.338V18.76ZM156.184 30.04H154.184L156.184 32.04V30.04ZM156.184 2.04V0.0399976L154.184 2.04H156.184ZM179.784 2.04H181.784L179.784 0.0399976V2.04ZM179.784 7.44V9.44L181.784 7.44H179.784ZM165.864 7.44V5.44L163.864 7.44H165.864ZM165.864 24.64H163.864L165.864 26.64V24.64ZM179.784 24.64H181.784L179.784 22.64V24.64ZM179.784 30.04V32.04L181.784 30.04H179.784ZM156.184 30.04H158.184V2.04H156.184H154.184V30.04H156.184ZM156.184 2.04V4.04H179.784V2.04V0.0399976H156.184V2.04ZM179.784 2.04H177.784V7.44H179.784H181.784V2.04H179.784ZM179.784 7.44V5.44H165.864V7.44V9.44H179.784V7.44ZM165.864 7.44H163.864V24.64H165.864H167.864V7.44H165.864ZM165.864 24.64V26.64H179.784V24.64V22.64H165.864V24.64ZM179.784 24.64H177.784V30.04H179.784H181.784V24.64H179.784ZM179.784 30.04V28.04H156.184V30.04V32.04H179.784V30.04ZM196.509 30.04H194.509L196.509 32.04V30.04ZM196.509 18.76H198.509L196.509 16.76V18.76ZM192.309 18.76V16.76L190.309 18.76H192.309ZM192.309 30.04V32.04L194.309 30.04H192.309ZM182.629 30.04H180.629L182.629 32.04V30.04ZM182.629 2.04V0.0399976L180.629 2.04H182.629ZM206.189 2.04H208.189L206.189 0.0399976V2.04ZM206.189 13.32V15.32L208.189 13.32H206.189ZM202.869 13.32V11.32L200.869 13.32H202.869ZM202.869 16.16H200.869L202.869 18.16V16.16ZM206.189 16.16H208.189L206.189 14.16V16.16ZM206.189 30.04V32.04L208.189 30.04H206.189ZM196.509 7.44H198.509L196.509 5.44V7.44ZM192.309 7.44V5.44L190.309 7.44H192.309ZM192.309 13.32H190.309L192.309 15.32V13.32ZM196.509 13.32V15.32L198.509 13.32H196.509ZM196.509 30.04H198.509V18.76H196.509H194.509V30.04H196.509ZM196.509 18.76V16.76H192.309V18.76V20.76H196.509V18.76ZM192.309 18.76H190.309V30.04H192.309H194.309V18.76H192.309ZM192.309 30.04V28.04H182.629V30.04V32.04H192.309V30.04ZM182.629 30.04H184.629V2.04H182.629H180.629V30.04H182.629ZM182.629 2.04V4.04H206.189V2.04V0.0399976H182.629V2.04ZM206.189 2.04H204.189V13.32H206.189H208.189V2.04H206.189ZM206.189 13.32V11.32H202.869V13.32V15.32H206.189V13.32ZM202.869 13.32H200.869V16.16H202.869H204.869V13.32H202.869ZM202.869 16.16V18.16H206.189V16.16V14.16H202.869V16.16ZM206.189 16.16H204.189V30.04H206.189H208.189V16.16H206.189ZM206.189 30.04V28.04H196.509V30.04V32.04H206.189V30.04ZM196.509 7.44V5.44H192.309V7.44V9.44H196.509V7.44ZM192.309 7.44H190.309V13.32H192.309H194.309V7.44H192.309ZM192.309 13.32V15.32H196.509V13.32V11.32H192.309V13.32ZM196.509 13.32H198.509V7.44H196.509H194.509V13.32H196.509ZM232.595 30.04V32.04L234.595 30.0429L232.595 30.04ZM222.915 30.04H220.915L222.915 32.04V30.04ZM222.915 18.76H224.915L222.915 16.76V18.76ZM218.715 18.76V16.76L216.715 18.76H218.715ZM218.715 30.04V32.04L220.715 30.04H218.715ZM209.035 30.04H207.035L209.035 32.04V30.04ZM209.035 2.04V0.0399976L207.035 2.04H209.035ZM232.635 2.04L234.635 2.04285L232.635 0.0399976V2.04ZM222.915 13.32V15.32L224.915 13.32H222.915ZM222.915 7.44H224.915L222.915 5.44V7.44ZM218.715 7.44V5.44L216.715 7.44H218.715ZM218.715 13.32H216.715L218.715 15.32V13.32ZM232.595 30.04V28.04H222.915V30.04V32.04H232.595V30.04ZM222.915 30.04H224.915V18.76H222.915H220.915V30.04H222.915ZM222.915 18.76V16.76H218.715V18.76V20.76H222.915V18.76ZM218.715 18.76H216.715V30.04H218.715H220.715V18.76H218.715ZM218.715 30.04V28.04H209.035V30.04V32.04H218.715V30.04ZM209.035 30.04H211.035V2.04H209.035H207.035V30.04H209.035ZM209.035 2.04V4.04H232.635V2.04V0.0399976H209.035V2.04ZM232.635 2.04L230.635 2.03714L230.595 30.0371L232.595 30.04L234.595 30.0429L234.635 2.04285L232.635 2.04ZM222.915 13.32H224.915V7.44H222.915H220.915V13.32H222.915ZM222.915 7.44V5.44H218.715V7.44V9.44H222.915V7.44ZM218.715 7.44H216.715V13.32H218.715H220.715V7.44H218.715ZM218.715 13.32V15.32H222.915V13.32V11.32H218.715V13.32ZM245.16 18.76V16.76L243.16 18.76H245.16ZM245.16 30.04V32.04L247.16 30.04H245.16ZM235.48 30.04H233.48L235.48 32.04V30.04ZM235.48 2.04V0.0399976L233.48 2.04H235.48ZM259.08 2.04H261.08L259.08 0.0399976V2.04ZM259.08 7.44V9.44L261.08 7.44H259.08ZM245.16 7.44V5.44L243.16 7.44H245.16ZM245.16 13.32H243.16L245.16 15.32V13.32ZM259.08 13.32H261.08L259.08 11.32V13.32ZM259.08 18.76V20.76L261.08 18.76H259.08ZM245.16 18.76H243.16V30.04H245.16H247.16V18.76H245.16ZM245.16 30.04V28.04H235.48V30.04V32.04H245.16V30.04ZM235.48 30.04H237.48V2.04H235.48H233.48V30.04H235.48ZM235.48 2.04V4.04H259.08V2.04V0.0399976H235.48V2.04ZM259.08 2.04H257.08V7.44H259.08H261.08V2.04H259.08ZM259.08 7.44V5.44H245.16V7.44V9.44H259.08V7.44ZM245.16 7.44H243.16V13.32H245.16H247.16V7.44H245.16ZM245.16 13.32V15.32H259.08V13.32V11.32H245.16V13.32ZM259.08 13.32H257.08V18.76H259.08H261.08V13.32H259.08ZM259.08 18.76V16.76H245.16V18.76V20.76H259.08V18.76ZM278.567 7.44V5.44L276.567 7.44H278.567ZM278.567 30.04V32.04L280.567 30.04H278.567ZM268.887 30.04H266.887L268.887 32.04V30.04ZM268.887 7.44H270.887L268.887 5.44V7.44ZM261.887 7.44H259.887L261.887 9.44V7.44ZM261.887 2.04V0.0399976L259.887 2.04H261.887ZM285.447 2.04H287.447L285.447 0.0399976V2.04ZM285.447 7.44V9.44L287.447 7.44H285.447ZM278.567 7.44H276.567V30.04H278.567H280.567V7.44H278.567ZM278.567 30.04V28.04H268.887V30.04V32.04H278.567V30.04ZM268.887 30.04H270.887V7.44H268.887H266.887V30.04H268.887ZM268.887 7.44V5.44H261.887V7.44V9.44H268.887V7.44ZM261.887 7.44H263.887V2.04H261.887H259.887V7.44H261.887ZM261.887 2.04V4.04H285.447V2.04V0.0399976H261.887V2.04ZM285.447 2.04H283.447V7.44H285.447H287.447V2.04H285.447ZM285.447 7.44V5.44H278.567V7.44V9.44H285.447V7.44Z" fill="#0F0099" mask="url(#path-4-outside-2_18_393)"/>
<mask id="path-6-outside-3_18_393" maskUnits="userSpaceOnUse" x="49.2406" y="39" width="145" height="31" fill="black">
<rect fill="white" x="49.2406" y="39" width="145" height="31"/>
<path d="M71.0173 54.04H74.3373L74.3773 68.04H50.7773V40.04H74.3773V51.32H71.0173V54.04ZM60.4573 56.76V62.64H64.6573V56.76H60.4573ZM64.6573 45.44H60.4573V51.32H64.6573V45.44ZM86.9026 40.04V62.64H91.1026V40.04H100.783L100.823 68.04H77.2226V40.04H86.9026ZM103.668 68.04V40.04H113.348V68.04H103.668ZM116.207 68.04V40.04H125.887V62.64H139.807V68.04H116.207ZM162.412 65.36V68.04H142.652V40.04H162.412V42.84H166.252V65.36H162.412ZM156.532 62.64V45.44H152.332V62.64H156.532ZM192.658 68.04H169.098V62.64H182.978V56.76H169.098V40.04H192.658V45.44H178.778V51.32H192.658V68.04Z"/>
</mask>
<path d="M71.0173 54.04H74.3373L74.3773 68.04H50.7773V40.04H74.3773V51.32H71.0173V54.04ZM60.4573 56.76V62.64H64.6573V56.76H60.4573ZM64.6573 45.44H60.4573V51.32H64.6573V45.44ZM86.9026 40.04V62.64H91.1026V40.04H100.783L100.823 68.04H77.2226V40.04H86.9026ZM103.668 68.04V40.04H113.348V68.04H103.668ZM116.207 68.04V40.04H125.887V62.64H139.807V68.04H116.207ZM162.412 65.36V68.04H142.652V40.04H162.412V42.84H166.252V65.36H162.412ZM156.532 62.64V45.44H152.332V62.64H156.532ZM192.658 68.04H169.098V62.64H182.978V56.76H169.098V40.04H192.658V45.44H178.778V51.32H192.658V68.04Z" fill="#0F0099"/>
<path d="M71.0173 54.04H70.0173L71.0173 55.04V54.04ZM74.3373 54.04L75.3373 54.0371L74.3373 53.04V54.04ZM74.3773 68.04V69.04L75.3773 68.0371L74.3773 68.04ZM50.7773 68.04H49.7773L50.7773 69.04V68.04ZM50.7773 40.04V39.04L49.7773 40.04H50.7773ZM74.3773 40.04H75.3773L74.3773 39.04V40.04ZM74.3773 51.32V52.32L75.3773 51.32H74.3773ZM71.0173 51.32V50.32L70.0173 51.32H71.0173ZM60.4573 56.76V55.76L59.4573 56.76H60.4573ZM60.4573 62.64H59.4573L60.4573 63.64V62.64ZM64.6573 62.64V63.64L65.6573 62.64H64.6573ZM64.6573 56.76H65.6573L64.6573 55.76V56.76ZM64.6573 45.44H65.6573L64.6573 44.44V45.44ZM60.4573 45.44V44.44L59.4573 45.44H60.4573ZM60.4573 51.32H59.4573L60.4573 52.32V51.32ZM64.6573 51.32V52.32L65.6573 51.32H64.6573ZM71.0173 54.04V55.04H74.3373V54.04V53.04H71.0173V54.04ZM74.3373 54.04L73.3373 54.0429L73.3773 68.0429L74.3773 68.04L75.3773 68.0371L75.3373 54.0371L74.3373 54.04ZM74.3773 68.04V67.04H50.7773V68.04V69.04H74.3773V68.04ZM50.7773 68.04H51.7773V40.04H50.7773H49.7773V68.04H50.7773ZM50.7773 40.04V41.04H74.3773V40.04V39.04H50.7773V40.04ZM74.3773 40.04H73.3773V51.32H74.3773H75.3773V40.04H74.3773ZM74.3773 51.32V50.32H71.0173V51.32V52.32H74.3773V51.32ZM71.0173 51.32H70.0173V54.04H71.0173H72.0173V51.32H71.0173ZM60.4573 56.76H59.4573V62.64H60.4573H61.4573V56.76H60.4573ZM60.4573 62.64V63.64H64.6573V62.64V61.64H60.4573V62.64ZM64.6573 62.64H65.6573V56.76H64.6573H63.6573V62.64H64.6573ZM64.6573 56.76V55.76H60.4573V56.76V57.76H64.6573V56.76ZM64.6573 45.44V44.44H60.4573V45.44V46.44H64.6573V45.44ZM60.4573 45.44H59.4573V51.32H60.4573H61.4573V45.44H60.4573ZM60.4573 51.32V52.32H64.6573V51.32V50.32H60.4573V51.32ZM64.6573 51.32H65.6573V45.44H64.6573H63.6573V51.32H64.6573ZM86.9026 40.04H87.9026L86.9026 39.04V40.04ZM86.9026 62.64H85.9026L86.9026 63.64V62.64ZM91.1026 62.64V63.64L92.1026 62.64H91.1026ZM91.1026 40.04V39.04L90.1026 40.04H91.1026ZM100.783 40.04L101.783 40.0386L100.783 39.04V40.04ZM100.823 68.04V69.04L101.823 68.0386L100.823 68.04ZM77.2226 68.04H76.2226L77.2226 69.04V68.04ZM77.2226 40.04V39.04L76.2226 40.04H77.2226ZM86.9026 40.04H85.9026V62.64H86.9026H87.9026V40.04H86.9026ZM86.9026 62.64V63.64H91.1026V62.64V61.64H86.9026V62.64ZM91.1026 62.64H92.1026V40.04H91.1026H90.1026V62.64H91.1026ZM91.1026 40.04V41.04H100.783V40.04V39.04H91.1026V40.04ZM100.783 40.04L99.7826 40.0414L99.8226 68.0414L100.823 68.04L101.823 68.0386L101.783 40.0386L100.783 40.04ZM100.823 68.04V67.04H77.2226V68.04V69.04H100.823V68.04ZM77.2226 68.04H78.2226V40.04H77.2226H76.2226V68.04H77.2226ZM77.2226 40.04V41.04H86.9026V40.04V39.04H77.2226V40.04ZM103.668 68.04H102.668L103.668 69.04V68.04ZM103.668 40.04V39.04L102.668 40.04H103.668ZM113.348 40.04H114.348L113.348 39.04V40.04ZM113.348 68.04V69.04L114.348 68.04H113.348ZM103.668 68.04H104.668V40.04H103.668H102.668V68.04H103.668ZM103.668 40.04V41.04H113.348V40.04V39.04H103.668V40.04ZM113.348 40.04H112.348V68.04H113.348H114.348V40.04H113.348ZM113.348 68.04V67.04H103.668V68.04V69.04H113.348V68.04ZM116.207 68.04H115.207L116.207 69.04V68.04ZM116.207 40.04V39.04L115.207 40.04H116.207ZM125.887 40.04H126.887L125.887 39.04V40.04ZM125.887 62.64H124.887L125.887 63.64V62.64ZM139.807 62.64H140.807L139.807 61.64V62.64ZM139.807 68.04V69.04L140.807 68.04H139.807ZM116.207 68.04H117.207V40.04H116.207H115.207V68.04H116.207ZM116.207 40.04V41.04H125.887V40.04V39.04H116.207V40.04ZM125.887 40.04H124.887V62.64H125.887H126.887V40.04H125.887ZM125.887 62.64V63.64H139.807V62.64V61.64H125.887V62.64ZM139.807 62.64H138.807V68.04H139.807H140.807V62.64H139.807ZM139.807 68.04V67.04H116.207V68.04V69.04H139.807V68.04ZM162.412 65.36V64.36L161.412 65.36H162.412ZM162.412 68.04V69.04L163.412 68.04H162.412ZM142.652 68.04H141.652L142.652 69.04V68.04ZM142.652 40.04V39.04L141.652 40.04H142.652ZM162.412 40.04H163.412L162.412 39.04V40.04ZM162.412 42.84H161.412L162.412 43.84V42.84ZM166.252 42.84H167.252L166.252 41.84V42.84ZM166.252 65.36V66.36L167.252 65.36H166.252ZM156.532 62.64V63.64L157.532 62.64H156.532ZM156.532 45.44H157.532L156.532 44.44V45.44ZM152.332 45.44V44.44L151.332 45.44H152.332ZM152.332 62.64H151.332L152.332 63.64V62.64ZM162.412 65.36H161.412V68.04H162.412H163.412V65.36H162.412ZM162.412 68.04V67.04H142.652V68.04V69.04H162.412V68.04ZM142.652 68.04H143.652V40.04H142.652H141.652V68.04H142.652ZM142.652 40.04V41.04H162.412V40.04V39.04H142.652V40.04ZM162.412 40.04H161.412V42.84H162.412H163.412V40.04H162.412ZM162.412 42.84V43.84H166.252V42.84V41.84H162.412V42.84ZM166.252 42.84H165.252V65.36H166.252H167.252V42.84H166.252ZM166.252 65.36V64.36H162.412V65.36V66.36H166.252V65.36ZM156.532 62.64H157.532V45.44H156.532H155.532V62.64H156.532ZM156.532 45.44V44.44H152.332V45.44V46.44H156.532V45.44ZM152.332 45.44H151.332V62.64H152.332H153.332V45.44H152.332ZM152.332 62.64V63.64H156.532V62.64V61.64H152.332V62.64ZM192.658 68.04V69.04L193.658 68.04H192.658ZM169.098 68.04H168.098L169.098 69.04V68.04ZM169.098 62.64V61.64L168.098 62.64H169.098ZM182.978 62.64V63.64L183.978 62.64H182.978ZM182.978 56.76H183.978L182.978 55.76V56.76ZM169.098 56.76H168.098L169.098 57.76V56.76ZM169.098 40.04V39.04L168.098 40.04H169.098ZM192.658 40.04H193.658L192.658 39.04V40.04ZM192.658 45.44V46.44L193.658 45.44H192.658ZM178.778 45.44V44.44L177.778 45.44H178.778ZM178.778 51.32H177.778L178.778 52.32V51.32ZM192.658 51.32H193.658L192.658 50.32V51.32ZM192.658 68.04V67.04H169.098V68.04V69.04H192.658V68.04ZM169.098 68.04H170.098V62.64H169.098H168.098V68.04H169.098ZM169.098 62.64V63.64H182.978V62.64V61.64H169.098V62.64ZM182.978 62.64H183.978V56.76H182.978H181.978V62.64H182.978ZM182.978 56.76V55.76H169.098V56.76V57.76H182.978V56.76ZM169.098 56.76H170.098V40.04H169.098H168.098V56.76H169.098ZM169.098 40.04V41.04H192.658V40.04V39.04H169.098V40.04ZM192.658 40.04H191.658V45.44H192.658H193.658V40.04H192.658ZM192.658 45.44V44.44H178.778V45.44V46.44H192.658V45.44ZM178.778 45.44H177.778V51.32H178.778H179.778V45.44H178.778ZM178.778 51.32V52.32H192.658V51.32V50.32H178.778V51.32ZM192.658 51.32H191.658V68.04H192.658H193.658V51.32H192.658Z" fill="white" mask="url(#path-6-outside-3_18_393)"/>
</svg>
