<svg width="383" height="76" viewBox="0 0 383 76" fill="none" xmlns="http://www.w3.org/2000/svg">
<mask id="path-1-outside-1_9_6" maskUnits="userSpaceOnUse" x="-0.665625" y="0" width="253" height="33" fill="black">
<rect fill="white" x="-0.665625" width="253" height="33"/>
<path d="M2 30.04V2.04H25.6V7.44H11.68V24.64H25.6V30.04H2ZM52.0053 30.04H42.3253V18.76H38.1253V30.04H28.4453V2.04H52.0453L52.0053 30.04ZM42.3253 13.32V7.44H38.1253V13.32H42.3253ZM71.5706 7.44V30.04H61.8906V7.44H54.8906V2.04H78.4506V7.44H71.5706ZM90.9769 18.76V24.64H104.897V30.04H81.2969V2.04H104.897V7.44H90.9769V13.32H104.897V18.76H90.9769ZM107.742 30.04V2.04H131.342V7.44H117.422V24.64H121.622V13.32H131.342V30.04H107.742ZM134.227 30.04V29.92V2.04H157.827V30.04H134.227ZM143.907 7.44V24.64H148.107V7.44H143.907ZM174.552 30.04V18.76H170.352V30.04H160.672V2.04H184.232V13.32H180.912V16.16H184.232V30.04H174.552ZM174.552 7.44H170.352V13.32H174.552V7.44ZM187.078 30.04V2.04H196.758V30.04H187.078ZM209.297 18.76V24.64H223.217V30.04H199.617V2.04H223.217V7.44H209.297V13.32H223.217V18.76H209.297ZM249.623 30.04H226.063V24.64H239.943V18.76H226.063V2.04H249.623V7.44H235.743V13.32H249.623V30.04Z"/>
</mask>
<path d="M2 30.04H3.8743e-07L2 32.04V30.04ZM2 2.04V0.0399976L3.8743e-07 2.04H2ZM25.6 2.04H27.6L25.6 0.0399976V2.04ZM25.6 7.44V9.44L27.6 7.44H25.6ZM11.68 7.44V5.44L9.68 7.44H11.68ZM11.68 24.64H9.68L11.68 26.64V24.64ZM25.6 24.64H27.6L25.6 22.64V24.64ZM25.6 30.04V32.04L27.6 30.04H25.6ZM2 30.04H4V2.04H2H3.8743e-07V30.04H2ZM2 2.04V4.04H25.6V2.04V0.0399976H2V2.04ZM25.6 2.04H23.6V7.44H25.6H27.6V2.04H25.6ZM25.6 7.44V5.44H11.68V7.44V9.44H25.6V7.44ZM11.68 7.44H9.68V24.64H11.68H13.68V7.44H11.68ZM11.68 24.64V26.64H25.6V24.64V22.64H11.68V24.64ZM25.6 24.64H23.6V30.04H25.6H27.6V24.64H25.6ZM25.6 30.04V28.04H2V30.04V32.04H25.6V30.04ZM52.0053 30.04V32.04L54.0053 30.0429L52.0053 30.04ZM42.3253 30.04H40.3253L42.3253 32.04V30.04ZM42.3253 18.76H44.3253L42.3253 16.76V18.76ZM38.1253 18.76V16.76L36.1253 18.76H38.1253ZM38.1253 30.04V32.04L40.1253 30.04H38.1253ZM28.4453 30.04H26.4453L28.4453 32.04V30.04ZM28.4453 2.04V0.0399976L26.4453 2.04H28.4453ZM52.0453 2.04L54.0453 2.04285L52.0453 0.0399976V2.04ZM42.3253 13.32V15.32L44.3253 13.32H42.3253ZM42.3253 7.44H44.3253L42.3253 5.44V7.44ZM38.1253 7.44V5.44L36.1253 7.44H38.1253ZM38.1253 13.32H36.1253L38.1253 15.32V13.32ZM52.0053 30.04V28.04H42.3253V30.04V32.04H52.0053V30.04ZM42.3253 30.04H44.3253V18.76H42.3253H40.3253V30.04H42.3253ZM42.3253 18.76V16.76H38.1253V18.76V20.76H42.3253V18.76ZM38.1253 18.76H36.1253V30.04H38.1253H40.1253V18.76H38.1253ZM38.1253 30.04V28.04H28.4453V30.04V32.04H38.1253V30.04ZM28.4453 30.04H30.4453V2.04H28.4453H26.4453V30.04H28.4453ZM28.4453 2.04V4.04H52.0453V2.04V0.0399976H28.4453V2.04ZM52.0453 2.04L50.0453 2.03714L50.0053 30.0371L52.0053 30.04L54.0053 30.0429L54.0453 2.04285L52.0453 2.04ZM42.3253 13.32H44.3253V7.44H42.3253H40.3253V13.32H42.3253ZM42.3253 7.44V5.44H38.1253V7.44V9.44H42.3253V7.44ZM38.1253 7.44H36.1253V13.32H38.1253H40.1253V7.44H38.1253ZM38.1253 13.32V15.32H42.3253V13.32V11.32H38.1253V13.32ZM71.5706 7.44V5.44L69.5706 7.44H71.5706ZM71.5706 30.04V32.04L73.5706 30.04H71.5706ZM61.8906 30.04H59.8906L61.8906 32.04V30.04ZM61.8906 7.44H63.8906L61.8906 5.44V7.44ZM54.8906 7.44H52.8906L54.8906 9.44V7.44ZM54.8906 2.04V0.0399976L52.8906 2.04H54.8906ZM78.4506 2.04H80.4506L78.4506 0.0399976V2.04ZM78.4506 7.44V9.44L80.4506 7.44H78.4506ZM71.5706 7.44H69.5706V30.04H71.5706H73.5706V7.44H71.5706ZM71.5706 30.04V28.04H61.8906V30.04V32.04H71.5706V30.04ZM61.8906 30.04H63.8906V7.44H61.8906H59.8906V30.04H61.8906ZM61.8906 7.44V5.44H54.8906V7.44V9.44H61.8906V7.44ZM54.8906 7.44H56.8906V2.04H54.8906H52.8906V7.44H54.8906ZM54.8906 2.04V4.04H78.4506V2.04V0.0399976H54.8906V2.04ZM78.4506 2.04H76.4506V7.44H78.4506H80.4506V2.04H78.4506ZM78.4506 7.44V5.44H71.5706V7.44V9.44H78.4506V7.44ZM90.9769 18.76V16.76L88.9769 18.76H90.9769ZM90.9769 24.64H88.9769L90.9769 26.64V24.64ZM104.897 24.64H106.897L104.897 22.64V24.64ZM104.897 30.04V32.04L106.897 30.04H104.897ZM81.2969 30.04H79.2969L81.2969 32.04V30.04ZM81.2969 2.04V0.0399976L79.2969 2.04H81.2969ZM104.897 2.04H106.897L104.897 0.0399976V2.04ZM104.897 7.44V9.44L106.897 7.44H104.897ZM90.9769 7.44V5.44L88.9769 7.44H90.9769ZM90.9769 13.32H88.9769L90.9769 15.32V13.32ZM104.897 13.32H106.897L104.897 11.32V13.32ZM104.897 18.76V20.76L106.897 18.76H104.897ZM90.9769 18.76H88.9769V24.64H90.9769H92.9769V18.76H90.9769ZM90.9769 24.64V26.64H104.897V24.64V22.64H90.9769V24.64ZM104.897 24.64H102.897V30.04H104.897H106.897V24.64H104.897ZM104.897 30.04V28.04H81.2969V30.04V32.04H104.897V30.04ZM81.2969 30.04H83.2969V2.04H81.2969H79.2969V30.04H81.2969ZM81.2969 2.04V4.04H104.897V2.04V0.0399976H81.2969V2.04ZM104.897 2.04H102.897V7.44H104.897H106.897V2.04H104.897ZM104.897 7.44V5.44H90.9769V7.44V9.44H104.897V7.44ZM90.9769 7.44H88.9769V13.32H90.9769H92.9769V7.44H90.9769ZM90.9769 13.32V15.32H104.897V13.32V11.32H90.9769V13.32ZM104.897 13.32H102.897V18.76H104.897H106.897V13.32H104.897ZM104.897 18.76V16.76H90.9769V18.76V20.76H104.897V18.76ZM107.742 30.04H105.742L107.742 32.04V30.04ZM107.742 2.04V0.0399976L105.742 2.04H107.742ZM131.342 2.04H133.342L131.342 0.0399976V2.04ZM131.342 7.44V9.44L133.342 7.44H131.342ZM117.422 7.44V5.44L115.422 7.44H117.422ZM117.422 24.64H115.422L117.422 26.64V24.64ZM121.622 24.64V26.64L123.622 24.64H121.622ZM121.622 13.32V11.32L119.622 13.32H121.622ZM131.342 13.32H133.342L131.342 11.32V13.32ZM131.342 30.04V32.04L133.342 30.04H131.342ZM107.742 30.04H109.742V2.04H107.742H105.742V30.04H107.742ZM107.742 2.04V4.04H131.342V2.04V0.0399976H107.742V2.04ZM131.342 2.04H129.342V7.44H131.342H133.342V2.04H131.342ZM131.342 7.44V5.44H117.422V7.44V9.44H131.342V7.44ZM117.422 7.44H115.422V24.64H117.422H119.422V7.44H117.422ZM117.422 24.64V26.64H121.622V24.64V22.64H117.422V24.64ZM121.622 24.64H123.622V13.32H121.622H119.622V24.64H121.622ZM121.622 13.32V15.32H131.342V13.32V11.32H121.622V13.32ZM131.342 13.32H129.342V30.04H131.342H133.342V13.32H131.342ZM131.342 30.04V28.04H107.742V30.04V32.04H131.342V30.04ZM134.227 30.04H132.227L134.227 32.04V30.04ZM134.227 2.04V0.0399976L132.227 2.04H134.227ZM157.827 2.04H159.827L157.827 0.0399976V2.04ZM157.827 30.04V32.04L159.827 30.04H157.827ZM143.907 7.44V5.44L141.907 7.44H143.907ZM143.907 24.64H141.907L143.907 26.64V24.64ZM148.107 24.64V26.64L150.107 24.64H148.107ZM148.107 7.44H150.107L148.107 5.44V7.44ZM134.227 30.04H136.227V29.92H134.227H132.227V30.04H134.227ZM134.227 29.92H136.227V2.04H134.227H132.227V29.92H134.227ZM134.227 2.04V4.04H157.827V2.04V0.0399976H134.227V2.04ZM157.827 2.04H155.827V30.04H157.827H159.827V2.04H157.827ZM157.827 30.04V28.04H134.227V30.04V32.04H157.827V30.04ZM143.907 7.44H141.907V24.64H143.907H145.907V7.44H143.907ZM143.907 24.64V26.64H148.107V24.64V22.64H143.907V24.64ZM148.107 24.64H150.107V7.44H148.107H146.107V24.64H148.107ZM148.107 7.44V5.44H143.907V7.44V9.44H148.107V7.44ZM174.552 30.04H172.552L174.552 32.04V30.04ZM174.552 18.76H176.552L174.552 16.76V18.76ZM170.352 18.76V16.76L168.352 18.76H170.352ZM170.352 30.04V32.04L172.352 30.04H170.352ZM160.672 30.04H158.672L160.672 32.04V30.04ZM160.672 2.04V0.0399976L158.672 2.04H160.672ZM184.232 2.04H186.232L184.232 0.0399976V2.04ZM184.232 13.32V15.32L186.232 13.32H184.232ZM180.912 13.32V11.32L178.912 13.32H180.912ZM180.912 16.16H178.912L180.912 18.16V16.16ZM184.232 16.16H186.232L184.232 14.16V16.16ZM184.232 30.04V32.04L186.232 30.04H184.232ZM174.552 7.44H176.552L174.552 5.44V7.44ZM170.352 7.44V5.44L168.352 7.44H170.352ZM170.352 13.32H168.352L170.352 15.32V13.32ZM174.552 13.32V15.32L176.552 13.32H174.552ZM174.552 30.04H176.552V18.76H174.552H172.552V30.04H174.552ZM174.552 18.76V16.76H170.352V18.76V20.76H174.552V18.76ZM170.352 18.76H168.352V30.04H170.352H172.352V18.76H170.352ZM170.352 30.04V28.04H160.672V30.04V32.04H170.352V30.04ZM160.672 30.04H162.672V2.04H160.672H158.672V30.04H160.672ZM160.672 2.04V4.04H184.232V2.04V0.0399976H160.672V2.04ZM184.232 2.04H182.232V13.32H184.232H186.232V2.04H184.232ZM184.232 13.32V11.32H180.912V13.32V15.32H184.232V13.32ZM180.912 13.32H178.912V16.16H180.912H182.912V13.32H180.912ZM180.912 16.16V18.16H184.232V16.16V14.16H180.912V16.16ZM184.232 16.16H182.232V30.04H184.232H186.232V16.16H184.232ZM184.232 30.04V28.04H174.552V30.04V32.04H184.232V30.04ZM174.552 7.44V5.44H170.352V7.44V9.44H174.552V7.44ZM170.352 7.44H168.352V13.32H170.352H172.352V7.44H170.352ZM170.352 13.32V15.32H174.552V13.32V11.32H170.352V13.32ZM174.552 13.32H176.552V7.44H174.552H172.552V13.32H174.552ZM187.078 30.04H185.078L187.078 32.04V30.04ZM187.078 2.04V0.0399976L185.078 2.04H187.078ZM196.758 2.04H198.758L196.758 0.0399976V2.04ZM196.758 30.04V32.04L198.758 30.04H196.758ZM187.078 30.04H189.078V2.04H187.078H185.078V30.04H187.078ZM187.078 2.04V4.04H196.758V2.04V0.0399976H187.078V2.04ZM196.758 2.04H194.758V30.04H196.758H198.758V2.04H196.758ZM196.758 30.04V28.04H187.078V30.04V32.04H196.758V30.04ZM209.297 18.76V16.76L207.297 18.76H209.297ZM209.297 24.64H207.297L209.297 26.64V24.64ZM223.217 24.64H225.217L223.217 22.64V24.64ZM223.217 30.04V32.04L225.217 30.04H223.217ZM199.617 30.04H197.617L199.617 32.04V30.04ZM199.617 2.04V0.0399976L197.617 2.04H199.617ZM223.217 2.04H225.217L223.217 0.0399976V2.04ZM223.217 7.44V9.44L225.217 7.44H223.217ZM209.297 7.44V5.44L207.297 7.44H209.297ZM209.297 13.32H207.297L209.297 15.32V13.32ZM223.217 13.32H225.217L223.217 11.32V13.32ZM223.217 18.76V20.76L225.217 18.76H223.217ZM209.297 18.76H207.297V24.64H209.297H211.297V18.76H209.297ZM209.297 24.64V26.64H223.217V24.64V22.64H209.297V24.64ZM223.217 24.64H221.217V30.04H223.217H225.217V24.64H223.217ZM223.217 30.04V28.04H199.617V30.04V32.04H223.217V30.04ZM199.617 30.04H201.617V2.04H199.617H197.617V30.04H199.617ZM199.617 2.04V4.04H223.217V2.04V0.0399976H199.617V2.04ZM223.217 2.04H221.217V7.44H223.217H225.217V2.04H223.217ZM223.217 7.44V5.44H209.297V7.44V9.44H223.217V7.44ZM209.297 7.44H207.297V13.32H209.297H211.297V7.44H209.297ZM209.297 13.32V15.32H223.217V13.32V11.32H209.297V13.32ZM223.217 13.32H221.217V18.76H223.217H225.217V13.32H223.217ZM223.217 18.76V16.76H209.297V18.76V20.76H223.217V18.76ZM249.623 30.04V32.04L251.623 30.04H249.623ZM226.063 30.04H224.063L226.063 32.04V30.04ZM226.063 24.64V22.64L224.063 24.64H226.063ZM239.943 24.64V26.64L241.943 24.64H239.943ZM239.943 18.76H241.943L239.943 16.76V18.76ZM226.063 18.76H224.063L226.063 20.76V18.76ZM226.063 2.04V0.0399976L224.063 2.04H226.063ZM249.623 2.04H251.623L249.623 0.0399976V2.04ZM249.623 7.44V9.44L251.623 7.44H249.623ZM235.743 7.44V5.44L233.743 7.44H235.743ZM235.743 13.32H233.743L235.743 15.32V13.32ZM249.623 13.32H251.623L249.623 11.32V13.32ZM249.623 30.04V28.04H226.063V30.04V32.04H249.623V30.04ZM226.063 30.04H228.063V24.64H226.063H224.063V30.04H226.063ZM226.063 24.64V26.64H239.943V24.64V22.64H226.063V24.64ZM239.943 24.64H241.943V18.76H239.943H237.943V24.64H239.943ZM239.943 18.76V16.76H226.063V18.76V20.76H239.943V18.76ZM226.063 18.76H228.063V2.04H226.063H224.063V18.76H226.063ZM226.063 2.04V4.04H249.623V2.04V0.0399976H226.063V2.04ZM249.623 2.04H247.623V7.44H249.623H251.623V2.04H249.623ZM249.623 7.44V5.44H235.743V7.44V9.44H249.623V7.44ZM235.743 7.44H233.743V13.32H235.743H237.743V7.44H235.743ZM235.743 13.32V15.32H249.623V13.32V11.32H235.743V13.32ZM249.623 13.32H247.623V30.04H249.623H251.623V13.32H249.623Z" fill="#0F0099" mask="url(#path-1-outside-1_9_6)"/>
<mask id="path-3-outside-2_9_6" maskUnits="userSpaceOnUse" x="0.334375" y="39" width="222" height="31" fill="black">
<rect fill="white" x="0.334375" y="39" width="222" height="31"/>
<path d="M11.4378 62.6H25.3178V68H1.75781V51.32H15.6378V45.4H1.75781V40H25.3178V56.72H11.4378V62.6ZM51.7641 40V68H28.1641V67.88V40H51.7641ZM42.0441 62.6V45.52H37.8441V62.6H42.0441ZM64.2894 62.6H78.1694V68H54.6094V51.32H68.4894V45.4H54.6094V40H78.1694V56.72H64.2894V62.6ZM108.176 56.72V62.6H104.576V68H94.8956V62.6H81.0156V40H90.6956V56.72H94.8956V40H104.576V56.72H108.176ZM111.016 57.48V52.08H128.216V57.48H111.016ZM148.255 40.04H157.935V68.04H148.255V60.08H144.575V54.16H140.735V68.04H131.055V40.04H140.735V45.44H144.695V51.32H148.255V40.04ZM160.781 68.04V67.92V40.04H184.381V68.04H160.781ZM170.461 45.44V62.64H174.661V45.44H170.461ZM196.907 40.04V51.32H200.467V48.52H207.627V51.32H211.187V40.04H220.867V62.64H217.187V68.04H207.467V59.56H200.467V68.04H190.787V62.64H187.227V40.04H196.907Z"/>
</mask>
<path d="M11.4378 62.6H25.3178V68H1.75781V51.32H15.6378V45.4H1.75781V40H25.3178V56.72H11.4378V62.6ZM51.7641 40V68H28.1641V67.88V40H51.7641ZM42.0441 62.6V45.52H37.8441V62.6H42.0441ZM64.2894 62.6H78.1694V68H54.6094V51.32H68.4894V45.4H54.6094V40H78.1694V56.72H64.2894V62.6ZM108.176 56.72V62.6H104.576V68H94.8956V62.6H81.0156V40H90.6956V56.72H94.8956V40H104.576V56.72H108.176ZM111.016 57.48V52.08H128.216V57.48H111.016ZM148.255 40.04H157.935V68.04H148.255V60.08H144.575V54.16H140.735V68.04H131.055V40.04H140.735V45.44H144.695V51.32H148.255V40.04ZM160.781 68.04V67.92V40.04H184.381V68.04H160.781ZM170.461 45.44V62.64H174.661V45.44H170.461ZM196.907 40.04V51.32H200.467V48.52H207.627V51.32H211.187V40.04H220.867V62.64H217.187V68.04H207.467V59.56H200.467V68.04H190.787V62.64H187.227V40.04H196.907Z" fill="#0F0099"/>
<path d="M11.4378 62.6H10.4378L11.4378 63.6V62.6ZM25.3178 62.6H26.3178L25.3178 61.6V62.6ZM25.3178 68V69L26.3178 68H25.3178ZM1.75781 68H0.757813L1.75781 69V68ZM1.75781 51.32V50.32L0.757813 51.32H1.75781ZM15.6378 51.32V52.32L16.6378 51.32H15.6378ZM15.6378 45.4H16.6378L15.6378 44.4V45.4ZM1.75781 45.4H0.757813L1.75781 46.4V45.4ZM1.75781 40V39L0.757813 40H1.75781ZM25.3178 40H26.3178L25.3178 39V40ZM25.3178 56.72V57.72L26.3178 56.72H25.3178ZM11.4378 56.72V55.72L10.4378 56.72H11.4378ZM11.4378 62.6V63.6H25.3178V62.6V61.6H11.4378V62.6ZM25.3178 62.6H24.3178V68H25.3178H26.3178V62.6H25.3178ZM25.3178 68V67H1.75781V68V69H25.3178V68ZM1.75781 68H2.75781V51.32H1.75781H0.757813V68H1.75781ZM1.75781 51.32V52.32H15.6378V51.32V50.32H1.75781V51.32ZM15.6378 51.32H16.6378V45.4H15.6378H14.6378V51.32H15.6378ZM15.6378 45.4V44.4H1.75781V45.4V46.4H15.6378V45.4ZM1.75781 45.4H2.75781V40H1.75781H0.757813V45.4H1.75781ZM1.75781 40V41H25.3178V40V39H1.75781V40ZM25.3178 40H24.3178V56.72H25.3178H26.3178V40H25.3178ZM25.3178 56.72V55.72H11.4378V56.72V57.72H25.3178V56.72ZM11.4378 56.72H10.4378V62.6H11.4378H12.4378V56.72H11.4378ZM51.7641 40H52.7641L51.7641 39V40ZM51.7641 68V69L52.7641 68H51.7641ZM28.1641 68H27.1641L28.1641 69V68ZM28.1641 40V39L27.1641 40H28.1641ZM42.0441 62.6V63.6L43.0441 62.6H42.0441ZM42.0441 45.52H43.0441L42.0441 44.52V45.52ZM37.8441 45.52V44.52L36.8441 45.52H37.8441ZM37.8441 62.6H36.8441L37.8441 63.6V62.6ZM51.7641 40H50.7641V68H51.7641H52.7641V40H51.7641ZM51.7641 68V67H28.1641V68V69H51.7641V68ZM28.1641 68H29.1641V67.88H28.1641H27.1641V68H28.1641ZM28.1641 67.88H29.1641V40H28.1641H27.1641V67.88H28.1641ZM28.1641 40V41H51.7641V40V39H28.1641V40ZM42.0441 62.6H43.0441V45.52H42.0441H41.0441V62.6H42.0441ZM42.0441 45.52V44.52H37.8441V45.52V46.52H42.0441V45.52ZM37.8441 45.52H36.8441V62.6H37.8441H38.8441V45.52H37.8441ZM37.8441 62.6V63.6H42.0441V62.6V61.6H37.8441V62.6ZM64.2894 62.6H63.2894L64.2894 63.6V62.6ZM78.1694 62.6H79.1694L78.1694 61.6V62.6ZM78.1694 68V69L79.1694 68H78.1694ZM54.6094 68H53.6094L54.6094 69V68ZM54.6094 51.32V50.32L53.6094 51.32H54.6094ZM68.4894 51.32V52.32L69.4894 51.32H68.4894ZM68.4894 45.4H69.4894L68.4894 44.4V45.4ZM54.6094 45.4H53.6094L54.6094 46.4V45.4ZM54.6094 40V39L53.6094 40H54.6094ZM78.1694 40H79.1694L78.1694 39V40ZM78.1694 56.72V57.72L79.1694 56.72H78.1694ZM64.2894 56.72V55.72L63.2894 56.72H64.2894ZM64.2894 62.6V63.6H78.1694V62.6V61.6H64.2894V62.6ZM78.1694 62.6H77.1694V68H78.1694H79.1694V62.6H78.1694ZM78.1694 68V67H54.6094V68V69H78.1694V68ZM54.6094 68H55.6094V51.32H54.6094H53.6094V68H54.6094ZM54.6094 51.32V52.32H68.4894V51.32V50.32H54.6094V51.32ZM68.4894 51.32H69.4894V45.4H68.4894H67.4894V51.32H68.4894ZM68.4894 45.4V44.4H54.6094V45.4V46.4H68.4894V45.4ZM54.6094 45.4H55.6094V40H54.6094H53.6094V45.4H54.6094ZM54.6094 40V41H78.1694V40V39H54.6094V40ZM78.1694 40H77.1694V56.72H78.1694H79.1694V40H78.1694ZM78.1694 56.72V55.72H64.2894V56.72V57.72H78.1694V56.72ZM64.2894 56.72H63.2894V62.6H64.2894H65.2894V56.72H64.2894ZM108.176 56.72H109.176L108.176 55.72V56.72ZM108.176 62.6V63.6L109.176 62.6H108.176ZM104.576 62.6V61.6L103.576 62.6H104.576ZM104.576 68V69L105.576 68H104.576ZM94.8956 68H93.8956L94.8956 69V68ZM94.8956 62.6H95.8956L94.8956 61.6V62.6ZM81.0156 62.6H80.0156L81.0156 63.6V62.6ZM81.0156 40V39L80.0156 40H81.0156ZM90.6956 40H91.6956L90.6956 39V40ZM90.6956 56.72H89.6956L90.6956 57.72V56.72ZM94.8956 56.72V57.72L95.8956 56.72H94.8956ZM94.8956 40V39L93.8956 40H94.8956ZM104.576 40H105.576L104.576 39V40ZM104.576 56.72H103.576L104.576 57.72V56.72ZM108.176 56.72H107.176V62.6H108.176H109.176V56.72H108.176ZM108.176 62.6V61.6H104.576V62.6V63.6H108.176V62.6ZM104.576 62.6H103.576V68H104.576H105.576V62.6H104.576ZM104.576 68V67H94.8956V68V69H104.576V68ZM94.8956 68H95.8956V62.6H94.8956H93.8956V68H94.8956ZM94.8956 62.6V61.6H81.0156V62.6V63.6H94.8956V62.6ZM81.0156 62.6H82.0156V40H81.0156H80.0156V62.6H81.0156ZM81.0156 40V41H90.6956V40V39H81.0156V40ZM90.6956 40H89.6956V56.72H90.6956H91.6956V40H90.6956ZM90.6956 56.72V57.72H94.8956V56.72V55.72H90.6956V56.72ZM94.8956 56.72H95.8956V40H94.8956H93.8956V56.72H94.8956ZM94.8956 40V41H104.576V40V39H94.8956V40ZM104.576 40H103.576V56.72H104.576H105.576V40H104.576ZM104.576 56.72V57.72H108.176V56.72V55.72H104.576V56.72ZM111.016 57.48H110.016L111.016 58.48V57.48ZM111.016 52.08V51.08L110.016 52.08H111.016ZM128.216 52.08H129.216L128.216 51.08V52.08ZM128.216 57.48V58.48L129.216 57.48H128.216ZM111.016 57.48H112.016V52.08H111.016H110.016V57.48H111.016ZM111.016 52.08V53.08H128.216V52.08V51.08H111.016V52.08ZM128.216 52.08H127.216V57.48H128.216H129.216V52.08H128.216ZM128.216 57.48V56.48H111.016V57.48V58.48H128.216V57.48ZM148.255 40.04V39.04L147.255 40.04H148.255ZM157.935 40.04H158.935L157.935 39.04V40.04ZM157.935 68.04V69.04L158.935 68.04H157.935ZM148.255 68.04H147.255L148.255 69.04V68.04ZM148.255 60.08H149.255L148.255 59.08V60.08ZM144.575 60.08H143.575L144.575 61.08V60.08ZM144.575 54.16H145.575L144.575 53.16V54.16ZM140.735 54.16V53.16L139.735 54.16H140.735ZM140.735 68.04V69.04L141.735 68.04H140.735ZM131.055 68.04H130.055L131.055 69.04V68.04ZM131.055 40.04V39.04L130.055 40.04H131.055ZM140.735 40.04H141.735L140.735 39.04V40.04ZM140.735 45.44H139.735L140.735 46.44V45.44ZM144.695 45.44H145.695L144.695 44.44V45.44ZM144.695 51.32H143.695L144.695 52.32V51.32ZM148.255 51.32V52.32L149.255 51.32H148.255ZM148.255 40.04V41.04H157.935V40.04V39.04H148.255V40.04ZM157.935 40.04H156.935V68.04H157.935H158.935V40.04H157.935ZM157.935 68.04V67.04H148.255V68.04V69.04H157.935V68.04ZM148.255 68.04H149.255V60.08H148.255H147.255V68.04H148.255ZM148.255 60.08V59.08H144.575V60.08V61.08H148.255V60.08ZM144.575 60.08H145.575V54.16H144.575H143.575V60.08H144.575ZM144.575 54.16V53.16H140.735V54.16V55.16H144.575V54.16ZM140.735 54.16H139.735V68.04H140.735H141.735V54.16H140.735ZM140.735 68.04V67.04H131.055V68.04V69.04H140.735V68.04ZM131.055 68.04H132.055V40.04H131.055H130.055V68.04H131.055ZM131.055 40.04V41.04H140.735V40.04V39.04H131.055V40.04ZM140.735 40.04H139.735V45.44H140.735H141.735V40.04H140.735ZM140.735 45.44V46.44H144.695V45.44V44.44H140.735V45.44ZM144.695 45.44H143.695V51.32H144.695H145.695V45.44H144.695ZM144.695 51.32V52.32H148.255V51.32V50.32H144.695V51.32ZM148.255 51.32H149.255V40.04H148.255H147.255V51.32H148.255ZM160.781 68.04H159.781L160.781 69.04V68.04ZM160.781 40.04V39.04L159.781 40.04H160.781ZM184.381 40.04H185.381L184.381 39.04V40.04ZM184.381 68.04V69.04L185.381 68.04H184.381ZM170.461 45.44V44.44L169.461 45.44H170.461ZM170.461 62.64H169.461L170.461 63.64V62.64ZM174.661 62.64V63.64L175.661 62.64H174.661ZM174.661 45.44H175.661L174.661 44.44V45.44ZM160.781 68.04H161.781V67.92H160.781H159.781V68.04H160.781ZM160.781 67.92H161.781V40.04H160.781H159.781V67.92H160.781ZM160.781 40.04V41.04H184.381V40.04V39.04H160.781V40.04ZM184.381 40.04H183.381V68.04H184.381H185.381V40.04H184.381ZM184.381 68.04V67.04H160.781V68.04V69.04H184.381V68.04ZM170.461 45.44H169.461V62.64H170.461H171.461V45.44H170.461ZM170.461 62.64V63.64H174.661V62.64V61.64H170.461V62.64ZM174.661 62.64H175.661V45.44H174.661H173.661V62.64H174.661ZM174.661 45.44V44.44H170.461V45.44V46.44H174.661V45.44ZM196.907 40.04H197.907L196.907 39.04V40.04ZM196.907 51.32H195.907L196.907 52.32V51.32ZM200.467 51.32V52.32L201.467 51.32H200.467ZM200.467 48.52V47.52L199.467 48.52H200.467ZM207.627 48.52H208.627L207.627 47.52V48.52ZM207.627 51.32H206.627L207.627 52.32V51.32ZM211.187 51.32V52.32L212.187 51.32H211.187ZM211.187 40.04V39.04L210.187 40.04H211.187ZM220.867 40.04H221.867L220.867 39.04V40.04ZM220.867 62.64V63.64L221.867 62.64H220.867ZM217.187 62.64V61.64L216.187 62.64H217.187ZM217.187 68.04V69.04L218.187 68.04H217.187ZM207.467 68.04H206.467L207.467 69.04V68.04ZM207.467 59.56H208.467L207.467 58.56V59.56ZM200.467 59.56V58.56L199.467 59.56H200.467ZM200.467 68.04V69.04L201.467 68.04H200.467ZM190.787 68.04H189.787L190.787 69.04V68.04ZM190.787 62.64H191.787L190.787 61.64V62.64ZM187.227 62.64H186.227L187.227 63.64V62.64ZM187.227 40.04V39.04L186.227 40.04H187.227ZM196.907 40.04H195.907V51.32H196.907H197.907V40.04H196.907ZM196.907 51.32V52.32H200.467V51.32V50.32H196.907V51.32ZM200.467 51.32H201.467V48.52H200.467H199.467V51.32H200.467ZM200.467 48.52V49.52H207.627V48.52V47.52H200.467V48.52ZM207.627 48.52H206.627V51.32H207.627H208.627V48.52H207.627ZM207.627 51.32V52.32H211.187V51.32V50.32H207.627V51.32ZM211.187 51.32H212.187V40.04H211.187H210.187V51.32H211.187ZM211.187 40.04V41.04H220.867V40.04V39.04H211.187V40.04ZM220.867 40.04H219.867V62.64H220.867H221.867V40.04H220.867ZM220.867 62.64V61.64H217.187V62.64V63.64H220.867V62.64ZM217.187 62.64H216.187V68.04H217.187H218.187V62.64H217.187ZM217.187 68.04V67.04H207.467V68.04V69.04H217.187V68.04ZM207.467 68.04H208.467V59.56H207.467H206.467V68.04H207.467ZM207.467 59.56V58.56H200.467V59.56V60.56H207.467V59.56ZM200.467 59.56H199.467V68.04H200.467H201.467V59.56H200.467ZM200.467 68.04V67.04H190.787V68.04V69.04H200.467V68.04ZM190.787 68.04H191.787V62.64H190.787H189.787V68.04H190.787ZM190.787 62.64V61.64H187.227V62.64V63.64H190.787V62.64ZM187.227 62.64H188.227V40.04H187.227H186.227V62.64H187.227ZM187.227 40.04V41.04H196.907V40.04V39.04H187.227V40.04Z" fill="white" mask="url(#path-3-outside-2_9_6)"/>
</svg>
