<svg width="383" height="76" viewBox="0 0 383 76" fill="none" xmlns="http://www.w3.org/2000/svg">
<mask id="path-1-outside-1_9_11" maskUnits="userSpaceOnUse" x="-0.775" y="0" width="289" height="33" fill="black">
<rect fill="white" x="-0.775" width="289" height="33"/>
<path d="M2 30.04V2.04H25.6V7.44H11.68V24.64H25.6V30.04H2ZM28.4453 30.04V29.92V2.04H52.0453V30.04H28.4453ZM38.1253 7.44V24.64H42.3253V7.44H38.1253ZM64.5316 2.04V7.44H68.0916V13.32H75.2516V7.44H78.8116V2.04H88.4916V30.04H78.8116V18.72H75.2516V24.64H68.0916V18.72H64.5316V30.04H54.8516V2.04H64.5316ZM101.016 2.04V7.44H104.576V13.32H111.736V7.44H115.296V2.04H124.976V30.04H115.296V18.72H111.736V24.64H104.576V18.72H101.016V30.04H91.3359V2.04H101.016ZM127.82 30.04V2H137.5V30.04H127.82ZM163.919 30.04H140.359V24.64H154.239V18.72H140.359V2.04H163.919V7.44H150.039V13.32H163.919V30.04ZM190.326 30.04H166.766V24.64H180.646V18.72H166.766V2.04H190.326V7.44H176.446V13.32H190.326V30.04ZM193.172 30.04V2H202.852V30.04H193.172ZM205.711 30.04V29.92V2.04H229.311V30.04H205.711ZM215.391 7.44V24.64H219.591V7.44H215.391ZM249.317 2.04H258.997V30.04H249.317V22.04H245.637V16.16H241.797V30.04H232.117V2.04H241.797V7.44H245.757V13.32H249.317V2.04ZM285.404 30.04H261.844V24.64H275.724V18.72H261.844V2.04H285.404V7.44H271.524V13.32H285.404V30.04Z"/>
</mask>
<path d="M2 30.04H3.8743e-07L2 32.04V30.04ZM2 2.04V0.0399976L3.8743e-07 2.04H2ZM25.6 2.04H27.6L25.6 0.0399976V2.04ZM25.6 7.44V9.44L27.6 7.44H25.6ZM11.68 7.44V5.44L9.68 7.44H11.68ZM11.68 24.64H9.68L11.68 26.64V24.64ZM25.6 24.64H27.6L25.6 22.64V24.64ZM25.6 30.04V32.04L27.6 30.04H25.6ZM2 30.04H4V2.04H2H3.8743e-07V30.04H2ZM2 2.04V4.04H25.6V2.04V0.0399976H2V2.04ZM25.6 2.04H23.6V7.44H25.6H27.6V2.04H25.6ZM25.6 7.44V5.44H11.68V7.44V9.44H25.6V7.44ZM11.68 7.44H9.68V24.64H11.68H13.68V7.44H11.68ZM11.68 24.64V26.64H25.6V24.64V22.64H11.68V24.64ZM25.6 24.64H23.6V30.04H25.6H27.6V24.64H25.6ZM25.6 30.04V28.04H2V30.04V32.04H25.6V30.04ZM28.4453 30.04H26.4453L28.4453 32.04V30.04ZM28.4453 2.04V0.0399976L26.4453 2.04H28.4453ZM52.0453 2.04H54.0453L52.0453 0.0399976V2.04ZM52.0453 30.04V32.04L54.0453 30.04H52.0453ZM38.1253 7.44V5.44L36.1253 7.44H38.1253ZM38.1253 24.64H36.1253L38.1253 26.64V24.64ZM42.3253 24.64V26.64L44.3253 24.64H42.3253ZM42.3253 7.44H44.3253L42.3253 5.44V7.44ZM28.4453 30.04H30.4453V29.92H28.4453H26.4453V30.04H28.4453ZM28.4453 29.92H30.4453V2.04H28.4453H26.4453V29.92H28.4453ZM28.4453 2.04V4.04H52.0453V2.04V0.0399976H28.4453V2.04ZM52.0453 2.04H50.0453V30.04H52.0453H54.0453V2.04H52.0453ZM52.0453 30.04V28.04H28.4453V30.04V32.04H52.0453V30.04ZM38.1253 7.44H36.1253V24.64H38.1253H40.1253V7.44H38.1253ZM38.1253 24.64V26.64H42.3253V24.64V22.64H38.1253V24.64ZM42.3253 24.64H44.3253V7.44H42.3253H40.3253V24.64H42.3253ZM42.3253 7.44V5.44H38.1253V7.44V9.44H42.3253V7.44ZM64.5316 2.04H66.5316L64.5316 0.0399976V2.04ZM64.5316 7.44H62.5316L64.5316 9.44V7.44ZM68.0916 7.44H70.0916L68.0916 5.44V7.44ZM68.0916 13.32H66.0916L68.0916 15.32V13.32ZM75.2516 13.32V15.32L77.2516 13.32H75.2516ZM75.2516 7.44V5.44L73.2516 7.44H75.2516ZM78.8116 7.44V9.44L80.8116 7.44H78.8116ZM78.8116 2.04V0.0399976L76.8116 2.04H78.8116ZM88.4916 2.04H90.4916L88.4916 0.0399976V2.04ZM88.4916 30.04V32.04L90.4916 30.04H88.4916ZM78.8116 30.04H76.8116L78.8116 32.04V30.04ZM78.8116 18.72H80.8116L78.8116 16.72V18.72ZM75.2516 18.72V16.72L73.2516 18.72H75.2516ZM75.2516 24.64V26.64L77.2516 24.64H75.2516ZM68.0916 24.64H66.0916L68.0916 26.64V24.64ZM68.0916 18.72H70.0916L68.0916 16.72V18.72ZM64.5316 18.72V16.72L62.5316 18.72H64.5316ZM64.5316 30.04V32.04L66.5316 30.04H64.5316ZM54.8516 30.04H52.8516L54.8516 32.04V30.04ZM54.8516 2.04V0.0399976L52.8516 2.04H54.8516ZM64.5316 2.04H62.5316V7.44H64.5316H66.5316V2.04H64.5316ZM64.5316 7.44V9.44H68.0916V7.44V5.44H64.5316V7.44ZM68.0916 7.44H66.0916V13.32H68.0916H70.0916V7.44H68.0916ZM68.0916 13.32V15.32H75.2516V13.32V11.32H68.0916V13.32ZM75.2516 13.32H77.2516V7.44H75.2516H73.2516V13.32H75.2516ZM75.2516 7.44V9.44H78.8116V7.44V5.44H75.2516V7.44ZM78.8116 7.44H80.8116V2.04H78.8116H76.8116V7.44H78.8116ZM78.8116 2.04V4.04H88.4916V2.04V0.0399976H78.8116V2.04ZM88.4916 2.04H86.4916V30.04H88.4916H90.4916V2.04H88.4916ZM88.4916 30.04V28.04H78.8116V30.04V32.04H88.4916V30.04ZM78.8116 30.04H80.8116V18.72H78.8116H76.8116V30.04H78.8116ZM78.8116 18.72V16.72H75.2516V18.72V20.72H78.8116V18.72ZM75.2516 18.72H73.2516V24.64H75.2516H77.2516V18.72H75.2516ZM75.2516 24.64V22.64H68.0916V24.64V26.64H75.2516V24.64ZM68.0916 24.64H70.0916V18.72H68.0916H66.0916V24.64H68.0916ZM68.0916 18.72V16.72H64.5316V18.72V20.72H68.0916V18.72ZM64.5316 18.72H62.5316V30.04H64.5316H66.5316V18.72H64.5316ZM64.5316 30.04V28.04H54.8516V30.04V32.04H64.5316V30.04ZM54.8516 30.04H56.8516V2.04H54.8516H52.8516V30.04H54.8516ZM54.8516 2.04V4.04H64.5316V2.04V0.0399976H54.8516V2.04ZM101.016 2.04H103.016L101.016 0.0399976V2.04ZM101.016 7.44H99.0159L101.016 9.44V7.44ZM104.576 7.44H106.576L104.576 5.44V7.44ZM104.576 13.32H102.576L104.576 15.32V13.32ZM111.736 13.32V15.32L113.736 13.32H111.736ZM111.736 7.44V5.44L109.736 7.44H111.736ZM115.296 7.44V9.44L117.296 7.44H115.296ZM115.296 2.04V0.0399976L113.296 2.04H115.296ZM124.976 2.04H126.976L124.976 0.0399976V2.04ZM124.976 30.04V32.04L126.976 30.04H124.976ZM115.296 30.04H113.296L115.296 32.04V30.04ZM115.296 18.72H117.296L115.296 16.72V18.72ZM111.736 18.72V16.72L109.736 18.72H111.736ZM111.736 24.64V26.64L113.736 24.64H111.736ZM104.576 24.64H102.576L104.576 26.64V24.64ZM104.576 18.72H106.576L104.576 16.72V18.72ZM101.016 18.72V16.72L99.0159 18.72H101.016ZM101.016 30.04V32.04L103.016 30.04H101.016ZM91.3359 30.04H89.3359L91.3359 32.04V30.04ZM91.3359 2.04V0.0399976L89.3359 2.04H91.3359ZM101.016 2.04H99.0159V7.44H101.016H103.016V2.04H101.016ZM101.016 7.44V9.44H104.576V7.44V5.44H101.016V7.44ZM104.576 7.44H102.576V13.32H104.576H106.576V7.44H104.576ZM104.576 13.32V15.32H111.736V13.32V11.32H104.576V13.32ZM111.736 13.32H113.736V7.44H111.736H109.736V13.32H111.736ZM111.736 7.44V9.44H115.296V7.44V5.44H111.736V7.44ZM115.296 7.44H117.296V2.04H115.296H113.296V7.44H115.296ZM115.296 2.04V4.04H124.976V2.04V0.0399976H115.296V2.04ZM124.976 2.04H122.976V30.04H124.976H126.976V2.04H124.976ZM124.976 30.04V28.04H115.296V30.04V32.04H124.976V30.04ZM115.296 30.04H117.296V18.72H115.296H113.296V30.04H115.296ZM115.296 18.72V16.72H111.736V18.72V20.72H115.296V18.72ZM111.736 18.72H109.736V24.64H111.736H113.736V18.72H111.736ZM111.736 24.64V22.64H104.576V24.64V26.64H111.736V24.64ZM104.576 24.64H106.576V18.72H104.576H102.576V24.64H104.576ZM104.576 18.72V16.72H101.016V18.72V20.72H104.576V18.72ZM101.016 18.72H99.0159V30.04H101.016H103.016V18.72H101.016ZM101.016 30.04V28.04H91.3359V30.04V32.04H101.016V30.04ZM91.3359 30.04H93.3359V2.04H91.3359H89.3359V30.04H91.3359ZM91.3359 2.04V4.04H101.016V2.04V0.0399976H91.3359V2.04ZM127.82 30.04H125.82L127.82 32.04V30.04ZM127.82 2V-1.90735e-06L125.82 2H127.82ZM137.5 2H139.5L137.5 -1.90735e-06V2ZM137.5 30.04V32.04L139.5 30.04H137.5ZM127.82 30.04H129.82V2H127.82H125.82V30.04H127.82ZM127.82 2V4H137.5V2V-1.90735e-06H127.82V2ZM137.5 2H135.5V30.04H137.5H139.5V2H137.5ZM137.5 30.04V28.04H127.82V30.04V32.04H137.5V30.04ZM163.919 30.04V32.04L165.919 30.04H163.919ZM140.359 30.04H138.359L140.359 32.04V30.04ZM140.359 24.64V22.64L138.359 24.64H140.359ZM154.239 24.64V26.64L156.239 24.64H154.239ZM154.239 18.72H156.239L154.239 16.72V18.72ZM140.359 18.72H138.359L140.359 20.72V18.72ZM140.359 2.04V0.0399976L138.359 2.04H140.359ZM163.919 2.04H165.919L163.919 0.0399976V2.04ZM163.919 7.44V9.44L165.919 7.44H163.919ZM150.039 7.44V5.44L148.039 7.44H150.039ZM150.039 13.32H148.039L150.039 15.32V13.32ZM163.919 13.32H165.919L163.919 11.32V13.32ZM163.919 30.04V28.04H140.359V30.04V32.04H163.919V30.04ZM140.359 30.04H142.359V24.64H140.359H138.359V30.04H140.359ZM140.359 24.64V26.64H154.239V24.64V22.64H140.359V24.64ZM154.239 24.64H156.239V18.72H154.239H152.239V24.64H154.239ZM154.239 18.72V16.72H140.359V18.72V20.72H154.239V18.72ZM140.359 18.72H142.359V2.04H140.359H138.359V18.72H140.359ZM140.359 2.04V4.04H163.919V2.04V0.0399976H140.359V2.04ZM163.919 2.04H161.919V7.44H163.919H165.919V2.04H163.919ZM163.919 7.44V5.44H150.039V7.44V9.44H163.919V7.44ZM150.039 7.44H148.039V13.32H150.039H152.039V7.44H150.039ZM150.039 13.32V15.32H163.919V13.32V11.32H150.039V13.32ZM163.919 13.32H161.919V30.04H163.919H165.919V13.32H163.919ZM190.326 30.04V32.04L192.326 30.04H190.326ZM166.766 30.04H164.766L166.766 32.04V30.04ZM166.766 24.64V22.64L164.766 24.64H166.766ZM180.646 24.64V26.64L182.646 24.64H180.646ZM180.646 18.72H182.646L180.646 16.72V18.72ZM166.766 18.72H164.766L166.766 20.72V18.72ZM166.766 2.04V0.0399976L164.766 2.04H166.766ZM190.326 2.04H192.326L190.326 0.0399976V2.04ZM190.326 7.44V9.44L192.326 7.44H190.326ZM176.446 7.44V5.44L174.446 7.44H176.446ZM176.446 13.32H174.446L176.446 15.32V13.32ZM190.326 13.32H192.326L190.326 11.32V13.32ZM190.326 30.04V28.04H166.766V30.04V32.04H190.326V30.04ZM166.766 30.04H168.766V24.64H166.766H164.766V30.04H166.766ZM166.766 24.64V26.64H180.646V24.64V22.64H166.766V24.64ZM180.646 24.64H182.646V18.72H180.646H178.646V24.64H180.646ZM180.646 18.72V16.72H166.766V18.72V20.72H180.646V18.72ZM166.766 18.72H168.766V2.04H166.766H164.766V18.72H166.766ZM166.766 2.04V4.04H190.326V2.04V0.0399976H166.766V2.04ZM190.326 2.04H188.326V7.44H190.326H192.326V2.04H190.326ZM190.326 7.44V5.44H176.446V7.44V9.44H190.326V7.44ZM176.446 7.44H174.446V13.32H176.446H178.446V7.44H176.446ZM176.446 13.32V15.32H190.326V13.32V11.32H176.446V13.32ZM190.326 13.32H188.326V30.04H190.326H192.326V13.32H190.326ZM193.172 30.04H191.172L193.172 32.04V30.04ZM193.172 2V-1.90735e-06L191.172 2H193.172ZM202.852 2H204.852L202.852 -1.90735e-06V2ZM202.852 30.04V32.04L204.852 30.04H202.852ZM193.172 30.04H195.172V2H193.172H191.172V30.04H193.172ZM193.172 2V4H202.852V2V-1.90735e-06H193.172V2ZM202.852 2H200.852V30.04H202.852H204.852V2H202.852ZM202.852 30.04V28.04H193.172V30.04V32.04H202.852V30.04ZM205.711 30.04H203.711L205.711 32.04V30.04ZM205.711 2.04V0.0399976L203.711 2.04H205.711ZM229.311 2.04H231.311L229.311 0.0399976V2.04ZM229.311 30.04V32.04L231.311 30.04H229.311ZM215.391 7.44V5.44L213.391 7.44H215.391ZM215.391 24.64H213.391L215.391 26.64V24.64ZM219.591 24.64V26.64L221.591 24.64H219.591ZM219.591 7.44H221.591L219.591 5.44V7.44ZM205.711 30.04H207.711V29.92H205.711H203.711V30.04H205.711ZM205.711 29.92H207.711V2.04H205.711H203.711V29.92H205.711ZM205.711 2.04V4.04H229.311V2.04V0.0399976H205.711V2.04ZM229.311 2.04H227.311V30.04H229.311H231.311V2.04H229.311ZM229.311 30.04V28.04H205.711V30.04V32.04H229.311V30.04ZM215.391 7.44H213.391V24.64H215.391H217.391V7.44H215.391ZM215.391 24.64V26.64H219.591V24.64V22.64H215.391V24.64ZM219.591 24.64H221.591V7.44H219.591H217.591V24.64H219.591ZM219.591 7.44V5.44H215.391V7.44V9.44H219.591V7.44ZM249.317 2.04V0.0399976L247.317 2.04H249.317ZM258.997 2.04H260.997L258.997 0.0399976V2.04ZM258.997 30.04V32.04L260.997 30.04H258.997ZM249.317 30.04H247.317L249.317 32.04V30.04ZM249.317 22.04H251.317L249.317 20.04V22.04ZM245.637 22.04H243.637L245.637 24.04V22.04ZM245.637 16.16H247.637L245.637 14.16V16.16ZM241.797 16.16V14.16L239.797 16.16H241.797ZM241.797 30.04V32.04L243.797 30.04H241.797ZM232.117 30.04H230.117L232.117 32.04V30.04ZM232.117 2.04V0.0399976L230.117 2.04H232.117ZM241.797 2.04H243.797L241.797 0.0399976V2.04ZM241.797 7.44H239.797L241.797 9.44V7.44ZM245.757 7.44H247.757L245.757 5.44V7.44ZM245.757 13.32H243.757L245.757 15.32V13.32ZM249.317 13.32V15.32L251.317 13.32H249.317ZM249.317 2.04V4.04H258.997V2.04V0.0399976H249.317V2.04ZM258.997 2.04H256.997V30.04H258.997H260.997V2.04H258.997ZM258.997 30.04V28.04H249.317V30.04V32.04H258.997V30.04ZM249.317 30.04H251.317V22.04H249.317H247.317V30.04H249.317ZM249.317 22.04V20.04H245.637V22.04V24.04H249.317V22.04ZM245.637 22.04H247.637V16.16H245.637H243.637V22.04H245.637ZM245.637 16.16V14.16H241.797V16.16V18.16H245.637V16.16ZM241.797 16.16H239.797V30.04H241.797H243.797V16.16H241.797ZM241.797 30.04V28.04H232.117V30.04V32.04H241.797V30.04ZM232.117 30.04H234.117V2.04H232.117H230.117V30.04H232.117ZM232.117 2.04V4.04H241.797V2.04V0.0399976H232.117V2.04ZM241.797 2.04H239.797V7.44H241.797H243.797V2.04H241.797ZM241.797 7.44V9.44H245.757V7.44V5.44H241.797V7.44ZM245.757 7.44H243.757V13.32H245.757H247.757V7.44H245.757ZM245.757 13.32V15.32H249.317V13.32V11.32H245.757V13.32ZM249.317 13.32H251.317V2.04H249.317H247.317V13.32H249.317ZM285.404 30.04V32.04L287.404 30.04H285.404ZM261.844 30.04H259.844L261.844 32.04V30.04ZM261.844 24.64V22.64L259.844 24.64H261.844ZM275.724 24.64V26.64L277.724 24.64H275.724ZM275.724 18.72H277.724L275.724 16.72V18.72ZM261.844 18.72H259.844L261.844 20.72V18.72ZM261.844 2.04V0.0399976L259.844 2.04H261.844ZM285.404 2.04H287.404L285.404 0.0399976V2.04ZM285.404 7.44V9.44L287.404 7.44H285.404ZM271.524 7.44V5.44L269.524 7.44H271.524ZM271.524 13.32H269.524L271.524 15.32V13.32ZM285.404 13.32H287.404L285.404 11.32V13.32ZM285.404 30.04V28.04H261.844V30.04V32.04H285.404V30.04ZM261.844 30.04H263.844V24.64H261.844H259.844V30.04H261.844ZM261.844 24.64V26.64H275.724V24.64V22.64H261.844V24.64ZM275.724 24.64H277.724V18.72H275.724H273.724V24.64H275.724ZM275.724 18.72V16.72H261.844V18.72V20.72H275.724V18.72ZM261.844 18.72H263.844V2.04H261.844H259.844V18.72H261.844ZM261.844 2.04V4.04H285.404V2.04V0.0399976H261.844V2.04ZM285.404 2.04H283.404V7.44H285.404H287.404V2.04H285.404ZM285.404 7.44V5.44H271.524V7.44V9.44H285.404V7.44ZM271.524 7.44H269.524V13.32H271.524H273.524V7.44H271.524ZM271.524 13.32V15.32H285.404V13.32V11.32H271.524V13.32ZM285.404 13.32H283.404V30.04H285.404H287.404V13.32H285.404Z" fill="white" mask="url(#path-1-outside-1_9_11)"/>
<mask id="path-3-outside-2_9_11" maskUnits="userSpaceOnUse" x="0.225" y="39" width="262" height="31" fill="black">
<rect fill="white" x="0.225" y="39" width="262" height="31"/>
<path d="M25.6772 68H2.11719V62.6H15.9972V56.72H2.11719V51.32H15.9972V45.4H2.11719V40H25.6772V68ZM48.2834 65.36V68.04H28.5234V40.04H48.2834V42.84H52.1234V65.36H48.2834ZM42.4034 62.64V45.44H38.2034V62.64H42.4034ZM95.4047 62.6H98.7247V68.04H71.8047V54H75.1247V51.32H71.8047V40H91.9647V51.32H88.8847V54H93.4447V51.32H98.7247V56.72H95.4047V62.6ZM85.6847 51.32V45.4H81.5247V51.32H85.6847ZM85.6847 62.6V56.72H81.4847V62.6H85.6847ZM138.646 54.04H141.966L142.006 68.04H118.406V40.04H142.006V51.32H138.646V54.04ZM128.086 56.76V62.64H132.286V56.76H128.086ZM132.286 45.44H128.086V51.32H132.286V45.44ZM154.532 40.04V62.64H158.732V40.04H168.412L168.452 68.04H144.852V40.04H154.532ZM171.297 68.04V40.04H180.977V68.04H171.297ZM183.836 68.04V40.04H193.516V62.64H207.436V68.04H183.836ZM230.041 65.36V68.04H210.281V40.04H230.041V42.84H233.881V65.36H230.041ZM224.161 62.64V45.44H219.961V62.64H224.161ZM260.287 68.04H236.727V62.64H250.607V56.76H236.727V40.04H260.287V45.44H246.407V51.32H260.287V68.04Z"/>
</mask>
<path d="M25.6772 68H2.11719V62.6H15.9972V56.72H2.11719V51.32H15.9972V45.4H2.11719V40H25.6772V68ZM48.2834 65.36V68.04H28.5234V40.04H48.2834V42.84H52.1234V65.36H48.2834ZM42.4034 62.64V45.44H38.2034V62.64H42.4034ZM95.4047 62.6H98.7247V68.04H71.8047V54H75.1247V51.32H71.8047V40H91.9647V51.32H88.8847V54H93.4447V51.32H98.7247V56.72H95.4047V62.6ZM85.6847 51.32V45.4H81.5247V51.32H85.6847ZM85.6847 62.6V56.72H81.4847V62.6H85.6847ZM138.646 54.04H141.966L142.006 68.04H118.406V40.04H142.006V51.32H138.646V54.04ZM128.086 56.76V62.64H132.286V56.76H128.086ZM132.286 45.44H128.086V51.32H132.286V45.44ZM154.532 40.04V62.64H158.732V40.04H168.412L168.452 68.04H144.852V40.04H154.532ZM171.297 68.04V40.04H180.977V68.04H171.297ZM183.836 68.04V40.04H193.516V62.64H207.436V68.04H183.836ZM230.041 65.36V68.04H210.281V40.04H230.041V42.84H233.881V65.36H230.041ZM224.161 62.64V45.44H219.961V62.64H224.161ZM260.287 68.04H236.727V62.64H250.607V56.76H236.727V40.04H260.287V45.44H246.407V51.32H260.287V68.04Z" fill="white"/>
<path d="M25.6772 68V69L26.6772 68H25.6772ZM2.11719 68H1.11719L2.11719 69V68ZM2.11719 62.6V61.6L1.11719 62.6H2.11719ZM15.9972 62.6V63.6L16.9972 62.6H15.9972ZM15.9972 56.72H16.9972L15.9972 55.72V56.72ZM2.11719 56.72H1.11719L2.11719 57.72V56.72ZM2.11719 51.32V50.32L1.11719 51.32H2.11719ZM15.9972 51.32V52.32L16.9972 51.32H15.9972ZM15.9972 45.4H16.9972L15.9972 44.4V45.4ZM2.11719 45.4H1.11719L2.11719 46.4V45.4ZM2.11719 40V39L1.11719 40H2.11719ZM25.6772 40H26.6772L25.6772 39V40ZM25.6772 68V67H2.11719V68V69H25.6772V68ZM2.11719 68H3.11719V62.6H2.11719H1.11719V68H2.11719ZM2.11719 62.6V63.6H15.9972V62.6V61.6H2.11719V62.6ZM15.9972 62.6H16.9972V56.72H15.9972H14.9972V62.6H15.9972ZM15.9972 56.72V55.72H2.11719V56.72V57.72H15.9972V56.72ZM2.11719 56.72H3.11719V51.32H2.11719H1.11719V56.72H2.11719ZM2.11719 51.32V52.32H15.9972V51.32V50.32H2.11719V51.32ZM15.9972 51.32H16.9972V45.4H15.9972H14.9972V51.32H15.9972ZM15.9972 45.4V44.4H2.11719V45.4V46.4H15.9972V45.4ZM2.11719 45.4H3.11719V40H2.11719H1.11719V45.4H2.11719ZM2.11719 40V41H25.6772V40V39H2.11719V40ZM25.6772 40H24.6772V68H25.6772H26.6772V40H25.6772ZM48.2834 65.36V64.36L47.2834 65.36H48.2834ZM48.2834 68.04V69.04L49.2834 68.04H48.2834ZM28.5234 68.04H27.5234L28.5234 69.04V68.04ZM28.5234 40.04V39.04L27.5234 40.04H28.5234ZM48.2834 40.04H49.2834L48.2834 39.04V40.04ZM48.2834 42.84H47.2834L48.2834 43.84V42.84ZM52.1234 42.84H53.1234L52.1234 41.84V42.84ZM52.1234 65.36V66.36L53.1234 65.36H52.1234ZM42.4034 62.64V63.64L43.4034 62.64H42.4034ZM42.4034 45.44H43.4034L42.4034 44.44V45.44ZM38.2034 45.44V44.44L37.2034 45.44H38.2034ZM38.2034 62.64H37.2034L38.2034 63.64V62.64ZM48.2834 65.36H47.2834V68.04H48.2834H49.2834V65.36H48.2834ZM48.2834 68.04V67.04H28.5234V68.04V69.04H48.2834V68.04ZM28.5234 68.04H29.5234V40.04H28.5234H27.5234V68.04H28.5234ZM28.5234 40.04V41.04H48.2834V40.04V39.04H28.5234V40.04ZM48.2834 40.04H47.2834V42.84H48.2834H49.2834V40.04H48.2834ZM48.2834 42.84V43.84H52.1234V42.84V41.84H48.2834V42.84ZM52.1234 42.84H51.1234V65.36H52.1234H53.1234V42.84H52.1234ZM52.1234 65.36V64.36H48.2834V65.36V66.36H52.1234V65.36ZM42.4034 62.64H43.4034V45.44H42.4034H41.4034V62.64H42.4034ZM42.4034 45.44V44.44H38.2034V45.44V46.44H42.4034V45.44ZM38.2034 45.44H37.2034V62.64H38.2034H39.2034V45.44H38.2034ZM38.2034 62.64V63.64H42.4034V62.64V61.64H38.2034V62.64ZM95.4047 62.6H94.4047L95.4047 63.6V62.6ZM98.7247 62.6H99.7247L98.7247 61.6V62.6ZM98.7247 68.04V69.04L99.7247 68.04H98.7247ZM71.8047 68.04H70.8047L71.8047 69.04V68.04ZM71.8047 54V53L70.8047 54H71.8047ZM75.1247 54V55L76.1247 54H75.1247ZM75.1247 51.32H76.1247L75.1247 50.32V51.32ZM71.8047 51.32H70.8047L71.8047 52.32V51.32ZM71.8047 40V39L70.8047 40H71.8047ZM91.9647 40H92.9647L91.9647 39V40ZM91.9647 51.32V52.32L92.9647 51.32H91.9647ZM88.8847 51.32V50.32L87.8847 51.32H88.8847ZM88.8847 54H87.8847L88.8847 55V54ZM93.4447 54V55L94.4447 54H93.4447ZM93.4447 51.32V50.32L92.4447 51.32H93.4447ZM98.7247 51.32H99.7247L98.7247 50.32V51.32ZM98.7247 56.72V57.72L99.7247 56.72H98.7247ZM95.4047 56.72V55.72L94.4047 56.72H95.4047ZM85.6847 51.32V52.32L86.6847 51.32H85.6847ZM85.6847 45.4H86.6847L85.6847 44.4V45.4ZM81.5247 45.4V44.4L80.5247 45.4H81.5247ZM81.5247 51.32H80.5247L81.5247 52.32V51.32ZM85.6847 62.6V63.6L86.6847 62.6H85.6847ZM85.6847 56.72H86.6847L85.6847 55.72V56.72ZM81.4847 56.72V55.72L80.4847 56.72H81.4847ZM81.4847 62.6H80.4847L81.4847 63.6V62.6ZM95.4047 62.6V63.6H98.7247V62.6V61.6H95.4047V62.6ZM98.7247 62.6H97.7247V68.04H98.7247H99.7247V62.6H98.7247ZM98.7247 68.04V67.04H71.8047V68.04V69.04H98.7247V68.04ZM71.8047 68.04H72.8047V54H71.8047H70.8047V68.04H71.8047ZM71.8047 54V55H75.1247V54V53H71.8047V54ZM75.1247 54H76.1247V51.32H75.1247H74.1247V54H75.1247ZM75.1247 51.32V50.32H71.8047V51.32V52.32H75.1247V51.32ZM71.8047 51.32H72.8047V40H71.8047H70.8047V51.32H71.8047ZM71.8047 40V41H91.9647V40V39H71.8047V40ZM91.9647 40H90.9647V51.32H91.9647H92.9647V40H91.9647ZM91.9647 51.32V50.32H88.8847V51.32V52.32H91.9647V51.32ZM88.8847 51.32H87.8847V54H88.8847H89.8847V51.32H88.8847ZM88.8847 54V55H93.4447V54V53H88.8847V54ZM93.4447 54H94.4447V51.32H93.4447H92.4447V54H93.4447ZM93.4447 51.32V52.32H98.7247V51.32V50.32H93.4447V51.32ZM98.7247 51.32H97.7247V56.72H98.7247H99.7247V51.32H98.7247ZM98.7247 56.72V55.72H95.4047V56.72V57.72H98.7247V56.72ZM95.4047 56.72H94.4047V62.6H95.4047H96.4047V56.72H95.4047ZM85.6847 51.32H86.6847V45.4H85.6847H84.6847V51.32H85.6847ZM85.6847 45.4V44.4H81.5247V45.4V46.4H85.6847V45.4ZM81.5247 45.4H80.5247V51.32H81.5247H82.5247V45.4H81.5247ZM81.5247 51.32V52.32H85.6847V51.32V50.32H81.5247V51.32ZM85.6847 62.6H86.6847V56.72H85.6847H84.6847V62.6H85.6847ZM85.6847 56.72V55.72H81.4847V56.72V57.72H85.6847V56.72ZM81.4847 56.72H80.4847V62.6H81.4847H82.4847V56.72H81.4847ZM81.4847 62.6V63.6H85.6847V62.6V61.6H81.4847V62.6ZM138.646 54.04H137.646L138.646 55.04V54.04ZM141.966 54.04L142.966 54.0371L141.966 53.04V54.04ZM142.006 68.04V69.04L143.006 68.0371L142.006 68.04ZM118.406 68.04H117.406L118.406 69.04V68.04ZM118.406 40.04V39.04L117.406 40.04H118.406ZM142.006 40.04H143.006L142.006 39.04V40.04ZM142.006 51.32V52.32L143.006 51.32H142.006ZM138.646 51.32V50.32L137.646 51.32H138.646ZM128.086 56.76V55.76L127.086 56.76H128.086ZM128.086 62.64H127.086L128.086 63.64V62.64ZM132.286 62.64V63.64L133.286 62.64H132.286ZM132.286 56.76H133.286L132.286 55.76V56.76ZM132.286 45.44H133.286L132.286 44.44V45.44ZM128.086 45.44V44.44L127.086 45.44H128.086ZM128.086 51.32H127.086L128.086 52.32V51.32ZM132.286 51.32V52.32L133.286 51.32H132.286ZM138.646 54.04V55.04H141.966V54.04V53.04H138.646V54.04ZM141.966 54.04L140.966 54.0429L141.006 68.0429L142.006 68.04L143.006 68.0371L142.966 54.0371L141.966 54.04ZM142.006 68.04V67.04H118.406V68.04V69.04H142.006V68.04ZM118.406 68.04H119.406V40.04H118.406H117.406V68.04H118.406ZM118.406 40.04V41.04H142.006V40.04V39.04H118.406V40.04ZM142.006 40.04H141.006V51.32H142.006H143.006V40.04H142.006ZM142.006 51.32V50.32H138.646V51.32V52.32H142.006V51.32ZM138.646 51.32H137.646V54.04H138.646H139.646V51.32H138.646ZM128.086 56.76H127.086V62.64H128.086H129.086V56.76H128.086ZM128.086 62.64V63.64H132.286V62.64V61.64H128.086V62.64ZM132.286 62.64H133.286V56.76H132.286H131.286V62.64H132.286ZM132.286 56.76V55.76H128.086V56.76V57.76H132.286V56.76ZM132.286 45.44V44.44H128.086V45.44V46.44H132.286V45.44ZM128.086 45.44H127.086V51.32H128.086H129.086V45.44H128.086ZM128.086 51.32V52.32H132.286V51.32V50.32H128.086V51.32ZM132.286 51.32H133.286V45.44H132.286H131.286V51.32H132.286ZM154.532 40.04H155.532L154.532 39.04V40.04ZM154.532 62.64H153.532L154.532 63.64V62.64ZM158.732 62.64V63.64L159.732 62.64H158.732ZM158.732 40.04V39.04L157.732 40.04H158.732ZM168.412 40.04L169.412 40.0386L168.412 39.04V40.04ZM168.452 68.04V69.04L169.452 68.0386L168.452 68.04ZM144.852 68.04H143.852L144.852 69.04V68.04ZM144.852 40.04V39.04L143.852 40.04H144.852ZM154.532 40.04H153.532V62.64H154.532H155.532V40.04H154.532ZM154.532 62.64V63.64H158.732V62.64V61.64H154.532V62.64ZM158.732 62.64H159.732V40.04H158.732H157.732V62.64H158.732ZM158.732 40.04V41.04H168.412V40.04V39.04H158.732V40.04ZM168.412 40.04L167.412 40.0414L167.452 68.0414L168.452 68.04L169.452 68.0386L169.412 40.0386L168.412 40.04ZM168.452 68.04V67.04H144.852V68.04V69.04H168.452V68.04ZM144.852 68.04H145.852V40.04H144.852H143.852V68.04H144.852ZM144.852 40.04V41.04H154.532V40.04V39.04H144.852V40.04ZM171.297 68.04H170.297L171.297 69.04V68.04ZM171.297 40.04V39.04L170.297 40.04H171.297ZM180.977 40.04H181.977L180.977 39.04V40.04ZM180.977 68.04V69.04L181.977 68.04H180.977ZM171.297 68.04H172.297V40.04H171.297H170.297V68.04H171.297ZM171.297 40.04V41.04H180.977V40.04V39.04H171.297V40.04ZM180.977 40.04H179.977V68.04H180.977H181.977V40.04H180.977ZM180.977 68.04V67.04H171.297V68.04V69.04H180.977V68.04ZM183.836 68.04H182.836L183.836 69.04V68.04ZM183.836 40.04V39.04L182.836 40.04H183.836ZM193.516 40.04H194.516L193.516 39.04V40.04ZM193.516 62.64H192.516L193.516 63.64V62.64ZM207.436 62.64H208.436L207.436 61.64V62.64ZM207.436 68.04V69.04L208.436 68.04H207.436ZM183.836 68.04H184.836V40.04H183.836H182.836V68.04H183.836ZM183.836 40.04V41.04H193.516V40.04V39.04H183.836V40.04ZM193.516 40.04H192.516V62.64H193.516H194.516V40.04H193.516ZM193.516 62.64V63.64H207.436V62.64V61.64H193.516V62.64ZM207.436 62.64H206.436V68.04H207.436H208.436V62.64H207.436ZM207.436 68.04V67.04H183.836V68.04V69.04H207.436V68.04ZM230.041 65.36V64.36L229.041 65.36H230.041ZM230.041 68.04V69.04L231.041 68.04H230.041ZM210.281 68.04H209.281L210.281 69.04V68.04ZM210.281 40.04V39.04L209.281 40.04H210.281ZM230.041 40.04H231.041L230.041 39.04V40.04ZM230.041 42.84H229.041L230.041 43.84V42.84ZM233.881 42.84H234.881L233.881 41.84V42.84ZM233.881 65.36V66.36L234.881 65.36H233.881ZM224.161 62.64V63.64L225.161 62.64H224.161ZM224.161 45.44H225.161L224.161 44.44V45.44ZM219.961 45.44V44.44L218.961 45.44H219.961ZM219.961 62.64H218.961L219.961 63.64V62.64ZM230.041 65.36H229.041V68.04H230.041H231.041V65.36H230.041ZM230.041 68.04V67.04H210.281V68.04V69.04H230.041V68.04ZM210.281 68.04H211.281V40.04H210.281H209.281V68.04H210.281ZM210.281 40.04V41.04H230.041V40.04V39.04H210.281V40.04ZM230.041 40.04H229.041V42.84H230.041H231.041V40.04H230.041ZM230.041 42.84V43.84H233.881V42.84V41.84H230.041V42.84ZM233.881 42.84H232.881V65.36H233.881H234.881V42.84H233.881ZM233.881 65.36V64.36H230.041V65.36V66.36H233.881V65.36ZM224.161 62.64H225.161V45.44H224.161H223.161V62.64H224.161ZM224.161 45.44V44.44H219.961V45.44V46.44H224.161V45.44ZM219.961 45.44H218.961V62.64H219.961H220.961V45.44H219.961ZM219.961 62.64V63.64H224.161V62.64V61.64H219.961V62.64ZM260.287 68.04V69.04L261.287 68.04H260.287ZM236.727 68.04H235.727L236.727 69.04V68.04ZM236.727 62.64V61.64L235.727 62.64H236.727ZM250.607 62.64V63.64L251.607 62.64H250.607ZM250.607 56.76H251.607L250.607 55.76V56.76ZM236.727 56.76H235.727L236.727 57.76V56.76ZM236.727 40.04V39.04L235.727 40.04H236.727ZM260.287 40.04H261.287L260.287 39.04V40.04ZM260.287 45.44V46.44L261.287 45.44H260.287ZM246.407 45.44V44.44L245.407 45.44H246.407ZM246.407 51.32H245.407L246.407 52.32V51.32ZM260.287 51.32H261.287L260.287 50.32V51.32ZM260.287 68.04V67.04H236.727V68.04V69.04H260.287V68.04ZM236.727 68.04H237.727V62.64H236.727H235.727V68.04H236.727ZM236.727 62.64V63.64H250.607V62.64V61.64H236.727V62.64ZM250.607 62.64H251.607V56.76H250.607H249.607V62.64H250.607ZM250.607 56.76V55.76H236.727V56.76V57.76H250.607V56.76ZM236.727 56.76H237.727V40.04H236.727H235.727V56.76H236.727ZM236.727 40.04V41.04H260.287V40.04V39.04H236.727V40.04ZM260.287 40.04H259.287V45.44H260.287H261.287V40.04H260.287ZM260.287 45.44V44.44H246.407V45.44V46.44H260.287V45.44ZM246.407 45.44H245.407V51.32H246.407H247.407V45.44H246.407ZM246.407 51.32V52.32H260.287V51.32V50.32H246.407V51.32ZM260.287 51.32H259.287V68.04H260.287H261.287V51.32H260.287Z" fill="#0F0099" mask="url(#path-3-outside-2_9_11)"/>
</svg>
