<svg width="382" height="76" viewBox="0 0 382 76" fill="none" xmlns="http://www.w3.org/2000/svg">
<mask id="path-1-outside-1_5_382139" maskUnits="userSpaceOnUse" x="34" y="0" width="315" height="33" fill="black">
<rect fill="white" x="34" width="315" height="33"/>
<path d="M45.9198 2.04V7.44H49.4798V13.32H56.6398V7.44H60.1998V2.04H69.8798V30.04H60.1998V18.76H56.6398V24.64H49.4798V18.76H45.9198V30.04H36.2398V2.04H45.9198ZM82.4042 18.76V24.64H96.3242V30.04H72.7242V2.04H96.3242V7.44H82.4042V13.32H96.3242V18.76H82.4042ZM113.05 30.04V18.76H108.85V30.04H99.1695V2.04H122.73V13.32H119.41V16.16H122.73V30.04H113.05ZM113.05 7.44H108.85V13.32H113.05V7.44ZM139.456 30.04V18.76H135.256V30.04H125.576V2.04H149.136V13.32H145.816V16.16H149.136V30.04H139.456ZM139.456 7.44H135.256V13.32H139.456V7.44ZM161.662 2.04V10.52H165.862V2.04H175.582V16.04H168.582V30.04H158.862V16.04H151.982V2.04H161.662ZM178.427 30.04V2.04H202.027V7.44H188.107V24.64H202.027V30.04H178.427ZM218.753 30.04V18.76H214.553V30.04H204.873V2.04H214.553V13.32H218.753V2.04H228.433V30.04H218.753ZM254.839 30.04H245.159V18.76H240.959V30.04H231.279V2.04H254.879L254.839 30.04ZM245.159 13.32V7.44H240.959V13.32H245.159ZM271.604 30.04V18.76H267.404V30.04H257.724V2.04H281.284V13.32H277.964V16.16H281.284V30.04H271.604ZM271.604 7.44H267.404V13.32H271.604V7.44ZM284.13 30.04V2.04H293.81V24.64H307.73V30.04H284.13ZM310.576 30.04V2.04H320.256V30.04H310.576ZM332.795 18.76V24.64H346.715V30.04H323.115V2.04H346.715V7.44H332.795V13.32H346.715V18.76H332.795Z"/>
</mask>
<path d="M45.9198 2.04H47.9198L45.9198 0.0399976V2.04ZM45.9198 7.44H43.9198L45.9198 9.44V7.44ZM49.4798 7.44H51.4798L49.4798 5.44V7.44ZM49.4798 13.32H47.4798L49.4798 15.32V13.32ZM56.6398 13.32V15.32L58.6398 13.32H56.6398ZM56.6398 7.44V5.44L54.6398 7.44H56.6398ZM60.1998 7.44V9.44L62.1998 7.44H60.1998ZM60.1998 2.04V0.0399976L58.1998 2.04H60.1998ZM69.8798 2.04H71.8798L69.8798 0.0399976V2.04ZM69.8798 30.04V32.04L71.8798 30.04H69.8798ZM60.1998 30.04H58.1998L60.1998 32.04V30.04ZM60.1998 18.76H62.1998L60.1998 16.76V18.76ZM56.6398 18.76V16.76L54.6398 18.76H56.6398ZM56.6398 24.64V26.64L58.6398 24.64H56.6398ZM49.4798 24.64H47.4798L49.4798 26.64V24.64ZM49.4798 18.76H51.4798L49.4798 16.76V18.76ZM45.9198 18.76V16.76L43.9198 18.76H45.9198ZM45.9198 30.04V32.04L47.9198 30.04H45.9198ZM36.2398 30.04H34.2398L36.2398 32.04V30.04ZM36.2398 2.04V0.0399976L34.2398 2.04H36.2398ZM45.9198 2.04H43.9198V7.44H45.9198H47.9198V2.04H45.9198ZM45.9198 7.44V9.44H49.4798V7.44V5.44H45.9198V7.44ZM49.4798 7.44H47.4798V13.32H49.4798H51.4798V7.44H49.4798ZM49.4798 13.32V15.32H56.6398V13.32V11.32H49.4798V13.32ZM56.6398 13.32H58.6398V7.44H56.6398H54.6398V13.32H56.6398ZM56.6398 7.44V9.44H60.1998V7.44V5.44H56.6398V7.44ZM60.1998 7.44H62.1998V2.04H60.1998H58.1998V7.44H60.1998ZM60.1998 2.04V4.04H69.8798V2.04V0.0399976H60.1998V2.04ZM69.8798 2.04H67.8798V30.04H69.8798H71.8798V2.04H69.8798ZM69.8798 30.04V28.04H60.1998V30.04V32.04H69.8798V30.04ZM60.1998 30.04H62.1998V18.76H60.1998H58.1998V30.04H60.1998ZM60.1998 18.76V16.76H56.6398V18.76V20.76H60.1998V18.76ZM56.6398 18.76H54.6398V24.64H56.6398H58.6398V18.76H56.6398ZM56.6398 24.64V22.64H49.4798V24.64V26.64H56.6398V24.64ZM49.4798 24.64H51.4798V18.76H49.4798H47.4798V24.64H49.4798ZM49.4798 18.76V16.76H45.9198V18.76V20.76H49.4798V18.76ZM45.9198 18.76H43.9198V30.04H45.9198H47.9198V18.76H45.9198ZM45.9198 30.04V28.04H36.2398V30.04V32.04H45.9198V30.04ZM36.2398 30.04H38.2398V2.04H36.2398H34.2398V30.04H36.2398ZM36.2398 2.04V4.04H45.9198V2.04V0.0399976H36.2398V2.04ZM82.4042 18.76V16.76L80.4042 18.76H82.4042ZM82.4042 24.64H80.4042L82.4042 26.64V24.64ZM96.3242 24.64H98.3242L96.3242 22.64V24.64ZM96.3242 30.04V32.04L98.3242 30.04H96.3242ZM72.7242 30.04H70.7242L72.7242 32.04V30.04ZM72.7242 2.04V0.0399976L70.7242 2.04H72.7242ZM96.3242 2.04H98.3242L96.3242 0.0399976V2.04ZM96.3242 7.44V9.44L98.3242 7.44H96.3242ZM82.4042 7.44V5.44L80.4042 7.44H82.4042ZM82.4042 13.32H80.4042L82.4042 15.32V13.32ZM96.3242 13.32H98.3242L96.3242 11.32V13.32ZM96.3242 18.76V20.76L98.3242 18.76H96.3242ZM82.4042 18.76H80.4042V24.64H82.4042H84.4042V18.76H82.4042ZM82.4042 24.64V26.64H96.3242V24.64V22.64H82.4042V24.64ZM96.3242 24.64H94.3242V30.04H96.3242H98.3242V24.64H96.3242ZM96.3242 30.04V28.04H72.7242V30.04V32.04H96.3242V30.04ZM72.7242 30.04H74.7242V2.04H72.7242H70.7242V30.04H72.7242ZM72.7242 2.04V4.04H96.3242V2.04V0.0399976H72.7242V2.04ZM96.3242 2.04H94.3242V7.44H96.3242H98.3242V2.04H96.3242ZM96.3242 7.44V5.44H82.4042V7.44V9.44H96.3242V7.44ZM82.4042 7.44H80.4042V13.32H82.4042H84.4042V7.44H82.4042ZM82.4042 13.32V15.32H96.3242V13.32V11.32H82.4042V13.32ZM96.3242 13.32H94.3242V18.76H96.3242H98.3242V13.32H96.3242ZM96.3242 18.76V16.76H82.4042V18.76V20.76H96.3242V18.76ZM113.05 30.04H111.05L113.05 32.04V30.04ZM113.05 18.76H115.05L113.05 16.76V18.76ZM108.85 18.76V16.76L106.85 18.76H108.85ZM108.85 30.04V32.04L110.85 30.04H108.85ZM99.1695 30.04H97.1695L99.1695 32.04V30.04ZM99.1695 2.04V0.0399976L97.1695 2.04H99.1695ZM122.73 2.04H124.73L122.73 0.0399976V2.04ZM122.73 13.32V15.32L124.73 13.32H122.73ZM119.41 13.32V11.32L117.41 13.32H119.41ZM119.41 16.16H117.41L119.41 18.16V16.16ZM122.73 16.16H124.73L122.73 14.16V16.16ZM122.73 30.04V32.04L124.73 30.04H122.73ZM113.05 7.44H115.05L113.05 5.44V7.44ZM108.85 7.44V5.44L106.85 7.44H108.85ZM108.85 13.32H106.85L108.85 15.32V13.32ZM113.05 13.32V15.32L115.05 13.32H113.05ZM113.05 30.04H115.05V18.76H113.05H111.05V30.04H113.05ZM113.05 18.76V16.76H108.85V18.76V20.76H113.05V18.76ZM108.85 18.76H106.85V30.04H108.85H110.85V18.76H108.85ZM108.85 30.04V28.04H99.1695V30.04V32.04H108.85V30.04ZM99.1695 30.04H101.17V2.04H99.1695H97.1695V30.04H99.1695ZM99.1695 2.04V4.04H122.73V2.04V0.0399976H99.1695V2.04ZM122.73 2.04H120.73V13.32H122.73H124.73V2.04H122.73ZM122.73 13.32V11.32H119.41V13.32V15.32H122.73V13.32ZM119.41 13.32H117.41V16.16H119.41H121.41V13.32H119.41ZM119.41 16.16V18.16H122.73V16.16V14.16H119.41V16.16ZM122.73 16.16H120.73V30.04H122.73H124.73V16.16H122.73ZM122.73 30.04V28.04H113.05V30.04V32.04H122.73V30.04ZM113.05 7.44V5.44H108.85V7.44V9.44H113.05V7.44ZM108.85 7.44H106.85V13.32H108.85H110.85V7.44H108.85ZM108.85 13.32V15.32H113.05V13.32V11.32H108.85V13.32ZM113.05 13.32H115.05V7.44H113.05H111.05V13.32H113.05ZM139.456 30.04H137.456L139.456 32.04V30.04ZM139.456 18.76H141.456L139.456 16.76V18.76ZM135.256 18.76V16.76L133.256 18.76H135.256ZM135.256 30.04V32.04L137.256 30.04H135.256ZM125.576 30.04H123.576L125.576 32.04V30.04ZM125.576 2.04V0.0399976L123.576 2.04H125.576ZM149.136 2.04H151.136L149.136 0.0399976V2.04ZM149.136 13.32V15.32L151.136 13.32H149.136ZM145.816 13.32V11.32L143.816 13.32H145.816ZM145.816 16.16H143.816L145.816 18.16V16.16ZM149.136 16.16H151.136L149.136 14.16V16.16ZM149.136 30.04V32.04L151.136 30.04H149.136ZM139.456 7.44H141.456L139.456 5.44V7.44ZM135.256 7.44V5.44L133.256 7.44H135.256ZM135.256 13.32H133.256L135.256 15.32V13.32ZM139.456 13.32V15.32L141.456 13.32H139.456ZM139.456 30.04H141.456V18.76H139.456H137.456V30.04H139.456ZM139.456 18.76V16.76H135.256V18.76V20.76H139.456V18.76ZM135.256 18.76H133.256V30.04H135.256H137.256V18.76H135.256ZM135.256 30.04V28.04H125.576V30.04V32.04H135.256V30.04ZM125.576 30.04H127.576V2.04H125.576H123.576V30.04H125.576ZM125.576 2.04V4.04H149.136V2.04V0.0399976H125.576V2.04ZM149.136 2.04H147.136V13.32H149.136H151.136V2.04H149.136ZM149.136 13.32V11.32H145.816V13.32V15.32H149.136V13.32ZM145.816 13.32H143.816V16.16H145.816H147.816V13.32H145.816ZM145.816 16.16V18.16H149.136V16.16V14.16H145.816V16.16ZM149.136 16.16H147.136V30.04H149.136H151.136V16.16H149.136ZM149.136 30.04V28.04H139.456V30.04V32.04H149.136V30.04ZM139.456 7.44V5.44H135.256V7.44V9.44H139.456V7.44ZM135.256 7.44H133.256V13.32H135.256H137.256V7.44H135.256ZM135.256 13.32V15.32H139.456V13.32V11.32H135.256V13.32ZM139.456 13.32H141.456V7.44H139.456H137.456V13.32H139.456ZM161.662 2.04H163.662L161.662 0.0399976V2.04ZM161.662 10.52H159.662L161.662 12.52V10.52ZM165.862 10.52V12.52L167.862 10.52H165.862ZM165.862 2.04V0.0399976L163.862 2.04H165.862ZM175.582 2.04H177.582L175.582 0.0399976V2.04ZM175.582 16.04V18.04L177.582 16.04H175.582ZM168.582 16.04V14.04L166.582 16.04H168.582ZM168.582 30.04V32.04L170.582 30.04H168.582ZM158.862 30.04H156.862L158.862 32.04V30.04ZM158.862 16.04H160.862L158.862 14.04V16.04ZM151.982 16.04H149.982L151.982 18.04V16.04ZM151.982 2.04V0.0399976L149.982 2.04H151.982ZM161.662 2.04H159.662V10.52H161.662H163.662V2.04H161.662ZM161.662 10.52V12.52H165.862V10.52V8.52H161.662V10.52ZM165.862 10.52H167.862V2.04H165.862H163.862V10.52H165.862ZM165.862 2.04V4.04H175.582V2.04V0.0399976H165.862V2.04ZM175.582 2.04H173.582V16.04H175.582H177.582V2.04H175.582ZM175.582 16.04V14.04H168.582V16.04V18.04H175.582V16.04ZM168.582 16.04H166.582V30.04H168.582H170.582V16.04H168.582ZM168.582 30.04V28.04H158.862V30.04V32.04H168.582V30.04ZM158.862 30.04H160.862V16.04H158.862H156.862V30.04H158.862ZM158.862 16.04V14.04H151.982V16.04V18.04H158.862V16.04ZM151.982 16.04H153.982V2.04H151.982H149.982V16.04H151.982ZM151.982 2.04V4.04H161.662V2.04V0.0399976H151.982V2.04ZM178.427 30.04H176.427L178.427 32.04V30.04ZM178.427 2.04V0.0399976L176.427 2.04H178.427ZM202.027 2.04H204.027L202.027 0.0399976V2.04ZM202.027 7.44V9.44L204.027 7.44H202.027ZM188.107 7.44V5.44L186.107 7.44H188.107ZM188.107 24.64H186.107L188.107 26.64V24.64ZM202.027 24.64H204.027L202.027 22.64V24.64ZM202.027 30.04V32.04L204.027 30.04H202.027ZM178.427 30.04H180.427V2.04H178.427H176.427V30.04H178.427ZM178.427 2.04V4.04H202.027V2.04V0.0399976H178.427V2.04ZM202.027 2.04H200.027V7.44H202.027H204.027V2.04H202.027ZM202.027 7.44V5.44H188.107V7.44V9.44H202.027V7.44ZM188.107 7.44H186.107V24.64H188.107H190.107V7.44H188.107ZM188.107 24.64V26.64H202.027V24.64V22.64H188.107V24.64ZM202.027 24.64H200.027V30.04H202.027H204.027V24.64H202.027ZM202.027 30.04V28.04H178.427V30.04V32.04H202.027V30.04ZM218.753 30.04H216.753L218.753 32.04V30.04ZM218.753 18.76H220.753L218.753 16.76V18.76ZM214.553 18.76V16.76L212.553 18.76H214.553ZM214.553 30.04V32.04L216.553 30.04H214.553ZM204.873 30.04H202.873L204.873 32.04V30.04ZM204.873 2.04V0.0399976L202.873 2.04H204.873ZM214.553 2.04H216.553L214.553 0.0399976V2.04ZM214.553 13.32H212.553L214.553 15.32V13.32ZM218.753 13.32V15.32L220.753 13.32H218.753ZM218.753 2.04V0.0399976L216.753 2.04H218.753ZM228.433 2.04H230.433L228.433 0.0399976V2.04ZM228.433 30.04V32.04L230.433 30.04H228.433ZM218.753 30.04H220.753V18.76H218.753H216.753V30.04H218.753ZM218.753 18.76V16.76H214.553V18.76V20.76H218.753V18.76ZM214.553 18.76H212.553V30.04H214.553H216.553V18.76H214.553ZM214.553 30.04V28.04H204.873V30.04V32.04H214.553V30.04ZM204.873 30.04H206.873V2.04H204.873H202.873V30.04H204.873ZM204.873 2.04V4.04H214.553V2.04V0.0399976H204.873V2.04ZM214.553 2.04H212.553V13.32H214.553H216.553V2.04H214.553ZM214.553 13.32V15.32H218.753V13.32V11.32H214.553V13.32ZM218.753 13.32H220.753V2.04H218.753H216.753V13.32H218.753ZM218.753 2.04V4.04H228.433V2.04V0.0399976H218.753V2.04ZM228.433 2.04H226.433V30.04H228.433H230.433V2.04H228.433ZM228.433 30.04V28.04H218.753V30.04V32.04H228.433V30.04ZM254.839 30.04V32.04L256.839 30.0429L254.839 30.04ZM245.159 30.04H243.159L245.159 32.04V30.04ZM245.159 18.76H247.159L245.159 16.76V18.76ZM240.959 18.76V16.76L238.959 18.76H240.959ZM240.959 30.04V32.04L242.959 30.04H240.959ZM231.279 30.04H229.279L231.279 32.04V30.04ZM231.279 2.04V0.0399976L229.279 2.04H231.279ZM254.879 2.04L256.879 2.04285L254.879 0.0399976V2.04ZM245.159 13.32V15.32L247.159 13.32H245.159ZM245.159 7.44H247.159L245.159 5.44V7.44ZM240.959 7.44V5.44L238.959 7.44H240.959ZM240.959 13.32H238.959L240.959 15.32V13.32ZM254.839 30.04V28.04H245.159V30.04V32.04H254.839V30.04ZM245.159 30.04H247.159V18.76H245.159H243.159V30.04H245.159ZM245.159 18.76V16.76H240.959V18.76V20.76H245.159V18.76ZM240.959 18.76H238.959V30.04H240.959H242.959V18.76H240.959ZM240.959 30.04V28.04H231.279V30.04V32.04H240.959V30.04ZM231.279 30.04H233.279V2.04H231.279H229.279V30.04H231.279ZM231.279 2.04V4.04H254.879V2.04V0.0399976H231.279V2.04ZM254.879 2.04L252.879 2.03714L252.839 30.0371L254.839 30.04L256.839 30.0429L256.879 2.04285L254.879 2.04ZM245.159 13.32H247.159V7.44H245.159H243.159V13.32H245.159ZM245.159 7.44V5.44H240.959V7.44V9.44H245.159V7.44ZM240.959 7.44H238.959V13.32H240.959H242.959V7.44H240.959ZM240.959 13.32V15.32H245.159V13.32V11.32H240.959V13.32ZM271.604 30.04H269.604L271.604 32.04V30.04ZM271.604 18.76H273.604L271.604 16.76V18.76ZM267.404 18.76V16.76L265.404 18.76H267.404ZM267.404 30.04V32.04L269.404 30.04H267.404ZM257.724 30.04H255.724L257.724 32.04V30.04ZM257.724 2.04V0.0399976L255.724 2.04H257.724ZM281.284 2.04H283.284L281.284 0.0399976V2.04ZM281.284 13.32V15.32L283.284 13.32H281.284ZM277.964 13.32V11.32L275.964 13.32H277.964ZM277.964 16.16H275.964L277.964 18.16V16.16ZM281.284 16.16H283.284L281.284 14.16V16.16ZM281.284 30.04V32.04L283.284 30.04H281.284ZM271.604 7.44H273.604L271.604 5.44V7.44ZM267.404 7.44V5.44L265.404 7.44H267.404ZM267.404 13.32H265.404L267.404 15.32V13.32ZM271.604 13.32V15.32L273.604 13.32H271.604ZM271.604 30.04H273.604V18.76H271.604H269.604V30.04H271.604ZM271.604 18.76V16.76H267.404V18.76V20.76H271.604V18.76ZM267.404 18.76H265.404V30.04H267.404H269.404V18.76H267.404ZM267.404 30.04V28.04H257.724V30.04V32.04H267.404V30.04ZM257.724 30.04H259.724V2.04H257.724H255.724V30.04H257.724ZM257.724 2.04V4.04H281.284V2.04V0.0399976H257.724V2.04ZM281.284 2.04H279.284V13.32H281.284H283.284V2.04H281.284ZM281.284 13.32V11.32H277.964V13.32V15.32H281.284V13.32ZM277.964 13.32H275.964V16.16H277.964H279.964V13.32H277.964ZM277.964 16.16V18.16H281.284V16.16V14.16H277.964V16.16ZM281.284 16.16H279.284V30.04H281.284H283.284V16.16H281.284ZM281.284 30.04V28.04H271.604V30.04V32.04H281.284V30.04ZM271.604 7.44V5.44H267.404V7.44V9.44H271.604V7.44ZM267.404 7.44H265.404V13.32H267.404H269.404V7.44H267.404ZM267.404 13.32V15.32H271.604V13.32V11.32H267.404V13.32ZM271.604 13.32H273.604V7.44H271.604H269.604V13.32H271.604ZM284.13 30.04H282.13L284.13 32.04V30.04ZM284.13 2.04V0.0399976L282.13 2.04H284.13ZM293.81 2.04H295.81L293.81 0.0399976V2.04ZM293.81 24.64H291.81L293.81 26.64V24.64ZM307.73 24.64H309.73L307.73 22.64V24.64ZM307.73 30.04V32.04L309.73 30.04H307.73ZM284.13 30.04H286.13V2.04H284.13H282.13V30.04H284.13ZM284.13 2.04V4.04H293.81V2.04V0.0399976H284.13V2.04ZM293.81 2.04H291.81V24.64H293.81H295.81V2.04H293.81ZM293.81 24.64V26.64H307.73V24.64V22.64H293.81V24.64ZM307.73 24.64H305.73V30.04H307.73H309.73V24.64H307.73ZM307.73 30.04V28.04H284.13V30.04V32.04H307.73V30.04ZM310.576 30.04H308.576L310.576 32.04V30.04ZM310.576 2.04V0.0399976L308.576 2.04H310.576ZM320.256 2.04H322.256L320.256 0.0399976V2.04ZM320.256 30.04V32.04L322.256 30.04H320.256ZM310.576 30.04H312.576V2.04H310.576H308.576V30.04H310.576ZM310.576 2.04V4.04H320.256V2.04V0.0399976H310.576V2.04ZM320.256 2.04H318.256V30.04H320.256H322.256V2.04H320.256ZM320.256 30.04V28.04H310.576V30.04V32.04H320.256V30.04ZM332.795 18.76V16.76L330.795 18.76H332.795ZM332.795 24.64H330.795L332.795 26.64V24.64ZM346.715 24.64H348.715L346.715 22.64V24.64ZM346.715 30.04V32.04L348.715 30.04H346.715ZM323.115 30.04H321.115L323.115 32.04V30.04ZM323.115 2.04V0.0399976L321.115 2.04H323.115ZM346.715 2.04H348.715L346.715 0.0399976V2.04ZM346.715 7.44V9.44L348.715 7.44H346.715ZM332.795 7.44V5.44L330.795 7.44H332.795ZM332.795 13.32H330.795L332.795 15.32V13.32ZM346.715 13.32H348.715L346.715 11.32V13.32ZM346.715 18.76V20.76L348.715 18.76H346.715ZM332.795 18.76H330.795V24.64H332.795H334.795V18.76H332.795ZM332.795 24.64V26.64H346.715V24.64V22.64H332.795V24.64ZM346.715 24.64H344.715V30.04H346.715H348.715V24.64H346.715ZM346.715 30.04V28.04H323.115V30.04V32.04H346.715V30.04ZM323.115 30.04H325.115V2.04H323.115H321.115V30.04H323.115ZM323.115 2.04V4.04H346.715V2.04V0.0399976H323.115V2.04ZM346.715 2.04H344.715V7.44H346.715H348.715V2.04H346.715ZM346.715 7.44V5.44H332.795V7.44V9.44H346.715V7.44ZM332.795 7.44H330.795V13.32H332.795H334.795V7.44H332.795ZM332.795 13.32V15.32H346.715V13.32V11.32H332.795V13.32ZM346.715 13.32H344.715V18.76H346.715H348.715V13.32H346.715ZM346.715 18.76V16.76H332.795V18.76V20.76H346.715V18.76Z" fill="#0F0099" mask="url(#path-1-outside-1_5_382139)"/>
<mask id="path-3-outside-2_5_382139" maskUnits="userSpaceOnUse" x="61" y="39" width="261" height="31" fill="black">
<rect fill="white" x="61" y="39" width="261" height="31"/>
<path d="M85.9522 68H62.3922V62.6H76.2722V56.72H62.3922V51.32H76.2722V45.4H62.3922V40H85.9522V68ZM108.558 65.36V68.04H88.7984V40.04H108.558V42.84H112.398V65.36H108.558ZM102.678 62.64V45.44H98.4784V62.64H102.678ZM155.68 62.6H159V68.04H132.08V54H135.4V51.32H132.08V40H152.24V51.32H149.16V54H153.72V51.32H159V56.72H155.68V62.6ZM145.96 51.32V45.4H141.8V51.32H145.96ZM145.96 62.6V56.72H141.76V62.6H145.96ZM198.921 54.04H202.241L202.281 68.04H178.681V40.04H202.281V51.32H198.921V54.04ZM188.361 56.76V62.64H192.561V56.76H188.361ZM192.561 45.44H188.361V51.32H192.561V45.44ZM214.807 40.04V62.64H219.007V40.04H228.687L228.727 68.04H205.127V40.04H214.807ZM231.572 68.04V40.04H241.252V68.04H231.572ZM244.111 68.04V40.04H253.791V62.64H267.711V68.04H244.111ZM290.316 65.36V68.04H270.556V40.04H290.316V42.84H294.156V65.36H290.316ZM284.436 62.64V45.44H280.236V62.64H284.436ZM320.562 68.04H297.002V62.64H310.882V56.76H297.002V40.04H320.562V45.44H306.682V51.32H320.562V68.04Z"/>
</mask>
<path d="M85.9522 68H62.3922V62.6H76.2722V56.72H62.3922V51.32H76.2722V45.4H62.3922V40H85.9522V68ZM108.558 65.36V68.04H88.7984V40.04H108.558V42.84H112.398V65.36H108.558ZM102.678 62.64V45.44H98.4784V62.64H102.678ZM155.68 62.6H159V68.04H132.08V54H135.4V51.32H132.08V40H152.24V51.32H149.16V54H153.72V51.32H159V56.72H155.68V62.6ZM145.96 51.32V45.4H141.8V51.32H145.96ZM145.96 62.6V56.72H141.76V62.6H145.96ZM198.921 54.04H202.241L202.281 68.04H178.681V40.04H202.281V51.32H198.921V54.04ZM188.361 56.76V62.64H192.561V56.76H188.361ZM192.561 45.44H188.361V51.32H192.561V45.44ZM214.807 40.04V62.64H219.007V40.04H228.687L228.727 68.04H205.127V40.04H214.807ZM231.572 68.04V40.04H241.252V68.04H231.572ZM244.111 68.04V40.04H253.791V62.64H267.711V68.04H244.111ZM290.316 65.36V68.04H270.556V40.04H290.316V42.84H294.156V65.36H290.316ZM284.436 62.64V45.44H280.236V62.64H284.436ZM320.562 68.04H297.002V62.64H310.882V56.76H297.002V40.04H320.562V45.44H306.682V51.32H320.562V68.04Z" fill="#0F0099"/>
<path d="M85.9522 68V69L86.9522 68H85.9522ZM62.3922 68H61.3922L62.3922 69V68ZM62.3922 62.6V61.6L61.3922 62.6H62.3922ZM76.2722 62.6V63.6L77.2722 62.6H76.2722ZM76.2722 56.72H77.2722L76.2722 55.72V56.72ZM62.3922 56.72H61.3922L62.3922 57.72V56.72ZM62.3922 51.32V50.32L61.3922 51.32H62.3922ZM76.2722 51.32V52.32L77.2722 51.32H76.2722ZM76.2722 45.4H77.2722L76.2722 44.4V45.4ZM62.3922 45.4H61.3922L62.3922 46.4V45.4ZM62.3922 40V39L61.3922 40H62.3922ZM85.9522 40H86.9522L85.9522 39V40ZM85.9522 68V67H62.3922V68V69H85.9522V68ZM62.3922 68H63.3922V62.6H62.3922H61.3922V68H62.3922ZM62.3922 62.6V63.6H76.2722V62.6V61.6H62.3922V62.6ZM76.2722 62.6H77.2722V56.72H76.2722H75.2722V62.6H76.2722ZM76.2722 56.72V55.72H62.3922V56.72V57.72H76.2722V56.72ZM62.3922 56.72H63.3922V51.32H62.3922H61.3922V56.72H62.3922ZM62.3922 51.32V52.32H76.2722V51.32V50.32H62.3922V51.32ZM76.2722 51.32H77.2722V45.4H76.2722H75.2722V51.32H76.2722ZM76.2722 45.4V44.4H62.3922V45.4V46.4H76.2722V45.4ZM62.3922 45.4H63.3922V40H62.3922H61.3922V45.4H62.3922ZM62.3922 40V41H85.9522V40V39H62.3922V40ZM85.9522 40H84.9522V68H85.9522H86.9522V40H85.9522ZM108.558 65.36V64.36L107.558 65.36H108.558ZM108.558 68.04V69.04L109.558 68.04H108.558ZM88.7984 68.04H87.7984L88.7984 69.04V68.04ZM88.7984 40.04V39.04L87.7984 40.04H88.7984ZM108.558 40.04H109.558L108.558 39.04V40.04ZM108.558 42.84H107.558L108.558 43.84V42.84ZM112.398 42.84H113.398L112.398 41.84V42.84ZM112.398 65.36V66.36L113.398 65.36H112.398ZM102.678 62.64V63.64L103.678 62.64H102.678ZM102.678 45.44H103.678L102.678 44.44V45.44ZM98.4784 45.44V44.44L97.4784 45.44H98.4784ZM98.4784 62.64H97.4784L98.4784 63.64V62.64ZM108.558 65.36H107.558V68.04H108.558H109.558V65.36H108.558ZM108.558 68.04V67.04H88.7984V68.04V69.04H108.558V68.04ZM88.7984 68.04H89.7984V40.04H88.7984H87.7984V68.04H88.7984ZM88.7984 40.04V41.04H108.558V40.04V39.04H88.7984V40.04ZM108.558 40.04H107.558V42.84H108.558H109.558V40.04H108.558ZM108.558 42.84V43.84H112.398V42.84V41.84H108.558V42.84ZM112.398 42.84H111.398V65.36H112.398H113.398V42.84H112.398ZM112.398 65.36V64.36H108.558V65.36V66.36H112.398V65.36ZM102.678 62.64H103.678V45.44H102.678H101.678V62.64H102.678ZM102.678 45.44V44.44H98.4784V45.44V46.44H102.678V45.44ZM98.4784 45.44H97.4784V62.64H98.4784H99.4784V45.44H98.4784ZM98.4784 62.64V63.64H102.678V62.64V61.64H98.4784V62.64ZM155.68 62.6H154.68L155.68 63.6V62.6ZM159 62.6H160L159 61.6V62.6ZM159 68.04V69.04L160 68.04H159ZM132.08 68.04H131.08L132.08 69.04V68.04ZM132.08 54V53L131.08 54H132.08ZM135.4 54V55L136.4 54H135.4ZM135.4 51.32H136.4L135.4 50.32V51.32ZM132.08 51.32H131.08L132.08 52.32V51.32ZM132.08 40V39L131.08 40H132.08ZM152.24 40H153.24L152.24 39V40ZM152.24 51.32V52.32L153.24 51.32H152.24ZM149.16 51.32V50.32L148.16 51.32H149.16ZM149.16 54H148.16L149.16 55V54ZM153.72 54V55L154.72 54H153.72ZM153.72 51.32V50.32L152.72 51.32H153.72ZM159 51.32H160L159 50.32V51.32ZM159 56.72V57.72L160 56.72H159ZM155.68 56.72V55.72L154.68 56.72H155.68ZM145.96 51.32V52.32L146.96 51.32H145.96ZM145.96 45.4H146.96L145.96 44.4V45.4ZM141.8 45.4V44.4L140.8 45.4H141.8ZM141.8 51.32H140.8L141.8 52.32V51.32ZM145.96 62.6V63.6L146.96 62.6H145.96ZM145.96 56.72H146.96L145.96 55.72V56.72ZM141.76 56.72V55.72L140.76 56.72H141.76ZM141.76 62.6H140.76L141.76 63.6V62.6ZM155.68 62.6V63.6H159V62.6V61.6H155.68V62.6ZM159 62.6H158V68.04H159H160V62.6H159ZM159 68.04V67.04H132.08V68.04V69.04H159V68.04ZM132.08 68.04H133.08V54H132.08H131.08V68.04H132.08ZM132.08 54V55H135.4V54V53H132.08V54ZM135.4 54H136.4V51.32H135.4H134.4V54H135.4ZM135.4 51.32V50.32H132.08V51.32V52.32H135.4V51.32ZM132.08 51.32H133.08V40H132.08H131.08V51.32H132.08ZM132.08 40V41H152.24V40V39H132.08V40ZM152.24 40H151.24V51.32H152.24H153.24V40H152.24ZM152.24 51.32V50.32H149.16V51.32V52.32H152.24V51.32ZM149.16 51.32H148.16V54H149.16H150.16V51.32H149.16ZM149.16 54V55H153.72V54V53H149.16V54ZM153.72 54H154.72V51.32H153.72H152.72V54H153.72ZM153.72 51.32V52.32H159V51.32V50.32H153.72V51.32ZM159 51.32H158V56.72H159H160V51.32H159ZM159 56.72V55.72H155.68V56.72V57.72H159V56.72ZM155.68 56.72H154.68V62.6H155.68H156.68V56.72H155.68ZM145.96 51.32H146.96V45.4H145.96H144.96V51.32H145.96ZM145.96 45.4V44.4H141.8V45.4V46.4H145.96V45.4ZM141.8 45.4H140.8V51.32H141.8H142.8V45.4H141.8ZM141.8 51.32V52.32H145.96V51.32V50.32H141.8V51.32ZM145.96 62.6H146.96V56.72H145.96H144.96V62.6H145.96ZM145.96 56.72V55.72H141.76V56.72V57.72H145.96V56.72ZM141.76 56.72H140.76V62.6H141.76H142.76V56.72H141.76ZM141.76 62.6V63.6H145.96V62.6V61.6H141.76V62.6ZM198.921 54.04H197.921L198.921 55.04V54.04ZM202.241 54.04L203.241 54.0371L202.241 53.04V54.04ZM202.281 68.04V69.04L203.281 68.0371L202.281 68.04ZM178.681 68.04H177.681L178.681 69.04V68.04ZM178.681 40.04V39.04L177.681 40.04H178.681ZM202.281 40.04H203.281L202.281 39.04V40.04ZM202.281 51.32V52.32L203.281 51.32H202.281ZM198.921 51.32V50.32L197.921 51.32H198.921ZM188.361 56.76V55.76L187.361 56.76H188.361ZM188.361 62.64H187.361L188.361 63.64V62.64ZM192.561 62.64V63.64L193.561 62.64H192.561ZM192.561 56.76H193.561L192.561 55.76V56.76ZM192.561 45.44H193.561L192.561 44.44V45.44ZM188.361 45.44V44.44L187.361 45.44H188.361ZM188.361 51.32H187.361L188.361 52.32V51.32ZM192.561 51.32V52.32L193.561 51.32H192.561ZM198.921 54.04V55.04H202.241V54.04V53.04H198.921V54.04ZM202.241 54.04L201.241 54.0429L201.281 68.0429L202.281 68.04L203.281 68.0371L203.241 54.0371L202.241 54.04ZM202.281 68.04V67.04H178.681V68.04V69.04H202.281V68.04ZM178.681 68.04H179.681V40.04H178.681H177.681V68.04H178.681ZM178.681 40.04V41.04H202.281V40.04V39.04H178.681V40.04ZM202.281 40.04H201.281V51.32H202.281H203.281V40.04H202.281ZM202.281 51.32V50.32H198.921V51.32V52.32H202.281V51.32ZM198.921 51.32H197.921V54.04H198.921H199.921V51.32H198.921ZM188.361 56.76H187.361V62.64H188.361H189.361V56.76H188.361ZM188.361 62.64V63.64H192.561V62.64V61.64H188.361V62.64ZM192.561 62.64H193.561V56.76H192.561H191.561V62.64H192.561ZM192.561 56.76V55.76H188.361V56.76V57.76H192.561V56.76ZM192.561 45.44V44.44H188.361V45.44V46.44H192.561V45.44ZM188.361 45.44H187.361V51.32H188.361H189.361V45.44H188.361ZM188.361 51.32V52.32H192.561V51.32V50.32H188.361V51.32ZM192.561 51.32H193.561V45.44H192.561H191.561V51.32H192.561ZM214.807 40.04H215.807L214.807 39.04V40.04ZM214.807 62.64H213.807L214.807 63.64V62.64ZM219.007 62.64V63.64L220.007 62.64H219.007ZM219.007 40.04V39.04L218.007 40.04H219.007ZM228.687 40.04L229.687 40.0386L228.687 39.04V40.04ZM228.727 68.04V69.04L229.727 68.0386L228.727 68.04ZM205.127 68.04H204.127L205.127 69.04V68.04ZM205.127 40.04V39.04L204.127 40.04H205.127ZM214.807 40.04H213.807V62.64H214.807H215.807V40.04H214.807ZM214.807 62.64V63.64H219.007V62.64V61.64H214.807V62.64ZM219.007 62.64H220.007V40.04H219.007H218.007V62.64H219.007ZM219.007 40.04V41.04H228.687V40.04V39.04H219.007V40.04ZM228.687 40.04L227.687 40.0414L227.727 68.0414L228.727 68.04L229.727 68.0386L229.687 40.0386L228.687 40.04ZM228.727 68.04V67.04H205.127V68.04V69.04H228.727V68.04ZM205.127 68.04H206.127V40.04H205.127H204.127V68.04H205.127ZM205.127 40.04V41.04H214.807V40.04V39.04H205.127V40.04ZM231.572 68.04H230.572L231.572 69.04V68.04ZM231.572 40.04V39.04L230.572 40.04H231.572ZM241.252 40.04H242.252L241.252 39.04V40.04ZM241.252 68.04V69.04L242.252 68.04H241.252ZM231.572 68.04H232.572V40.04H231.572H230.572V68.04H231.572ZM231.572 40.04V41.04H241.252V40.04V39.04H231.572V40.04ZM241.252 40.04H240.252V68.04H241.252H242.252V40.04H241.252ZM241.252 68.04V67.04H231.572V68.04V69.04H241.252V68.04ZM244.111 68.04H243.111L244.111 69.04V68.04ZM244.111 40.04V39.04L243.111 40.04H244.111ZM253.791 40.04H254.791L253.791 39.04V40.04ZM253.791 62.64H252.791L253.791 63.64V62.64ZM267.711 62.64H268.711L267.711 61.64V62.64ZM267.711 68.04V69.04L268.711 68.04H267.711ZM244.111 68.04H245.111V40.04H244.111H243.111V68.04H244.111ZM244.111 40.04V41.04H253.791V40.04V39.04H244.111V40.04ZM253.791 40.04H252.791V62.64H253.791H254.791V40.04H253.791ZM253.791 62.64V63.64H267.711V62.64V61.64H253.791V62.64ZM267.711 62.64H266.711V68.04H267.711H268.711V62.64H267.711ZM267.711 68.04V67.04H244.111V68.04V69.04H267.711V68.04ZM290.316 65.36V64.36L289.316 65.36H290.316ZM290.316 68.04V69.04L291.316 68.04H290.316ZM270.556 68.04H269.556L270.556 69.04V68.04ZM270.556 40.04V39.04L269.556 40.04H270.556ZM290.316 40.04H291.316L290.316 39.04V40.04ZM290.316 42.84H289.316L290.316 43.84V42.84ZM294.156 42.84H295.156L294.156 41.84V42.84ZM294.156 65.36V66.36L295.156 65.36H294.156ZM284.436 62.64V63.64L285.436 62.64H284.436ZM284.436 45.44H285.436L284.436 44.44V45.44ZM280.236 45.44V44.44L279.236 45.44H280.236ZM280.236 62.64H279.236L280.236 63.64V62.64ZM290.316 65.36H289.316V68.04H290.316H291.316V65.36H290.316ZM290.316 68.04V67.04H270.556V68.04V69.04H290.316V68.04ZM270.556 68.04H271.556V40.04H270.556H269.556V68.04H270.556ZM270.556 40.04V41.04H290.316V40.04V39.04H270.556V40.04ZM290.316 40.04H289.316V42.84H290.316H291.316V40.04H290.316ZM290.316 42.84V43.84H294.156V42.84V41.84H290.316V42.84ZM294.156 42.84H293.156V65.36H294.156H295.156V42.84H294.156ZM294.156 65.36V64.36H290.316V65.36V66.36H294.156V65.36ZM284.436 62.64H285.436V45.44H284.436H283.436V62.64H284.436ZM284.436 45.44V44.44H280.236V45.44V46.44H284.436V45.44ZM280.236 45.44H279.236V62.64H280.236H281.236V45.44H280.236ZM280.236 62.64V63.64H284.436V62.64V61.64H280.236V62.64ZM320.562 68.04V69.04L321.562 68.04H320.562ZM297.002 68.04H296.002L297.002 69.04V68.04ZM297.002 62.64V61.64L296.002 62.64H297.002ZM310.882 62.64V63.64L311.882 62.64H310.882ZM310.882 56.76H311.882L310.882 55.76V56.76ZM297.002 56.76H296.002L297.002 57.76V56.76ZM297.002 40.04V39.04L296.002 40.04H297.002ZM320.562 40.04H321.562L320.562 39.04V40.04ZM320.562 45.44V46.44L321.562 45.44H320.562ZM306.682 45.44V44.44L305.682 45.44H306.682ZM306.682 51.32H305.682L306.682 52.32V51.32ZM320.562 51.32H321.562L320.562 50.32V51.32ZM320.562 68.04V67.04H297.002V68.04V69.04H320.562V68.04ZM297.002 68.04H298.002V62.64H297.002H296.002V68.04H297.002ZM297.002 62.64V63.64H310.882V62.64V61.64H297.002V62.64ZM310.882 62.64H311.882V56.76H310.882H309.882V62.64H310.882ZM310.882 56.76V55.76H297.002V56.76V57.76H310.882V56.76ZM297.002 56.76H298.002V40.04H297.002H296.002V56.76H297.002ZM297.002 40.04V41.04H320.562V40.04V39.04H297.002V40.04ZM320.562 40.04H319.562V45.44H320.562H321.562V40.04H320.562ZM320.562 45.44V44.44H306.682V45.44V46.44H320.562V45.44ZM306.682 45.44H305.682V51.32H306.682H307.682V45.44H306.682ZM306.682 51.32V52.32H320.562V51.32V50.32H306.682V51.32ZM320.562 51.32H319.562V68.04H320.562H321.562V51.32H320.562Z" fill="white" mask="url(#path-3-outside-2_5_382139)"/>
</svg>
