<svg width="383" height="76" viewBox="0 0 383 76" fill="none" xmlns="http://www.w3.org/2000/svg">
<rect width="29" height="38" transform="translate(0.240631 19)" fill="white"/>
<mask id="path-1-outside-1_18_390" maskUnits="userSpaceOnUse" x="-0.759369" y="19" width="31" height="33" fill="black">
<rect fill="white" x="-0.759369" y="19" width="31" height="33"/>
<path d="M11.68 37.72H21.64V43.6H27.44V49.04H17.72V43.6H7.76001V37.72H2.00001V32.32H7.76001V26.4H17.72V21H27.44V26.4H21.64V32.32H11.68V37.72Z"/>
</mask>
<path d="M11.68 37.72H21.64V43.6H27.44V49.04H17.72V43.6H7.76001V37.72H2.00001V32.32H7.76001V26.4H17.72V21H27.44V26.4H21.64V32.32H11.68V37.72Z" fill="#0F0099"/>
<path d="M11.68 37.72H9.68001L11.68 39.72V37.72ZM21.64 37.72H23.64L21.64 35.72V37.72ZM21.64 43.6H19.64L21.64 45.6V43.6ZM27.44 43.6H29.44L27.44 41.6V43.6ZM27.44 49.04V51.04L29.44 49.04H27.44ZM17.72 49.04H15.72L17.72 51.04V49.04ZM17.72 43.6H19.72L17.72 41.6V43.6ZM7.76001 43.6H5.76001L7.76001 45.6V43.6ZM7.76001 37.72H9.76001L7.76001 35.72V37.72ZM2.00001 37.72H6.10948e-06L2.00001 39.72V37.72ZM2.00001 32.32V30.32L6.10948e-06 32.32H2.00001ZM7.76001 32.32V34.32L9.76001 32.32H7.76001ZM7.76001 26.4V24.4L5.76001 26.4H7.76001ZM17.72 26.4V28.4L19.72 26.4H17.72ZM17.72 21V19L15.72 21H17.72ZM27.44 21H29.44L27.44 19V21ZM27.44 26.4V28.4L29.44 26.4H27.44ZM21.64 26.4V24.4L19.64 26.4H21.64ZM21.64 32.32V34.32L23.64 32.32H21.64ZM11.68 32.32V30.32L9.68001 32.32H11.68ZM11.68 37.72V39.72H21.64V37.72V35.72H11.68V37.72ZM21.64 37.72H19.64V43.6H21.64H23.64V37.72H21.64ZM21.64 43.6V45.6H27.44V43.6V41.6H21.64V43.6ZM27.44 43.6H25.44V49.04H27.44H29.44V43.6H27.44ZM27.44 49.04V47.04H17.72V49.04V51.04H27.44V49.04ZM17.72 49.04H19.72V43.6H17.72H15.72V49.04H17.72ZM17.72 43.6V41.6H7.76001V43.6V45.6H17.72V43.6ZM7.76001 43.6H9.76001V37.72H7.76001H5.76001V43.6H7.76001ZM7.76001 37.72V35.72H2.00001V37.72V39.72H7.76001V37.72ZM2.00001 37.72H4.00001V32.32H2.00001H6.10948e-06V37.72H2.00001ZM2.00001 32.32V34.32H7.76001V32.32V30.32H2.00001V32.32ZM7.76001 32.32H9.76001V26.4H7.76001H5.76001V32.32H7.76001ZM7.76001 26.4V28.4H17.72V26.4V24.4H7.76001V26.4ZM17.72 26.4H19.72V21H17.72H15.72V26.4H17.72ZM17.72 21V23H27.44V21V19H17.72V21ZM27.44 21H25.44V26.4H27.44H29.44V21H27.44ZM27.44 26.4V24.4H21.64V26.4V28.4H27.44V26.4ZM21.64 26.4H19.64V32.32H21.64H23.64V26.4H21.64ZM21.64 32.32V30.32H11.68V32.32V34.32H21.64V32.32ZM11.68 32.32H9.68001V37.72H11.68H13.68V32.32H11.68Z" fill="white" mask="url(#path-1-outside-1_18_390)"/>
<mask id="path-3-outside-2_18_390" maskUnits="userSpaceOnUse" x="48.2406" y="0" width="264" height="33" fill="black">
<rect fill="white" x="48.2406" width="264" height="33"/>
<path d="M74.6147 30H51.0547V24.6H64.9347V18.72H51.0547V13.32H64.9347V7.4H51.0547V2H74.6147V30ZM97.2209 27.36V30.04H77.4609V2.04H97.2209V4.84H101.061V27.36H97.2209ZM91.3409 24.64V7.44H87.1409V24.64H91.3409ZM103.906 19.48V14.08H121.106V19.48H103.906ZM137.825 30.04V18.76H133.625V30.04H123.945V2.04H147.505V13.32H144.185V16.16H147.505V30.04H137.825ZM137.825 7.44H133.625V13.32H137.825V7.44ZM160.032 18.76V24.64H173.952V30.04H150.352V2.04H173.952V7.44H160.032V13.32H173.952V18.76H160.032ZM193.997 2.04H203.677V30.04H193.997V22.08H190.317V16.16H186.477V30.04H176.797V2.04H186.477V7.44H190.437V13.32H193.997V2.04ZM226.283 27.36V30.04H206.523V2.04H226.283V4.84H230.123V27.36H226.283ZM220.403 24.64V7.44H216.203V24.64H220.403ZM242.649 18.76V24.64H256.569V30.04H232.969V2.04H256.569V7.44H242.649V13.32H256.569V18.76H242.649ZM273.294 30.04V18.76H269.094V30.04H259.414V2.04H282.974V13.32H279.654V16.16H282.974V30.04H273.294ZM273.294 7.44H269.094V13.32H273.294V7.44ZM309.38 30.04H285.82V24.64H299.7V18.76H285.82V2.04H309.38V7.44H295.5V13.32H309.38V30.04Z"/>
</mask>
<path d="M74.6147 30V32L76.6147 30H74.6147ZM51.0547 30H49.0547L51.0547 32V30ZM51.0547 24.6V22.6L49.0547 24.6H51.0547ZM64.9347 24.6V26.6L66.9347 24.6H64.9347ZM64.9347 18.72H66.9347L64.9347 16.72V18.72ZM51.0547 18.72H49.0547L51.0547 20.72V18.72ZM51.0547 13.32V11.32L49.0547 13.32H51.0547ZM64.9347 13.32V15.32L66.9347 13.32H64.9347ZM64.9347 7.4H66.9347L64.9347 5.4V7.4ZM51.0547 7.4H49.0547L51.0547 9.4V7.4ZM51.0547 2V-1.90735e-06L49.0547 2H51.0547ZM74.6147 2H76.6147L74.6147 -1.90735e-06V2ZM74.6147 30V28H51.0547V30V32H74.6147V30ZM51.0547 30H53.0547V24.6H51.0547H49.0547V30H51.0547ZM51.0547 24.6V26.6H64.9347V24.6V22.6H51.0547V24.6ZM64.9347 24.6H66.9347V18.72H64.9347H62.9347V24.6H64.9347ZM64.9347 18.72V16.72H51.0547V18.72V20.72H64.9347V18.72ZM51.0547 18.72H53.0547V13.32H51.0547H49.0547V18.72H51.0547ZM51.0547 13.32V15.32H64.9347V13.32V11.32H51.0547V13.32ZM64.9347 13.32H66.9347V7.4H64.9347H62.9347V13.32H64.9347ZM64.9347 7.4V5.4H51.0547V7.4V9.4H64.9347V7.4ZM51.0547 7.4H53.0547V2H51.0547H49.0547V7.4H51.0547ZM51.0547 2V4H74.6147V2V-1.90735e-06H51.0547V2ZM74.6147 2H72.6147V30H74.6147H76.6147V2H74.6147ZM97.2209 27.36V25.36L95.2209 27.36H97.2209ZM97.2209 30.04V32.04L99.2209 30.04H97.2209ZM77.4609 30.04H75.4609L77.4609 32.04V30.04ZM77.4609 2.04V0.0399976L75.4609 2.04H77.4609ZM97.2209 2.04H99.2209L97.2209 0.0399976V2.04ZM97.2209 4.84H95.2209L97.2209 6.84V4.84ZM101.061 4.84H103.061L101.061 2.84V4.84ZM101.061 27.36V29.36L103.061 27.36H101.061ZM91.3409 24.64V26.64L93.3409 24.64H91.3409ZM91.3409 7.44H93.3409L91.3409 5.44V7.44ZM87.1409 7.44V5.44L85.1409 7.44H87.1409ZM87.1409 24.64H85.1409L87.1409 26.64V24.64ZM97.2209 27.36H95.2209V30.04H97.2209H99.2209V27.36H97.2209ZM97.2209 30.04V28.04H77.4609V30.04V32.04H97.2209V30.04ZM77.4609 30.04H79.4609V2.04H77.4609H75.4609V30.04H77.4609ZM77.4609 2.04V4.04H97.2209V2.04V0.0399976H77.4609V2.04ZM97.2209 2.04H95.2209V4.84H97.2209H99.2209V2.04H97.2209ZM97.2209 4.84V6.84H101.061V4.84V2.84H97.2209V4.84ZM101.061 4.84H99.0609V27.36H101.061H103.061V4.84H101.061ZM101.061 27.36V25.36H97.2209V27.36V29.36H101.061V27.36ZM91.3409 24.64H93.3409V7.44H91.3409H89.3409V24.64H91.3409ZM91.3409 7.44V5.44H87.1409V7.44V9.44H91.3409V7.44ZM87.1409 7.44H85.1409V24.64H87.1409H89.1409V7.44H87.1409ZM87.1409 24.64V26.64H91.3409V24.64V22.64H87.1409V24.64ZM103.906 19.48H101.906L103.906 21.48V19.48ZM103.906 14.08V12.08L101.906 14.08H103.906ZM121.106 14.08H123.106L121.106 12.08V14.08ZM121.106 19.48V21.48L123.106 19.48H121.106ZM103.906 19.48H105.906V14.08H103.906H101.906V19.48H103.906ZM103.906 14.08V16.08H121.106V14.08V12.08H103.906V14.08ZM121.106 14.08H119.106V19.48H121.106H123.106V14.08H121.106ZM121.106 19.48V17.48H103.906V19.48V21.48H121.106V19.48ZM137.825 30.04H135.825L137.825 32.04V30.04ZM137.825 18.76H139.825L137.825 16.76V18.76ZM133.625 18.76V16.76L131.625 18.76H133.625ZM133.625 30.04V32.04L135.625 30.04H133.625ZM123.945 30.04H121.945L123.945 32.04V30.04ZM123.945 2.04V0.0399976L121.945 2.04H123.945ZM147.505 2.04H149.505L147.505 0.0399976V2.04ZM147.505 13.32V15.32L149.505 13.32H147.505ZM144.185 13.32V11.32L142.185 13.32H144.185ZM144.185 16.16H142.185L144.185 18.16V16.16ZM147.505 16.16H149.505L147.505 14.16V16.16ZM147.505 30.04V32.04L149.505 30.04H147.505ZM137.825 7.44H139.825L137.825 5.44V7.44ZM133.625 7.44V5.44L131.625 7.44H133.625ZM133.625 13.32H131.625L133.625 15.32V13.32ZM137.825 13.32V15.32L139.825 13.32H137.825ZM137.825 30.04H139.825V18.76H137.825H135.825V30.04H137.825ZM137.825 18.76V16.76H133.625V18.76V20.76H137.825V18.76ZM133.625 18.76H131.625V30.04H133.625H135.625V18.76H133.625ZM133.625 30.04V28.04H123.945V30.04V32.04H133.625V30.04ZM123.945 30.04H125.945V2.04H123.945H121.945V30.04H123.945ZM123.945 2.04V4.04H147.505V2.04V0.0399976H123.945V2.04ZM147.505 2.04H145.505V13.32H147.505H149.505V2.04H147.505ZM147.505 13.32V11.32H144.185V13.32V15.32H147.505V13.32ZM144.185 13.32H142.185V16.16H144.185H146.185V13.32H144.185ZM144.185 16.16V18.16H147.505V16.16V14.16H144.185V16.16ZM147.505 16.16H145.505V30.04H147.505H149.505V16.16H147.505ZM147.505 30.04V28.04H137.825V30.04V32.04H147.505V30.04ZM137.825 7.44V5.44H133.625V7.44V9.44H137.825V7.44ZM133.625 7.44H131.625V13.32H133.625H135.625V7.44H133.625ZM133.625 13.32V15.32H137.825V13.32V11.32H133.625V13.32ZM137.825 13.32H139.825V7.44H137.825H135.825V13.32H137.825ZM160.032 18.76V16.76L158.032 18.76H160.032ZM160.032 24.64H158.032L160.032 26.64V24.64ZM173.952 24.64H175.952L173.952 22.64V24.64ZM173.952 30.04V32.04L175.952 30.04H173.952ZM150.352 30.04H148.352L150.352 32.04V30.04ZM150.352 2.04V0.0399976L148.352 2.04H150.352ZM173.952 2.04H175.952L173.952 0.0399976V2.04ZM173.952 7.44V9.44L175.952 7.44H173.952ZM160.032 7.44V5.44L158.032 7.44H160.032ZM160.032 13.32H158.032L160.032 15.32V13.32ZM173.952 13.32H175.952L173.952 11.32V13.32ZM173.952 18.76V20.76L175.952 18.76H173.952ZM160.032 18.76H158.032V24.64H160.032H162.032V18.76H160.032ZM160.032 24.64V26.64H173.952V24.64V22.64H160.032V24.64ZM173.952 24.64H171.952V30.04H173.952H175.952V24.64H173.952ZM173.952 30.04V28.04H150.352V30.04V32.04H173.952V30.04ZM150.352 30.04H152.352V2.04H150.352H148.352V30.04H150.352ZM150.352 2.04V4.04H173.952V2.04V0.0399976H150.352V2.04ZM173.952 2.04H171.952V7.44H173.952H175.952V2.04H173.952ZM173.952 7.44V5.44H160.032V7.44V9.44H173.952V7.44ZM160.032 7.44H158.032V13.32H160.032H162.032V7.44H160.032ZM160.032 13.32V15.32H173.952V13.32V11.32H160.032V13.32ZM173.952 13.32H171.952V18.76H173.952H175.952V13.32H173.952ZM173.952 18.76V16.76H160.032V18.76V20.76H173.952V18.76ZM193.997 2.04V0.0399976L191.997 2.04H193.997ZM203.677 2.04H205.677L203.677 0.0399976V2.04ZM203.677 30.04V32.04L205.677 30.04H203.677ZM193.997 30.04H191.997L193.997 32.04V30.04ZM193.997 22.08H195.997L193.997 20.08V22.08ZM190.317 22.08H188.317L190.317 24.08V22.08ZM190.317 16.16H192.317L190.317 14.16V16.16ZM186.477 16.16V14.16L184.477 16.16H186.477ZM186.477 30.04V32.04L188.477 30.04H186.477ZM176.797 30.04H174.797L176.797 32.04V30.04ZM176.797 2.04V0.0399976L174.797 2.04H176.797ZM186.477 2.04H188.477L186.477 0.0399976V2.04ZM186.477 7.44H184.477L186.477 9.44V7.44ZM190.437 7.44H192.437L190.437 5.44V7.44ZM190.437 13.32H188.437L190.437 15.32V13.32ZM193.997 13.32V15.32L195.997 13.32H193.997ZM193.997 2.04V4.04H203.677V2.04V0.0399976H193.997V2.04ZM203.677 2.04H201.677V30.04H203.677H205.677V2.04H203.677ZM203.677 30.04V28.04H193.997V30.04V32.04H203.677V30.04ZM193.997 30.04H195.997V22.08H193.997H191.997V30.04H193.997ZM193.997 22.08V20.08H190.317V22.08V24.08H193.997V22.08ZM190.317 22.08H192.317V16.16H190.317H188.317V22.08H190.317ZM190.317 16.16V14.16H186.477V16.16V18.16H190.317V16.16ZM186.477 16.16H184.477V30.04H186.477H188.477V16.16H186.477ZM186.477 30.04V28.04H176.797V30.04V32.04H186.477V30.04ZM176.797 30.04H178.797V2.04H176.797H174.797V30.04H176.797ZM176.797 2.04V4.04H186.477V2.04V0.0399976H176.797V2.04ZM186.477 2.04H184.477V7.44H186.477H188.477V2.04H186.477ZM186.477 7.44V9.44H190.437V7.44V5.44H186.477V7.44ZM190.437 7.44H188.437V13.32H190.437H192.437V7.44H190.437ZM190.437 13.32V15.32H193.997V13.32V11.32H190.437V13.32ZM193.997 13.32H195.997V2.04H193.997H191.997V13.32H193.997ZM226.283 27.36V25.36L224.283 27.36H226.283ZM226.283 30.04V32.04L228.283 30.04H226.283ZM206.523 30.04H204.523L206.523 32.04V30.04ZM206.523 2.04V0.0399976L204.523 2.04H206.523ZM226.283 2.04H228.283L226.283 0.0399976V2.04ZM226.283 4.84H224.283L226.283 6.84V4.84ZM230.123 4.84H232.123L230.123 2.84V4.84ZM230.123 27.36V29.36L232.123 27.36H230.123ZM220.403 24.64V26.64L222.403 24.64H220.403ZM220.403 7.44H222.403L220.403 5.44V7.44ZM216.203 7.44V5.44L214.203 7.44H216.203ZM216.203 24.64H214.203L216.203 26.64V24.64ZM226.283 27.36H224.283V30.04H226.283H228.283V27.36H226.283ZM226.283 30.04V28.04H206.523V30.04V32.04H226.283V30.04ZM206.523 30.04H208.523V2.04H206.523H204.523V30.04H206.523ZM206.523 2.04V4.04H226.283V2.04V0.0399976H206.523V2.04ZM226.283 2.04H224.283V4.84H226.283H228.283V2.04H226.283ZM226.283 4.84V6.84H230.123V4.84V2.84H226.283V4.84ZM230.123 4.84H228.123V27.36H230.123H232.123V4.84H230.123ZM230.123 27.36V25.36H226.283V27.36V29.36H230.123V27.36ZM220.403 24.64H222.403V7.44H220.403H218.403V24.64H220.403ZM220.403 7.44V5.44H216.203V7.44V9.44H220.403V7.44ZM216.203 7.44H214.203V24.64H216.203H218.203V7.44H216.203ZM216.203 24.64V26.64H220.403V24.64V22.64H216.203V24.64ZM242.649 18.76V16.76L240.649 18.76H242.649ZM242.649 24.64H240.649L242.649 26.64V24.64ZM256.569 24.64H258.569L256.569 22.64V24.64ZM256.569 30.04V32.04L258.569 30.04H256.569ZM232.969 30.04H230.969L232.969 32.04V30.04ZM232.969 2.04V0.0399976L230.969 2.04H232.969ZM256.569 2.04H258.569L256.569 0.0399976V2.04ZM256.569 7.44V9.44L258.569 7.44H256.569ZM242.649 7.44V5.44L240.649 7.44H242.649ZM242.649 13.32H240.649L242.649 15.32V13.32ZM256.569 13.32H258.569L256.569 11.32V13.32ZM256.569 18.76V20.76L258.569 18.76H256.569ZM242.649 18.76H240.649V24.64H242.649H244.649V18.76H242.649ZM242.649 24.64V26.64H256.569V24.64V22.64H242.649V24.64ZM256.569 24.64H254.569V30.04H256.569H258.569V24.64H256.569ZM256.569 30.04V28.04H232.969V30.04V32.04H256.569V30.04ZM232.969 30.04H234.969V2.04H232.969H230.969V30.04H232.969ZM232.969 2.04V4.04H256.569V2.04V0.0399976H232.969V2.04ZM256.569 2.04H254.569V7.44H256.569H258.569V2.04H256.569ZM256.569 7.44V5.44H242.649V7.44V9.44H256.569V7.44ZM242.649 7.44H240.649V13.32H242.649H244.649V7.44H242.649ZM242.649 13.32V15.32H256.569V13.32V11.32H242.649V13.32ZM256.569 13.32H254.569V18.76H256.569H258.569V13.32H256.569ZM256.569 18.76V16.76H242.649V18.76V20.76H256.569V18.76ZM273.294 30.04H271.294L273.294 32.04V30.04ZM273.294 18.76H275.294L273.294 16.76V18.76ZM269.094 18.76V16.76L267.094 18.76H269.094ZM269.094 30.04V32.04L271.094 30.04H269.094ZM259.414 30.04H257.414L259.414 32.04V30.04ZM259.414 2.04V0.0399976L257.414 2.04H259.414ZM282.974 2.04H284.974L282.974 0.0399976V2.04ZM282.974 13.32V15.32L284.974 13.32H282.974ZM279.654 13.32V11.32L277.654 13.32H279.654ZM279.654 16.16H277.654L279.654 18.16V16.16ZM282.974 16.16H284.974L282.974 14.16V16.16ZM282.974 30.04V32.04L284.974 30.04H282.974ZM273.294 7.44H275.294L273.294 5.44V7.44ZM269.094 7.44V5.44L267.094 7.44H269.094ZM269.094 13.32H267.094L269.094 15.32V13.32ZM273.294 13.32V15.32L275.294 13.32H273.294ZM273.294 30.04H275.294V18.76H273.294H271.294V30.04H273.294ZM273.294 18.76V16.76H269.094V18.76V20.76H273.294V18.76ZM269.094 18.76H267.094V30.04H269.094H271.094V18.76H269.094ZM269.094 30.04V28.04H259.414V30.04V32.04H269.094V30.04ZM259.414 30.04H261.414V2.04H259.414H257.414V30.04H259.414ZM259.414 2.04V4.04H282.974V2.04V0.0399976H259.414V2.04ZM282.974 2.04H280.974V13.32H282.974H284.974V2.04H282.974ZM282.974 13.32V11.32H279.654V13.32V15.32H282.974V13.32ZM279.654 13.32H277.654V16.16H279.654H281.654V13.32H279.654ZM279.654 16.16V18.16H282.974V16.16V14.16H279.654V16.16ZM282.974 16.16H280.974V30.04H282.974H284.974V16.16H282.974ZM282.974 30.04V28.04H273.294V30.04V32.04H282.974V30.04ZM273.294 7.44V5.44H269.094V7.44V9.44H273.294V7.44ZM269.094 7.44H267.094V13.32H269.094H271.094V7.44H269.094ZM269.094 13.32V15.32H273.294V13.32V11.32H269.094V13.32ZM273.294 13.32H275.294V7.44H273.294H271.294V13.32H273.294ZM309.38 30.04V32.04L311.38 30.04H309.38ZM285.82 30.04H283.82L285.82 32.04V30.04ZM285.82 24.64V22.64L283.82 24.64H285.82ZM299.7 24.64V26.64L301.7 24.64H299.7ZM299.7 18.76H301.7L299.7 16.76V18.76ZM285.82 18.76H283.82L285.82 20.76V18.76ZM285.82 2.04V0.0399976L283.82 2.04H285.82ZM309.38 2.04H311.38L309.38 0.0399976V2.04ZM309.38 7.44V9.44L311.38 7.44H309.38ZM295.5 7.44V5.44L293.5 7.44H295.5ZM295.5 13.32H293.5L295.5 15.32V13.32ZM309.38 13.32H311.38L309.38 11.32V13.32ZM309.38 30.04V28.04H285.82V30.04V32.04H309.38V30.04ZM285.82 30.04H287.82V24.64H285.82H283.82V30.04H285.82ZM285.82 24.64V26.64H299.7V24.64V22.64H285.82V24.64ZM299.7 24.64H301.7V18.76H299.7H297.7V24.64H299.7ZM299.7 18.76V16.76H285.82V18.76V20.76H299.7V18.76ZM285.82 18.76H287.82V2.04H285.82H283.82V18.76H285.82ZM285.82 2.04V4.04H309.38V2.04V0.0399976H285.82V2.04ZM309.38 2.04H307.38V7.44H309.38H311.38V2.04H309.38ZM309.38 7.44V5.44H295.5V7.44V9.44H309.38V7.44ZM295.5 7.44H293.5V13.32H295.5H297.5V7.44H295.5ZM295.5 13.32V15.32H309.38V13.32V11.32H295.5V13.32ZM309.38 13.32H307.38V30.04H309.38H311.38V13.32H309.38Z" fill="#0F0099" mask="url(#path-3-outside-2_18_390)"/>
<mask id="path-5-outside-3_18_390" maskUnits="userSpaceOnUse" x="49.2406" y="39" width="189" height="31" fill="black">
<rect fill="white" x="49.2406" y="39" width="189" height="31"/>
<path d="M71.2009 54.04H74.5209L74.5609 68.04H50.9609V40.04H74.5609V51.32H71.2009V54.04ZM60.6409 56.76V62.64H64.8409V56.76H60.6409ZM64.8409 45.44H60.6409V51.32H64.8409V45.44ZM77.4063 68.04V40.04H87.0863V62.64H101.006V68.04H77.4063ZM113.532 56.76V62.64H127.452V68.04H103.852V40.04H127.452V45.44H113.532V51.32H127.452V56.76H113.532ZM147.497 40.04H157.177V68.04H147.497V60.08H143.817V54.16H139.977V68.04H130.297V40.04H139.977V45.44H143.937V51.32H147.497V40.04ZM179.783 65.36V68.04H160.023V40.04H179.783V42.84H183.623V65.36H179.783ZM173.903 62.64V45.44H169.703V62.64H173.903ZM196.149 56.76V62.64H210.069V68.04H186.469V40.04H210.069V45.44H196.149V51.32H210.069V56.76H196.149ZM226.794 68.04V56.76H222.594V68.04H212.914V40.04H236.474V51.32H233.154V54.16H236.474V68.04H226.794ZM226.794 45.44H222.594V51.32H226.794V45.44Z"/>
</mask>
<path d="M71.2009 54.04H74.5209L74.5609 68.04H50.9609V40.04H74.5609V51.32H71.2009V54.04ZM60.6409 56.76V62.64H64.8409V56.76H60.6409ZM64.8409 45.44H60.6409V51.32H64.8409V45.44ZM77.4063 68.04V40.04H87.0863V62.64H101.006V68.04H77.4063ZM113.532 56.76V62.64H127.452V68.04H103.852V40.04H127.452V45.44H113.532V51.32H127.452V56.76H113.532ZM147.497 40.04H157.177V68.04H147.497V60.08H143.817V54.16H139.977V68.04H130.297V40.04H139.977V45.44H143.937V51.32H147.497V40.04ZM179.783 65.36V68.04H160.023V40.04H179.783V42.84H183.623V65.36H179.783ZM173.903 62.64V45.44H169.703V62.64H173.903ZM196.149 56.76V62.64H210.069V68.04H186.469V40.04H210.069V45.44H196.149V51.32H210.069V56.76H196.149ZM226.794 68.04V56.76H222.594V68.04H212.914V40.04H236.474V51.32H233.154V54.16H236.474V68.04H226.794ZM226.794 45.44H222.594V51.32H226.794V45.44Z" fill="#0F0099"/>
<path d="M71.2009 54.04H70.2009L71.2009 55.04V54.04ZM74.5209 54.04L75.5209 54.0371L74.5209 53.04V54.04ZM74.5609 68.04V69.04L75.5609 68.0371L74.5609 68.04ZM50.9609 68.04H49.9609L50.9609 69.04V68.04ZM50.9609 40.04V39.04L49.9609 40.04H50.9609ZM74.5609 40.04H75.5609L74.5609 39.04V40.04ZM74.5609 51.32V52.32L75.5609 51.32H74.5609ZM71.2009 51.32V50.32L70.2009 51.32H71.2009ZM60.6409 56.76V55.76L59.6409 56.76H60.6409ZM60.6409 62.64H59.6409L60.6409 63.64V62.64ZM64.8409 62.64V63.64L65.8409 62.64H64.8409ZM64.8409 56.76H65.8409L64.8409 55.76V56.76ZM64.8409 45.44H65.8409L64.8409 44.44V45.44ZM60.6409 45.44V44.44L59.6409 45.44H60.6409ZM60.6409 51.32H59.6409L60.6409 52.32V51.32ZM64.8409 51.32V52.32L65.8409 51.32H64.8409ZM71.2009 54.04V55.04H74.5209V54.04V53.04H71.2009V54.04ZM74.5209 54.04L73.5209 54.0429L73.5609 68.0429L74.5609 68.04L75.5609 68.0371L75.5209 54.0371L74.5209 54.04ZM74.5609 68.04V67.04H50.9609V68.04V69.04H74.5609V68.04ZM50.9609 68.04H51.9609V40.04H50.9609H49.9609V68.04H50.9609ZM50.9609 40.04V41.04H74.5609V40.04V39.04H50.9609V40.04ZM74.5609 40.04H73.5609V51.32H74.5609H75.5609V40.04H74.5609ZM74.5609 51.32V50.32H71.2009V51.32V52.32H74.5609V51.32ZM71.2009 51.32H70.2009V54.04H71.2009H72.2009V51.32H71.2009ZM60.6409 56.76H59.6409V62.64H60.6409H61.6409V56.76H60.6409ZM60.6409 62.64V63.64H64.8409V62.64V61.64H60.6409V62.64ZM64.8409 62.64H65.8409V56.76H64.8409H63.8409V62.64H64.8409ZM64.8409 56.76V55.76H60.6409V56.76V57.76H64.8409V56.76ZM64.8409 45.44V44.44H60.6409V45.44V46.44H64.8409V45.44ZM60.6409 45.44H59.6409V51.32H60.6409H61.6409V45.44H60.6409ZM60.6409 51.32V52.32H64.8409V51.32V50.32H60.6409V51.32ZM64.8409 51.32H65.8409V45.44H64.8409H63.8409V51.32H64.8409ZM77.4063 68.04H76.4063L77.4063 69.04V68.04ZM77.4063 40.04V39.04L76.4063 40.04H77.4063ZM87.0863 40.04H88.0863L87.0863 39.04V40.04ZM87.0863 62.64H86.0863L87.0863 63.64V62.64ZM101.006 62.64H102.006L101.006 61.64V62.64ZM101.006 68.04V69.04L102.006 68.04H101.006ZM77.4063 68.04H78.4063V40.04H77.4063H76.4063V68.04H77.4063ZM77.4063 40.04V41.04H87.0863V40.04V39.04H77.4063V40.04ZM87.0863 40.04H86.0863V62.64H87.0863H88.0863V40.04H87.0863ZM87.0863 62.64V63.64H101.006V62.64V61.64H87.0863V62.64ZM101.006 62.64H100.006V68.04H101.006H102.006V62.64H101.006ZM101.006 68.04V67.04H77.4063V68.04V69.04H101.006V68.04ZM113.532 56.76V55.76L112.532 56.76H113.532ZM113.532 62.64H112.532L113.532 63.64V62.64ZM127.452 62.64H128.452L127.452 61.64V62.64ZM127.452 68.04V69.04L128.452 68.04H127.452ZM103.852 68.04H102.852L103.852 69.04V68.04ZM103.852 40.04V39.04L102.852 40.04H103.852ZM127.452 40.04H128.452L127.452 39.04V40.04ZM127.452 45.44V46.44L128.452 45.44H127.452ZM113.532 45.44V44.44L112.532 45.44H113.532ZM113.532 51.32H112.532L113.532 52.32V51.32ZM127.452 51.32H128.452L127.452 50.32V51.32ZM127.452 56.76V57.76L128.452 56.76H127.452ZM113.532 56.76H112.532V62.64H113.532H114.532V56.76H113.532ZM113.532 62.64V63.64H127.452V62.64V61.64H113.532V62.64ZM127.452 62.64H126.452V68.04H127.452H128.452V62.64H127.452ZM127.452 68.04V67.04H103.852V68.04V69.04H127.452V68.04ZM103.852 68.04H104.852V40.04H103.852H102.852V68.04H103.852ZM103.852 40.04V41.04H127.452V40.04V39.04H103.852V40.04ZM127.452 40.04H126.452V45.44H127.452H128.452V40.04H127.452ZM127.452 45.44V44.44H113.532V45.44V46.44H127.452V45.44ZM113.532 45.44H112.532V51.32H113.532H114.532V45.44H113.532ZM113.532 51.32V52.32H127.452V51.32V50.32H113.532V51.32ZM127.452 51.32H126.452V56.76H127.452H128.452V51.32H127.452ZM127.452 56.76V55.76H113.532V56.76V57.76H127.452V56.76ZM147.497 40.04V39.04L146.497 40.04H147.497ZM157.177 40.04H158.177L157.177 39.04V40.04ZM157.177 68.04V69.04L158.177 68.04H157.177ZM147.497 68.04H146.497L147.497 69.04V68.04ZM147.497 60.08H148.497L147.497 59.08V60.08ZM143.817 60.08H142.817L143.817 61.08V60.08ZM143.817 54.16H144.817L143.817 53.16V54.16ZM139.977 54.16V53.16L138.977 54.16H139.977ZM139.977 68.04V69.04L140.977 68.04H139.977ZM130.297 68.04H129.297L130.297 69.04V68.04ZM130.297 40.04V39.04L129.297 40.04H130.297ZM139.977 40.04H140.977L139.977 39.04V40.04ZM139.977 45.44H138.977L139.977 46.44V45.44ZM143.937 45.44H144.937L143.937 44.44V45.44ZM143.937 51.32H142.937L143.937 52.32V51.32ZM147.497 51.32V52.32L148.497 51.32H147.497ZM147.497 40.04V41.04H157.177V40.04V39.04H147.497V40.04ZM157.177 40.04H156.177V68.04H157.177H158.177V40.04H157.177ZM157.177 68.04V67.04H147.497V68.04V69.04H157.177V68.04ZM147.497 68.04H148.497V60.08H147.497H146.497V68.04H147.497ZM147.497 60.08V59.08H143.817V60.08V61.08H147.497V60.08ZM143.817 60.08H144.817V54.16H143.817H142.817V60.08H143.817ZM143.817 54.16V53.16H139.977V54.16V55.16H143.817V54.16ZM139.977 54.16H138.977V68.04H139.977H140.977V54.16H139.977ZM139.977 68.04V67.04H130.297V68.04V69.04H139.977V68.04ZM130.297 68.04H131.297V40.04H130.297H129.297V68.04H130.297ZM130.297 40.04V41.04H139.977V40.04V39.04H130.297V40.04ZM139.977 40.04H138.977V45.44H139.977H140.977V40.04H139.977ZM139.977 45.44V46.44H143.937V45.44V44.44H139.977V45.44ZM143.937 45.44H142.937V51.32H143.937H144.937V45.44H143.937ZM143.937 51.32V52.32H147.497V51.32V50.32H143.937V51.32ZM147.497 51.32H148.497V40.04H147.497H146.497V51.32H147.497ZM179.783 65.36V64.36L178.783 65.36H179.783ZM179.783 68.04V69.04L180.783 68.04H179.783ZM160.023 68.04H159.023L160.023 69.04V68.04ZM160.023 40.04V39.04L159.023 40.04H160.023ZM179.783 40.04H180.783L179.783 39.04V40.04ZM179.783 42.84H178.783L179.783 43.84V42.84ZM183.623 42.84H184.623L183.623 41.84V42.84ZM183.623 65.36V66.36L184.623 65.36H183.623ZM173.903 62.64V63.64L174.903 62.64H173.903ZM173.903 45.44H174.903L173.903 44.44V45.44ZM169.703 45.44V44.44L168.703 45.44H169.703ZM169.703 62.64H168.703L169.703 63.64V62.64ZM179.783 65.36H178.783V68.04H179.783H180.783V65.36H179.783ZM179.783 68.04V67.04H160.023V68.04V69.04H179.783V68.04ZM160.023 68.04H161.023V40.04H160.023H159.023V68.04H160.023ZM160.023 40.04V41.04H179.783V40.04V39.04H160.023V40.04ZM179.783 40.04H178.783V42.84H179.783H180.783V40.04H179.783ZM179.783 42.84V43.84H183.623V42.84V41.84H179.783V42.84ZM183.623 42.84H182.623V65.36H183.623H184.623V42.84H183.623ZM183.623 65.36V64.36H179.783V65.36V66.36H183.623V65.36ZM173.903 62.64H174.903V45.44H173.903H172.903V62.64H173.903ZM173.903 45.44V44.44H169.703V45.44V46.44H173.903V45.44ZM169.703 45.44H168.703V62.64H169.703H170.703V45.44H169.703ZM169.703 62.64V63.64H173.903V62.64V61.64H169.703V62.64ZM196.149 56.76V55.76L195.149 56.76H196.149ZM196.149 62.64H195.149L196.149 63.64V62.64ZM210.069 62.64H211.069L210.069 61.64V62.64ZM210.069 68.04V69.04L211.069 68.04H210.069ZM186.469 68.04H185.469L186.469 69.04V68.04ZM186.469 40.04V39.04L185.469 40.04H186.469ZM210.069 40.04H211.069L210.069 39.04V40.04ZM210.069 45.44V46.44L211.069 45.44H210.069ZM196.149 45.44V44.44L195.149 45.44H196.149ZM196.149 51.32H195.149L196.149 52.32V51.32ZM210.069 51.32H211.069L210.069 50.32V51.32ZM210.069 56.76V57.76L211.069 56.76H210.069ZM196.149 56.76H195.149V62.64H196.149H197.149V56.76H196.149ZM196.149 62.64V63.64H210.069V62.64V61.64H196.149V62.64ZM210.069 62.64H209.069V68.04H210.069H211.069V62.64H210.069ZM210.069 68.04V67.04H186.469V68.04V69.04H210.069V68.04ZM186.469 68.04H187.469V40.04H186.469H185.469V68.04H186.469ZM186.469 40.04V41.04H210.069V40.04V39.04H186.469V40.04ZM210.069 40.04H209.069V45.44H210.069H211.069V40.04H210.069ZM210.069 45.44V44.44H196.149V45.44V46.44H210.069V45.44ZM196.149 45.44H195.149V51.32H196.149H197.149V45.44H196.149ZM196.149 51.32V52.32H210.069V51.32V50.32H196.149V51.32ZM210.069 51.32H209.069V56.76H210.069H211.069V51.32H210.069ZM210.069 56.76V55.76H196.149V56.76V57.76H210.069V56.76ZM226.794 68.04H225.794L226.794 69.04V68.04ZM226.794 56.76H227.794L226.794 55.76V56.76ZM222.594 56.76V55.76L221.594 56.76H222.594ZM222.594 68.04V69.04L223.594 68.04H222.594ZM212.914 68.04H211.914L212.914 69.04V68.04ZM212.914 40.04V39.04L211.914 40.04H212.914ZM236.474 40.04H237.474L236.474 39.04V40.04ZM236.474 51.32V52.32L237.474 51.32H236.474ZM233.154 51.32V50.32L232.154 51.32H233.154ZM233.154 54.16H232.154L233.154 55.16V54.16ZM236.474 54.16H237.474L236.474 53.16V54.16ZM236.474 68.04V69.04L237.474 68.04H236.474ZM226.794 45.44H227.794L226.794 44.44V45.44ZM222.594 45.44V44.44L221.594 45.44H222.594ZM222.594 51.32H221.594L222.594 52.32V51.32ZM226.794 51.32V52.32L227.794 51.32H226.794ZM226.794 68.04H227.794V56.76H226.794H225.794V68.04H226.794ZM226.794 56.76V55.76H222.594V56.76V57.76H226.794V56.76ZM222.594 56.76H221.594V68.04H222.594H223.594V56.76H222.594ZM222.594 68.04V67.04H212.914V68.04V69.04H222.594V68.04ZM212.914 68.04H213.914V40.04H212.914H211.914V68.04H212.914ZM212.914 40.04V41.04H236.474V40.04V39.04H212.914V40.04ZM236.474 40.04H235.474V51.32H236.474H237.474V40.04H236.474ZM236.474 51.32V50.32H233.154V51.32V52.32H236.474V51.32ZM233.154 51.32H232.154V54.16H233.154H234.154V51.32H233.154ZM233.154 54.16V55.16H236.474V54.16V53.16H233.154V54.16ZM236.474 54.16H235.474V68.04H236.474H237.474V54.16H236.474ZM236.474 68.04V67.04H226.794V68.04V69.04H236.474V68.04ZM226.794 45.44V44.44H222.594V45.44V46.44H226.794V45.44ZM222.594 45.44H221.594V51.32H222.594H223.594V45.44H222.594ZM222.594 51.32V52.32H226.794V51.32V50.32H222.594V51.32ZM226.794 51.32H227.794V45.44H226.794H225.794V51.32H226.794Z" fill="white" mask="url(#path-5-outside-3_18_390)"/>
</svg>
