<svg width="383" height="76" viewBox="0 0 383 76" fill="none" xmlns="http://www.w3.org/2000/svg">
<mask id="path-1-outside-1_18_197" maskUnits="userSpaceOnUse" x="-0.657806" y="0" width="224" height="33" fill="black">
<rect fill="white" x="-0.657806" width="224" height="33"/>
<path d="M25.56 30.04H2.00001V24.64H15.88V18.76H2.00001V2.04H25.56V7.44H11.68V13.32H25.56V30.04ZM42.2863 30.04V18.76H38.0863V30.04H28.4063V2.04H38.0863V13.32H42.2863V2.04H51.9663V30.04H42.2863ZM54.8125 30.04V29.92V2.04H78.4125V30.04H54.8125ZM64.4925 7.44V24.64H68.6925V7.44H64.4925ZM90.9378 2.04V13.32H94.4978V10.52H101.658V13.32H105.218V2.04H114.898V24.64H111.218V30.04H101.498V21.56H94.4978V30.04H84.8178V24.64H81.2578V2.04H90.9378ZM117.742 30.04V2.04H141.342V7.44H127.422V24.64H141.342V30.04H117.742ZM167.748 30.04H158.068V18.76H153.868V30.04H144.188V2.04H167.788L167.748 30.04ZM158.068 13.32V7.44H153.868V13.32H158.068ZM194.193 30.04H170.633V24.64H184.513V18.76H170.633V2.04H194.193V7.44H180.313V13.32H194.193V30.04ZM206.719 18.76V24.64H220.639V30.04H197.039V2.04H220.639V7.44H206.719V13.32H220.639V18.76H206.719Z"/>
</mask>
<path d="M25.56 30.04V32.04L27.56 30.04H25.56ZM2.00001 30.04H6.10948e-06L2.00001 32.04V30.04ZM2.00001 24.64V22.64L6.10948e-06 24.64H2.00001ZM15.88 24.64V26.64L17.88 24.64H15.88ZM15.88 18.76H17.88L15.88 16.76V18.76ZM2.00001 18.76H6.10948e-06L2.00001 20.76V18.76ZM2.00001 2.04V0.0399976L6.10948e-06 2.04H2.00001ZM25.56 2.04H27.56L25.56 0.0399976V2.04ZM25.56 7.44V9.44L27.56 7.44H25.56ZM11.68 7.44V5.44L9.68001 7.44H11.68ZM11.68 13.32H9.68001L11.68 15.32V13.32ZM25.56 13.32H27.56L25.56 11.32V13.32ZM25.56 30.04V28.04H2.00001V30.04V32.04H25.56V30.04ZM2.00001 30.04H4.00001V24.64H2.00001H6.10948e-06V30.04H2.00001ZM2.00001 24.64V26.64H15.88V24.64V22.64H2.00001V24.64ZM15.88 24.64H17.88V18.76H15.88H13.88V24.64H15.88ZM15.88 18.76V16.76H2.00001V18.76V20.76H15.88V18.76ZM2.00001 18.76H4.00001V2.04H2.00001H6.10948e-06V18.76H2.00001ZM2.00001 2.04V4.04H25.56V2.04V0.0399976H2.00001V2.04ZM25.56 2.04H23.56V7.44H25.56H27.56V2.04H25.56ZM25.56 7.44V5.44H11.68V7.44V9.44H25.56V7.44ZM11.68 7.44H9.68001V13.32H11.68H13.68V7.44H11.68ZM11.68 13.32V15.32H25.56V13.32V11.32H11.68V13.32ZM25.56 13.32H23.56V30.04H25.56H27.56V13.32H25.56ZM42.2863 30.04H40.2863L42.2863 32.04V30.04ZM42.2863 18.76H44.2863L42.2863 16.76V18.76ZM38.0863 18.76V16.76L36.0863 18.76H38.0863ZM38.0863 30.04V32.04L40.0863 30.04H38.0863ZM28.4063 30.04H26.4063L28.4063 32.04V30.04ZM28.4063 2.04V0.0399976L26.4063 2.04H28.4063ZM38.0863 2.04H40.0863L38.0863 0.0399976V2.04ZM38.0863 13.32H36.0863L38.0863 15.32V13.32ZM42.2863 13.32V15.32L44.2863 13.32H42.2863ZM42.2863 2.04V0.0399976L40.2863 2.04H42.2863ZM51.9663 2.04H53.9663L51.9663 0.0399976V2.04ZM51.9663 30.04V32.04L53.9663 30.04H51.9663ZM42.2863 30.04H44.2863V18.76H42.2863H40.2863V30.04H42.2863ZM42.2863 18.76V16.76H38.0863V18.76V20.76H42.2863V18.76ZM38.0863 18.76H36.0863V30.04H38.0863H40.0863V18.76H38.0863ZM38.0863 30.04V28.04H28.4063V30.04V32.04H38.0863V30.04ZM28.4063 30.04H30.4063V2.04H28.4063H26.4063V30.04H28.4063ZM28.4063 2.04V4.04H38.0863V2.04V0.0399976H28.4063V2.04ZM38.0863 2.04H36.0863V13.32H38.0863H40.0863V2.04H38.0863ZM38.0863 13.32V15.32H42.2863V13.32V11.32H38.0863V13.32ZM42.2863 13.32H44.2863V2.04H42.2863H40.2863V13.32H42.2863ZM42.2863 2.04V4.04H51.9663V2.04V0.0399976H42.2863V2.04ZM51.9663 2.04H49.9663V30.04H51.9663H53.9663V2.04H51.9663ZM51.9663 30.04V28.04H42.2863V30.04V32.04H51.9663V30.04ZM54.8125 30.04H52.8125L54.8125 32.04V30.04ZM54.8125 2.04V0.0399976L52.8125 2.04H54.8125ZM78.4125 2.04H80.4125L78.4125 0.0399976V2.04ZM78.4125 30.04V32.04L80.4125 30.04H78.4125ZM64.4925 7.44V5.44L62.4925 7.44H64.4925ZM64.4925 24.64H62.4925L64.4925 26.64V24.64ZM68.6925 24.64V26.64L70.6925 24.64H68.6925ZM68.6925 7.44H70.6925L68.6925 5.44V7.44ZM54.8125 30.04H56.8125V29.92H54.8125H52.8125V30.04H54.8125ZM54.8125 29.92H56.8125V2.04H54.8125H52.8125V29.92H54.8125ZM54.8125 2.04V4.04H78.4125V2.04V0.0399976H54.8125V2.04ZM78.4125 2.04H76.4125V30.04H78.4125H80.4125V2.04H78.4125ZM78.4125 30.04V28.04H54.8125V30.04V32.04H78.4125V30.04ZM64.4925 7.44H62.4925V24.64H64.4925H66.4925V7.44H64.4925ZM64.4925 24.64V26.64H68.6925V24.64V22.64H64.4925V24.64ZM68.6925 24.64H70.6925V7.44H68.6925H66.6925V24.64H68.6925ZM68.6925 7.44V5.44H64.4925V7.44V9.44H68.6925V7.44ZM90.9378 2.04H92.9378L90.9378 0.0399976V2.04ZM90.9378 13.32H88.9378L90.9378 15.32V13.32ZM94.4978 13.32V15.32L96.4978 13.32H94.4978ZM94.4978 10.52V8.52L92.4978 10.52H94.4978ZM101.658 10.52H103.658L101.658 8.52V10.52ZM101.658 13.32H99.6578L101.658 15.32V13.32ZM105.218 13.32V15.32L107.218 13.32H105.218ZM105.218 2.04V0.0399976L103.218 2.04H105.218ZM114.898 2.04H116.898L114.898 0.0399976V2.04ZM114.898 24.64V26.64L116.898 24.64H114.898ZM111.218 24.64V22.64L109.218 24.64H111.218ZM111.218 30.04V32.04L113.218 30.04H111.218ZM101.498 30.04H99.4978L101.498 32.04V30.04ZM101.498 21.56H103.498L101.498 19.56V21.56ZM94.4978 21.56V19.56L92.4978 21.56H94.4978ZM94.4978 30.04V32.04L96.4978 30.04H94.4978ZM84.8178 30.04H82.8178L84.8178 32.04V30.04ZM84.8178 24.64H86.8178L84.8178 22.64V24.64ZM81.2578 24.64H79.2578L81.2578 26.64V24.64ZM81.2578 2.04V0.0399976L79.2578 2.04H81.2578ZM90.9378 2.04H88.9378V13.32H90.9378H92.9378V2.04H90.9378ZM90.9378 13.32V15.32H94.4978V13.32V11.32H90.9378V13.32ZM94.4978 13.32H96.4978V10.52H94.4978H92.4978V13.32H94.4978ZM94.4978 10.52V12.52H101.658V10.52V8.52H94.4978V10.52ZM101.658 10.52H99.6578V13.32H101.658H103.658V10.52H101.658ZM101.658 13.32V15.32H105.218V13.32V11.32H101.658V13.32ZM105.218 13.32H107.218V2.04H105.218H103.218V13.32H105.218ZM105.218 2.04V4.04H114.898V2.04V0.0399976H105.218V2.04ZM114.898 2.04H112.898V24.64H114.898H116.898V2.04H114.898ZM114.898 24.64V22.64H111.218V24.64V26.64H114.898V24.64ZM111.218 24.64H109.218V30.04H111.218H113.218V24.64H111.218ZM111.218 30.04V28.04H101.498V30.04V32.04H111.218V30.04ZM101.498 30.04H103.498V21.56H101.498H99.4978V30.04H101.498ZM101.498 21.56V19.56H94.4978V21.56V23.56H101.498V21.56ZM94.4978 21.56H92.4978V30.04H94.4978H96.4978V21.56H94.4978ZM94.4978 30.04V28.04H84.8178V30.04V32.04H94.4978V30.04ZM84.8178 30.04H86.8178V24.64H84.8178H82.8178V30.04H84.8178ZM84.8178 24.64V22.64H81.2578V24.64V26.64H84.8178V24.64ZM81.2578 24.64H83.2578V2.04H81.2578H79.2578V24.64H81.2578ZM81.2578 2.04V4.04H90.9378V2.04V0.0399976H81.2578V2.04ZM117.742 30.04H115.742L117.742 32.04V30.04ZM117.742 2.04V0.0399976L115.742 2.04H117.742ZM141.342 2.04H143.342L141.342 0.0399976V2.04ZM141.342 7.44V9.44L143.342 7.44H141.342ZM127.422 7.44V5.44L125.422 7.44H127.422ZM127.422 24.64H125.422L127.422 26.64V24.64ZM141.342 24.64H143.342L141.342 22.64V24.64ZM141.342 30.04V32.04L143.342 30.04H141.342ZM117.742 30.04H119.742V2.04H117.742H115.742V30.04H117.742ZM117.742 2.04V4.04H141.342V2.04V0.0399976H117.742V2.04ZM141.342 2.04H139.342V7.44H141.342H143.342V2.04H141.342ZM141.342 7.44V5.44H127.422V7.44V9.44H141.342V7.44ZM127.422 7.44H125.422V24.64H127.422H129.422V7.44H127.422ZM127.422 24.64V26.64H141.342V24.64V22.64H127.422V24.64ZM141.342 24.64H139.342V30.04H141.342H143.342V24.64H141.342ZM141.342 30.04V28.04H117.742V30.04V32.04H141.342V30.04ZM167.748 30.04V32.04L169.747 30.0429L167.748 30.04ZM158.068 30.04H156.068L158.068 32.04V30.04ZM158.068 18.76H160.068L158.068 16.76V18.76ZM153.868 18.76V16.76L151.868 18.76H153.868ZM153.868 30.04V32.04L155.868 30.04H153.868ZM144.188 30.04H142.188L144.188 32.04V30.04ZM144.188 2.04V0.0399976L142.188 2.04H144.188ZM167.788 2.04L169.788 2.04285L167.788 0.0399976V2.04ZM158.068 13.32V15.32L160.068 13.32H158.068ZM158.068 7.44H160.068L158.068 5.44V7.44ZM153.868 7.44V5.44L151.868 7.44H153.868ZM153.868 13.32H151.868L153.868 15.32V13.32ZM167.748 30.04V28.04H158.068V30.04V32.04H167.748V30.04ZM158.068 30.04H160.068V18.76H158.068H156.068V30.04H158.068ZM158.068 18.76V16.76H153.868V18.76V20.76H158.068V18.76ZM153.868 18.76H151.868V30.04H153.868H155.868V18.76H153.868ZM153.868 30.04V28.04H144.188V30.04V32.04H153.868V30.04ZM144.188 30.04H146.188V2.04H144.188H142.188V30.04H144.188ZM144.188 2.04V4.04H167.788V2.04V0.0399976H144.188V2.04ZM167.788 2.04L165.788 2.03714L165.748 30.0371L167.748 30.04L169.747 30.0429L169.788 2.04285L167.788 2.04ZM158.068 13.32H160.068V7.44H158.068H156.068V13.32H158.068ZM158.068 7.44V5.44H153.868V7.44V9.44H158.068V7.44ZM153.868 7.44H151.868V13.32H153.868H155.868V7.44H153.868ZM153.868 13.32V15.32H158.068V13.32V11.32H153.868V13.32ZM194.193 30.04V32.04L196.193 30.04H194.193ZM170.633 30.04H168.633L170.633 32.04V30.04ZM170.633 24.64V22.64L168.633 24.64H170.633ZM184.513 24.64V26.64L186.513 24.64H184.513ZM184.513 18.76H186.513L184.513 16.76V18.76ZM170.633 18.76H168.633L170.633 20.76V18.76ZM170.633 2.04V0.0399976L168.633 2.04H170.633ZM194.193 2.04H196.193L194.193 0.0399976V2.04ZM194.193 7.44V9.44L196.193 7.44H194.193ZM180.313 7.44V5.44L178.313 7.44H180.313ZM180.313 13.32H178.313L180.313 15.32V13.32ZM194.193 13.32H196.193L194.193 11.32V13.32ZM194.193 30.04V28.04H170.633V30.04V32.04H194.193V30.04ZM170.633 30.04H172.633V24.64H170.633H168.633V30.04H170.633ZM170.633 24.64V26.64H184.513V24.64V22.64H170.633V24.64ZM184.513 24.64H186.513V18.76H184.513H182.513V24.64H184.513ZM184.513 18.76V16.76H170.633V18.76V20.76H184.513V18.76ZM170.633 18.76H172.633V2.04H170.633H168.633V18.76H170.633ZM170.633 2.04V4.04H194.193V2.04V0.0399976H170.633V2.04ZM194.193 2.04H192.193V7.44H194.193H196.193V2.04H194.193ZM194.193 7.44V5.44H180.313V7.44V9.44H194.193V7.44ZM180.313 7.44H178.313V13.32H180.313H182.313V7.44H180.313ZM180.313 13.32V15.32H194.193V13.32V11.32H180.313V13.32ZM194.193 13.32H192.193V30.04H194.193H196.193V13.32H194.193ZM206.719 18.76V16.76L204.719 18.76H206.719ZM206.719 24.64H204.719L206.719 26.64V24.64ZM220.639 24.64H222.639L220.639 22.64V24.64ZM220.639 30.04V32.04L222.639 30.04H220.639ZM197.039 30.04H195.039L197.039 32.04V30.04ZM197.039 2.04V0.0399976L195.039 2.04H197.039ZM220.639 2.04H222.639L220.639 0.0399976V2.04ZM220.639 7.44V9.44L222.639 7.44H220.639ZM206.719 7.44V5.44L204.719 7.44H206.719ZM206.719 13.32H204.719L206.719 15.32V13.32ZM220.639 13.32H222.639L220.639 11.32V13.32ZM220.639 18.76V20.76L222.639 18.76H220.639ZM206.719 18.76H204.719V24.64H206.719H208.719V18.76H206.719ZM206.719 24.64V26.64H220.639V24.64V22.64H206.719V24.64ZM220.639 24.64H218.639V30.04H220.639H222.639V24.64H220.639ZM220.639 30.04V28.04H197.039V30.04V32.04H220.639V30.04ZM197.039 30.04H199.039V2.04H197.039H195.039V30.04H197.039ZM197.039 2.04V4.04H220.639V2.04V0.0399976H197.039V2.04ZM220.639 2.04H218.639V7.44H220.639H222.639V2.04H220.639ZM220.639 7.44V5.44H206.719V7.44V9.44H220.639V7.44ZM206.719 7.44H204.719V13.32H206.719H208.719V7.44H206.719ZM206.719 13.32V15.32H220.639V13.32V11.32H206.719V13.32ZM220.639 13.32H218.639V18.76H220.639H222.639V13.32H220.639ZM220.639 18.76V16.76H206.719V18.76V20.76H220.639V18.76Z" fill="#0F0099" mask="url(#path-1-outside-1_18_197)"/>
<mask id="path-3-outside-2_18_197" maskUnits="userSpaceOnUse" x="0.342194" y="39" width="222" height="31" fill="black">
<rect fill="white" x="0.342194" y="39" width="222" height="31"/>
<path d="M11.4456 62.6H25.3256V68H1.76563V51.32H15.6456V45.4H1.76563V40H25.3256V56.72H11.4456V62.6ZM51.7719 40V68H28.1719V67.88V40H51.7719ZM42.0519 62.6V45.52H37.8519V62.6H42.0519ZM64.2972 62.6H78.1772V68H54.6172V51.32H68.4972V45.4H54.6172V40H78.1772V56.72H64.2972V62.6ZM108.183 56.72V62.6H104.583V68H94.9034V62.6H81.0234V40H90.7034V56.72H94.9034V40H104.583V56.72H108.183ZM111.023 57.48V52.08H128.223V57.48H111.023ZM148.263 40.04H157.943V68.04H148.263V60.08H144.583V54.16H140.743V68.04H131.063V40.04H140.743V45.44H144.703V51.32H148.263V40.04ZM160.789 68.04V67.92V40.04H184.389V68.04H160.789ZM170.469 45.44V62.64H174.669V45.44H170.469ZM196.914 40.04V51.32H200.474V48.52H207.634V51.32H211.194V40.04H220.874V62.64H217.194V68.04H207.474V59.56H200.474V68.04H190.794V62.64H187.234V40.04H196.914Z"/>
</mask>
<path d="M11.4456 62.6H25.3256V68H1.76563V51.32H15.6456V45.4H1.76563V40H25.3256V56.72H11.4456V62.6ZM51.7719 40V68H28.1719V67.88V40H51.7719ZM42.0519 62.6V45.52H37.8519V62.6H42.0519ZM64.2972 62.6H78.1772V68H54.6172V51.32H68.4972V45.4H54.6172V40H78.1772V56.72H64.2972V62.6ZM108.183 56.72V62.6H104.583V68H94.9034V62.6H81.0234V40H90.7034V56.72H94.9034V40H104.583V56.72H108.183ZM111.023 57.48V52.08H128.223V57.48H111.023ZM148.263 40.04H157.943V68.04H148.263V60.08H144.583V54.16H140.743V68.04H131.063V40.04H140.743V45.44H144.703V51.32H148.263V40.04ZM160.789 68.04V67.92V40.04H184.389V68.04H160.789ZM170.469 45.44V62.64H174.669V45.44H170.469ZM196.914 40.04V51.32H200.474V48.52H207.634V51.32H211.194V40.04H220.874V62.64H217.194V68.04H207.474V59.56H200.474V68.04H190.794V62.64H187.234V40.04H196.914Z" fill="#0F0099"/>
<path d="M11.4456 62.6H10.4456L11.4456 63.6V62.6ZM25.3256 62.6H26.3256L25.3256 61.6V62.6ZM25.3256 68V69L26.3256 68H25.3256ZM1.76563 68H0.765631L1.76563 69V68ZM1.76563 51.32V50.32L0.765631 51.32H1.76563ZM15.6456 51.32V52.32L16.6456 51.32H15.6456ZM15.6456 45.4H16.6456L15.6456 44.4V45.4ZM1.76563 45.4H0.765631L1.76563 46.4V45.4ZM1.76563 40V39L0.765631 40H1.76563ZM25.3256 40H26.3256L25.3256 39V40ZM25.3256 56.72V57.72L26.3256 56.72H25.3256ZM11.4456 56.72V55.72L10.4456 56.72H11.4456ZM11.4456 62.6V63.6H25.3256V62.6V61.6H11.4456V62.6ZM25.3256 62.6H24.3256V68H25.3256H26.3256V62.6H25.3256ZM25.3256 68V67H1.76563V68V69H25.3256V68ZM1.76563 68H2.76563V51.32H1.76563H0.765631V68H1.76563ZM1.76563 51.32V52.32H15.6456V51.32V50.32H1.76563V51.32ZM15.6456 51.32H16.6456V45.4H15.6456H14.6456V51.32H15.6456ZM15.6456 45.4V44.4H1.76563V45.4V46.4H15.6456V45.4ZM1.76563 45.4H2.76563V40H1.76563H0.765631V45.4H1.76563ZM1.76563 40V41H25.3256V40V39H1.76563V40ZM25.3256 40H24.3256V56.72H25.3256H26.3256V40H25.3256ZM25.3256 56.72V55.72H11.4456V56.72V57.72H25.3256V56.72ZM11.4456 56.72H10.4456V62.6H11.4456H12.4456V56.72H11.4456ZM51.7719 40H52.7719L51.7719 39V40ZM51.7719 68V69L52.7719 68H51.7719ZM28.1719 68H27.1719L28.1719 69V68ZM28.1719 40V39L27.1719 40H28.1719ZM42.0519 62.6V63.6L43.0519 62.6H42.0519ZM42.0519 45.52H43.0519L42.0519 44.52V45.52ZM37.8519 45.52V44.52L36.8519 45.52H37.8519ZM37.8519 62.6H36.8519L37.8519 63.6V62.6ZM51.7719 40H50.7719V68H51.7719H52.7719V40H51.7719ZM51.7719 68V67H28.1719V68V69H51.7719V68ZM28.1719 68H29.1719V67.88H28.1719H27.1719V68H28.1719ZM28.1719 67.88H29.1719V40H28.1719H27.1719V67.88H28.1719ZM28.1719 40V41H51.7719V40V39H28.1719V40ZM42.0519 62.6H43.0519V45.52H42.0519H41.0519V62.6H42.0519ZM42.0519 45.52V44.52H37.8519V45.52V46.52H42.0519V45.52ZM37.8519 45.52H36.8519V62.6H37.8519H38.8519V45.52H37.8519ZM37.8519 62.6V63.6H42.0519V62.6V61.6H37.8519V62.6ZM64.2972 62.6H63.2972L64.2972 63.6V62.6ZM78.1772 62.6H79.1772L78.1772 61.6V62.6ZM78.1772 68V69L79.1772 68H78.1772ZM54.6172 68H53.6172L54.6172 69V68ZM54.6172 51.32V50.32L53.6172 51.32H54.6172ZM68.4972 51.32V52.32L69.4972 51.32H68.4972ZM68.4972 45.4H69.4972L68.4972 44.4V45.4ZM54.6172 45.4H53.6172L54.6172 46.4V45.4ZM54.6172 40V39L53.6172 40H54.6172ZM78.1772 40H79.1772L78.1772 39V40ZM78.1772 56.72V57.72L79.1772 56.72H78.1772ZM64.2972 56.72V55.72L63.2972 56.72H64.2972ZM64.2972 62.6V63.6H78.1772V62.6V61.6H64.2972V62.6ZM78.1772 62.6H77.1772V68H78.1772H79.1772V62.6H78.1772ZM78.1772 68V67H54.6172V68V69H78.1772V68ZM54.6172 68H55.6172V51.32H54.6172H53.6172V68H54.6172ZM54.6172 51.32V52.32H68.4972V51.32V50.32H54.6172V51.32ZM68.4972 51.32H69.4972V45.4H68.4972H67.4972V51.32H68.4972ZM68.4972 45.4V44.4H54.6172V45.4V46.4H68.4972V45.4ZM54.6172 45.4H55.6172V40H54.6172H53.6172V45.4H54.6172ZM54.6172 40V41H78.1772V40V39H54.6172V40ZM78.1772 40H77.1772V56.72H78.1772H79.1772V40H78.1772ZM78.1772 56.72V55.72H64.2972V56.72V57.72H78.1772V56.72ZM64.2972 56.72H63.2972V62.6H64.2972H65.2972V56.72H64.2972ZM108.183 56.72H109.183L108.183 55.72V56.72ZM108.183 62.6V63.6L109.183 62.6H108.183ZM104.583 62.6V61.6L103.583 62.6H104.583ZM104.583 68V69L105.583 68H104.583ZM94.9034 68H93.9034L94.9034 69V68ZM94.9034 62.6H95.9034L94.9034 61.6V62.6ZM81.0234 62.6H80.0234L81.0234 63.6V62.6ZM81.0234 40V39L80.0234 40H81.0234ZM90.7034 40H91.7034L90.7034 39V40ZM90.7034 56.72H89.7034L90.7034 57.72V56.72ZM94.9034 56.72V57.72L95.9034 56.72H94.9034ZM94.9034 40V39L93.9034 40H94.9034ZM104.583 40H105.583L104.583 39V40ZM104.583 56.72H103.583L104.583 57.72V56.72ZM108.183 56.72H107.183V62.6H108.183H109.183V56.72H108.183ZM108.183 62.6V61.6H104.583V62.6V63.6H108.183V62.6ZM104.583 62.6H103.583V68H104.583H105.583V62.6H104.583ZM104.583 68V67H94.9034V68V69H104.583V68ZM94.9034 68H95.9034V62.6H94.9034H93.9034V68H94.9034ZM94.9034 62.6V61.6H81.0234V62.6V63.6H94.9034V62.6ZM81.0234 62.6H82.0234V40H81.0234H80.0234V62.6H81.0234ZM81.0234 40V41H90.7034V40V39H81.0234V40ZM90.7034 40H89.7034V56.72H90.7034H91.7034V40H90.7034ZM90.7034 56.72V57.72H94.9034V56.72V55.72H90.7034V56.72ZM94.9034 56.72H95.9034V40H94.9034H93.9034V56.72H94.9034ZM94.9034 40V41H104.583V40V39H94.9034V40ZM104.583 40H103.583V56.72H104.583H105.583V40H104.583ZM104.583 56.72V57.72H108.183V56.72V55.72H104.583V56.72ZM111.023 57.48H110.023L111.023 58.48V57.48ZM111.023 52.08V51.08L110.023 52.08H111.023ZM128.223 52.08H129.223L128.223 51.08V52.08ZM128.223 57.48V58.48L129.223 57.48H128.223ZM111.023 57.48H112.023V52.08H111.023H110.023V57.48H111.023ZM111.023 52.08V53.08H128.223V52.08V51.08H111.023V52.08ZM128.223 52.08H127.223V57.48H128.223H129.223V52.08H128.223ZM128.223 57.48V56.48H111.023V57.48V58.48H128.223V57.48ZM148.263 40.04V39.04L147.263 40.04H148.263ZM157.943 40.04H158.943L157.943 39.04V40.04ZM157.943 68.04V69.04L158.943 68.04H157.943ZM148.263 68.04H147.263L148.263 69.04V68.04ZM148.263 60.08H149.263L148.263 59.08V60.08ZM144.583 60.08H143.583L144.583 61.08V60.08ZM144.583 54.16H145.583L144.583 53.16V54.16ZM140.743 54.16V53.16L139.743 54.16H140.743ZM140.743 68.04V69.04L141.743 68.04H140.743ZM131.062 68.04H130.062L131.062 69.04V68.04ZM131.062 40.04V39.04L130.062 40.04H131.062ZM140.743 40.04H141.743L140.743 39.04V40.04ZM140.743 45.44H139.743L140.743 46.44V45.44ZM144.702 45.44H145.702L144.702 44.44V45.44ZM144.702 51.32H143.702L144.702 52.32V51.32ZM148.263 51.32V52.32L149.263 51.32H148.263ZM148.263 40.04V41.04H157.943V40.04V39.04H148.263V40.04ZM157.943 40.04H156.943V68.04H157.943H158.943V40.04H157.943ZM157.943 68.04V67.04H148.263V68.04V69.04H157.943V68.04ZM148.263 68.04H149.263V60.08H148.263H147.263V68.04H148.263ZM148.263 60.08V59.08H144.583V60.08V61.08H148.263V60.08ZM144.583 60.08H145.583V54.16H144.583H143.583V60.08H144.583ZM144.583 54.16V53.16H140.743V54.16V55.16H144.583V54.16ZM140.743 54.16H139.743V68.04H140.743H141.743V54.16H140.743ZM140.743 68.04V67.04H131.062V68.04V69.04H140.743V68.04ZM131.062 68.04H132.062V40.04H131.062H130.062V68.04H131.062ZM131.062 40.04V41.04H140.743V40.04V39.04H131.062V40.04ZM140.743 40.04H139.743V45.44H140.743H141.743V40.04H140.743ZM140.743 45.44V46.44H144.702V45.44V44.44H140.743V45.44ZM144.702 45.44H143.702V51.32H144.702H145.702V45.44H144.702ZM144.702 51.32V52.32H148.263V51.32V50.32H144.702V51.32ZM148.263 51.32H149.263V40.04H148.263H147.263V51.32H148.263ZM160.789 68.04H159.789L160.789 69.04V68.04ZM160.789 40.04V39.04L159.789 40.04H160.789ZM184.389 40.04H185.389L184.389 39.04V40.04ZM184.389 68.04V69.04L185.389 68.04H184.389ZM170.469 45.44V44.44L169.469 45.44H170.469ZM170.469 62.64H169.469L170.469 63.64V62.64ZM174.669 62.64V63.64L175.669 62.64H174.669ZM174.669 45.44H175.669L174.669 44.44V45.44ZM160.789 68.04H161.789V67.92H160.789H159.789V68.04H160.789ZM160.789 67.92H161.789V40.04H160.789H159.789V67.92H160.789ZM160.789 40.04V41.04H184.389V40.04V39.04H160.789V40.04ZM184.389 40.04H183.389V68.04H184.389H185.389V40.04H184.389ZM184.389 68.04V67.04H160.789V68.04V69.04H184.389V68.04ZM170.469 45.44H169.469V62.64H170.469H171.469V45.44H170.469ZM170.469 62.64V63.64H174.669V62.64V61.64H170.469V62.64ZM174.669 62.64H175.669V45.44H174.669H173.669V62.64H174.669ZM174.669 45.44V44.44H170.469V45.44V46.44H174.669V45.44ZM196.914 40.04H197.914L196.914 39.04V40.04ZM196.914 51.32H195.914L196.914 52.32V51.32ZM200.474 51.32V52.32L201.474 51.32H200.474ZM200.474 48.52V47.52L199.474 48.52H200.474ZM207.634 48.52H208.634L207.634 47.52V48.52ZM207.634 51.32H206.634L207.634 52.32V51.32ZM211.194 51.32V52.32L212.194 51.32H211.194ZM211.194 40.04V39.04L210.194 40.04H211.194ZM220.874 40.04H221.874L220.874 39.04V40.04ZM220.874 62.64V63.64L221.874 62.64H220.874ZM217.194 62.64V61.64L216.194 62.64H217.194ZM217.194 68.04V69.04L218.194 68.04H217.194ZM207.474 68.04H206.474L207.474 69.04V68.04ZM207.474 59.56H208.474L207.474 58.56V59.56ZM200.474 59.56V58.56L199.474 59.56H200.474ZM200.474 68.04V69.04L201.474 68.04H200.474ZM190.794 68.04H189.794L190.794 69.04V68.04ZM190.794 62.64H191.794L190.794 61.64V62.64ZM187.234 62.64H186.234L187.234 63.64V62.64ZM187.234 40.04V39.04L186.234 40.04H187.234ZM196.914 40.04H195.914V51.32H196.914H197.914V40.04H196.914ZM196.914 51.32V52.32H200.474V51.32V50.32H196.914V51.32ZM200.474 51.32H201.474V48.52H200.474H199.474V51.32H200.474ZM200.474 48.52V49.52H207.634V48.52V47.52H200.474V48.52ZM207.634 48.52H206.634V51.32H207.634H208.634V48.52H207.634ZM207.634 51.32V52.32H211.194V51.32V50.32H207.634V51.32ZM211.194 51.32H212.194V40.04H211.194H210.194V51.32H211.194ZM211.194 40.04V41.04H220.874V40.04V39.04H211.194V40.04ZM220.874 40.04H219.874V62.64H220.874H221.874V40.04H220.874ZM220.874 62.64V61.64H217.194V62.64V63.64H220.874V62.64ZM217.194 62.64H216.194V68.04H217.194H218.194V62.64H217.194ZM217.194 68.04V67.04H207.474V68.04V69.04H217.194V68.04ZM207.474 68.04H208.474V59.56H207.474H206.474V68.04H207.474ZM207.474 59.56V58.56H200.474V59.56V60.56H207.474V59.56ZM200.474 59.56H199.474V68.04H200.474H201.474V59.56H200.474ZM200.474 68.04V67.04H190.794V68.04V69.04H200.474V68.04ZM190.794 68.04H191.794V62.64H190.794H189.794V68.04H190.794ZM190.794 62.64V61.64H187.234V62.64V63.64H190.794V62.64ZM187.234 62.64H188.234V40.04H187.234H186.234V62.64H187.234ZM187.234 40.04V41.04H196.914V40.04V39.04H187.234V40.04Z" fill="white" mask="url(#path-3-outside-2_18_197)"/>
</svg>
