<svg width="382" height="76" viewBox="0 0 382 76" fill="none" xmlns="http://www.w3.org/2000/svg">
<mask id="path-1-outside-1_18_112" maskUnits="userSpaceOnUse" x="47.5" y="0" width="287" height="33" fill="black">
<rect fill="white" x="47.5" width="287" height="33"/>
<path d="M73.5381 30.04H49.9781V24.64H63.8581V18.72H49.9781V2.04H73.5381V7.44H59.6581V13.32H73.5381V30.04ZM86.0644 18.72V24.64H99.9844V30.04H76.3844V2.04H99.9844V7.44H86.0644V13.32H99.9844V18.72H86.0644ZM112.51 18.72V24.64H126.43V30.04H102.83V2.04H126.43V7.44H112.51V13.32H126.43V18.72H112.51ZM155.791 2.04V7.44H159.351V13.32H166.511V7.44H170.071V2.04H179.751V30.04H170.071V18.72H166.511V24.64H159.351V18.72H155.791V30.04H146.111V2.04H155.791ZM182.595 30.04V29.92V2.04H206.195V30.04H182.595ZM192.275 7.44V24.64H196.475V7.44H192.275ZM222.882 30.04V18.72H218.682V30.04H209.002V2.04H232.562V13.32H229.242V16.16H232.562V30.04H222.882ZM222.882 7.44H218.682V13.32H222.882V7.44ZM245.088 18.72V24.64H259.008V30.04H235.408V2.04H259.008V7.44H245.088V13.32H259.008V18.72H245.088ZM278.689 30.04V29.92V2.04H302.289V30.04H278.689ZM288.369 7.44V24.64H292.569V7.44H288.369ZM322.295 2.04H331.975V30.04H322.295V22.04H318.615V16.16H314.775V30.04H305.095V2.04H314.775V7.44H318.735V13.32H322.295V2.04Z"/>
</mask>
<path d="M73.5381 30.04V32.04L75.5381 30.04H73.5381ZM49.9781 30.04H47.9781L49.9781 32.04V30.04ZM49.9781 24.64V22.64L47.9781 24.64H49.9781ZM63.8581 24.64V26.64L65.8581 24.64H63.8581ZM63.8581 18.72H65.8581L63.8581 16.72V18.72ZM49.9781 18.72H47.9781L49.9781 20.72V18.72ZM49.9781 2.04V0.0399976L47.9781 2.04H49.9781ZM73.5381 2.04H75.5381L73.5381 0.0399976V2.04ZM73.5381 7.44V9.44L75.5381 7.44H73.5381ZM59.6581 7.44V5.44L57.6581 7.44H59.6581ZM59.6581 13.32H57.6581L59.6581 15.32V13.32ZM73.5381 13.32H75.5381L73.5381 11.32V13.32ZM73.5381 30.04V28.04H49.9781V30.04V32.04H73.5381V30.04ZM49.9781 30.04H51.9781V24.64H49.9781H47.9781V30.04H49.9781ZM49.9781 24.64V26.64H63.8581V24.64V22.64H49.9781V24.64ZM63.8581 24.64H65.8581V18.72H63.8581H61.8581V24.64H63.8581ZM63.8581 18.72V16.72H49.9781V18.72V20.72H63.8581V18.72ZM49.9781 18.72H51.9781V2.04H49.9781H47.9781V18.72H49.9781ZM49.9781 2.04V4.04H73.5381V2.04V0.0399976H49.9781V2.04ZM73.5381 2.04H71.5381V7.44H73.5381H75.5381V2.04H73.5381ZM73.5381 7.44V5.44H59.6581V7.44V9.44H73.5381V7.44ZM59.6581 7.44H57.6581V13.32H59.6581H61.6581V7.44H59.6581ZM59.6581 13.32V15.32H73.5381V13.32V11.32H59.6581V13.32ZM73.5381 13.32H71.5381V30.04H73.5381H75.5381V13.32H73.5381ZM86.0644 18.72V16.72L84.0644 18.72H86.0644ZM86.0644 24.64H84.0644L86.0644 26.64V24.64ZM99.9844 24.64H101.984L99.9844 22.64V24.64ZM99.9844 30.04V32.04L101.984 30.04H99.9844ZM76.3844 30.04H74.3844L76.3844 32.04V30.04ZM76.3844 2.04V0.0399976L74.3844 2.04H76.3844ZM99.9844 2.04H101.984L99.9844 0.0399976V2.04ZM99.9844 7.44V9.44L101.984 7.44H99.9844ZM86.0644 7.44V5.44L84.0644 7.44H86.0644ZM86.0644 13.32H84.0644L86.0644 15.32V13.32ZM99.9844 13.32H101.984L99.9844 11.32V13.32ZM99.9844 18.72V20.72L101.984 18.72H99.9844ZM86.0644 18.72H84.0644V24.64H86.0644H88.0644V18.72H86.0644ZM86.0644 24.64V26.64H99.9844V24.64V22.64H86.0644V24.64ZM99.9844 24.64H97.9844V30.04H99.9844H101.984V24.64H99.9844ZM99.9844 30.04V28.04H76.3844V30.04V32.04H99.9844V30.04ZM76.3844 30.04H78.3844V2.04H76.3844H74.3844V30.04H76.3844ZM76.3844 2.04V4.04H99.9844V2.04V0.0399976H76.3844V2.04ZM99.9844 2.04H97.9844V7.44H99.9844H101.984V2.04H99.9844ZM99.9844 7.44V5.44H86.0644V7.44V9.44H99.9844V7.44ZM86.0644 7.44H84.0644V13.32H86.0644H88.0644V7.44H86.0644ZM86.0644 13.32V15.32H99.9844V13.32V11.32H86.0644V13.32ZM99.9844 13.32H97.9844V18.72H99.9844H101.984V13.32H99.9844ZM99.9844 18.72V16.72H86.0644V18.72V20.72H99.9844V18.72ZM112.51 18.72V16.72L110.51 18.72H112.51ZM112.51 24.64H110.51L112.51 26.64V24.64ZM126.43 24.64H128.43L126.43 22.64V24.64ZM126.43 30.04V32.04L128.43 30.04H126.43ZM102.83 30.04H100.83L102.83 32.04V30.04ZM102.83 2.04V0.0399976L100.83 2.04H102.83ZM126.43 2.04H128.43L126.43 0.0399976V2.04ZM126.43 7.44V9.44L128.43 7.44H126.43ZM112.51 7.44V5.44L110.51 7.44H112.51ZM112.51 13.32H110.51L112.51 15.32V13.32ZM126.43 13.32H128.43L126.43 11.32V13.32ZM126.43 18.72V20.72L128.43 18.72H126.43ZM112.51 18.72H110.51V24.64H112.51H114.51V18.72H112.51ZM112.51 24.64V26.64H126.43V24.64V22.64H112.51V24.64ZM126.43 24.64H124.43V30.04H126.43H128.43V24.64H126.43ZM126.43 30.04V28.04H102.83V30.04V32.04H126.43V30.04ZM102.83 30.04H104.83V2.04H102.83H100.83V30.04H102.83ZM102.83 2.04V4.04H126.43V2.04V0.0399976H102.83V2.04ZM126.43 2.04H124.43V7.44H126.43H128.43V2.04H126.43ZM126.43 7.44V5.44H112.51V7.44V9.44H126.43V7.44ZM112.51 7.44H110.51V13.32H112.51H114.51V7.44H112.51ZM112.51 13.32V15.32H126.43V13.32V11.32H112.51V13.32ZM126.43 13.32H124.43V18.72H126.43H128.43V13.32H126.43ZM126.43 18.72V16.72H112.51V18.72V20.72H126.43V18.72ZM155.791 2.04H157.791L155.791 0.0399976V2.04ZM155.791 7.44H153.791L155.791 9.44V7.44ZM159.351 7.44H161.351L159.351 5.44V7.44ZM159.351 13.32H157.351L159.351 15.32V13.32ZM166.511 13.32V15.32L168.511 13.32H166.511ZM166.511 7.44V5.44L164.511 7.44H166.511ZM170.071 7.44V9.44L172.071 7.44H170.071ZM170.071 2.04V0.0399976L168.071 2.04H170.071ZM179.751 2.04H181.751L179.751 0.0399976V2.04ZM179.751 30.04V32.04L181.751 30.04H179.751ZM170.071 30.04H168.071L170.071 32.04V30.04ZM170.071 18.72H172.071L170.071 16.72V18.72ZM166.511 18.72V16.72L164.511 18.72H166.511ZM166.511 24.64V26.64L168.511 24.64H166.511ZM159.351 24.64H157.351L159.351 26.64V24.64ZM159.351 18.72H161.351L159.351 16.72V18.72ZM155.791 18.72V16.72L153.791 18.72H155.791ZM155.791 30.04V32.04L157.791 30.04H155.791ZM146.111 30.04H144.111L146.111 32.04V30.04ZM146.111 2.04V0.0399976L144.111 2.04H146.111ZM155.791 2.04H153.791V7.44H155.791H157.791V2.04H155.791ZM155.791 7.44V9.44H159.351V7.44V5.44H155.791V7.44ZM159.351 7.44H157.351V13.32H159.351H161.351V7.44H159.351ZM159.351 13.32V15.32H166.511V13.32V11.32H159.351V13.32ZM166.511 13.32H168.511V7.44H166.511H164.511V13.32H166.511ZM166.511 7.44V9.44H170.071V7.44V5.44H166.511V7.44ZM170.071 7.44H172.071V2.04H170.071H168.071V7.44H170.071ZM170.071 2.04V4.04H179.751V2.04V0.0399976H170.071V2.04ZM179.751 2.04H177.751V30.04H179.751H181.751V2.04H179.751ZM179.751 30.04V28.04H170.071V30.04V32.04H179.751V30.04ZM170.071 30.04H172.071V18.72H170.071H168.071V30.04H170.071ZM170.071 18.72V16.72H166.511V18.72V20.72H170.071V18.72ZM166.511 18.72H164.511V24.64H166.511H168.511V18.72H166.511ZM166.511 24.64V22.64H159.351V24.64V26.64H166.511V24.64ZM159.351 24.64H161.351V18.72H159.351H157.351V24.64H159.351ZM159.351 18.72V16.72H155.791V18.72V20.72H159.351V18.72ZM155.791 18.72H153.791V30.04H155.791H157.791V18.72H155.791ZM155.791 30.04V28.04H146.111V30.04V32.04H155.791V30.04ZM146.111 30.04H148.111V2.04H146.111H144.111V30.04H146.111ZM146.111 2.04V4.04H155.791V2.04V0.0399976H146.111V2.04ZM182.595 30.04H180.595L182.595 32.04V30.04ZM182.595 2.04V0.0399976L180.595 2.04H182.595ZM206.195 2.04H208.195L206.195 0.0399976V2.04ZM206.195 30.04V32.04L208.195 30.04H206.195ZM192.275 7.44V5.44L190.275 7.44H192.275ZM192.275 24.64H190.275L192.275 26.64V24.64ZM196.475 24.64V26.64L198.475 24.64H196.475ZM196.475 7.44H198.475L196.475 5.44V7.44ZM182.595 30.04H184.595V29.92H182.595H180.595V30.04H182.595ZM182.595 29.92H184.595V2.04H182.595H180.595V29.92H182.595ZM182.595 2.04V4.04H206.195V2.04V0.0399976H182.595V2.04ZM206.195 2.04H204.195V30.04H206.195H208.195V2.04H206.195ZM206.195 30.04V28.04H182.595V30.04V32.04H206.195V30.04ZM192.275 7.44H190.275V24.64H192.275H194.275V7.44H192.275ZM192.275 24.64V26.64H196.475V24.64V22.64H192.275V24.64ZM196.475 24.64H198.475V7.44H196.475H194.475V24.64H196.475ZM196.475 7.44V5.44H192.275V7.44V9.44H196.475V7.44ZM222.882 30.04H220.882L222.882 32.04V30.04ZM222.882 18.72H224.882L222.882 16.72V18.72ZM218.682 18.72V16.72L216.682 18.72H218.682ZM218.682 30.04V32.04L220.682 30.04H218.682ZM209.002 30.04H207.002L209.002 32.04V30.04ZM209.002 2.04V0.0399976L207.002 2.04H209.002ZM232.562 2.04H234.562L232.562 0.0399976V2.04ZM232.562 13.32V15.32L234.562 13.32H232.562ZM229.242 13.32V11.32L227.242 13.32H229.242ZM229.242 16.16H227.242L229.242 18.16V16.16ZM232.562 16.16H234.562L232.562 14.16V16.16ZM232.562 30.04V32.04L234.562 30.04H232.562ZM222.882 7.44H224.882L222.882 5.44V7.44ZM218.682 7.44V5.44L216.682 7.44H218.682ZM218.682 13.32H216.682L218.682 15.32V13.32ZM222.882 13.32V15.32L224.882 13.32H222.882ZM222.882 30.04H224.882V18.72H222.882H220.882V30.04H222.882ZM222.882 18.72V16.72H218.682V18.72V20.72H222.882V18.72ZM218.682 18.72H216.682V30.04H218.682H220.682V18.72H218.682ZM218.682 30.04V28.04H209.002V30.04V32.04H218.682V30.04ZM209.002 30.04H211.002V2.04H209.002H207.002V30.04H209.002ZM209.002 2.04V4.04H232.562V2.04V0.0399976H209.002V2.04ZM232.562 2.04H230.562V13.32H232.562H234.562V2.04H232.562ZM232.562 13.32V11.32H229.242V13.32V15.32H232.562V13.32ZM229.242 13.32H227.242V16.16H229.242H231.242V13.32H229.242ZM229.242 16.16V18.16H232.562V16.16V14.16H229.242V16.16ZM232.562 16.16H230.562V30.04H232.562H234.562V16.16H232.562ZM232.562 30.04V28.04H222.882V30.04V32.04H232.562V30.04ZM222.882 7.44V5.44H218.682V7.44V9.44H222.882V7.44ZM218.682 7.44H216.682V13.32H218.682H220.682V7.44H218.682ZM218.682 13.32V15.32H222.882V13.32V11.32H218.682V13.32ZM222.882 13.32H224.882V7.44H222.882H220.882V13.32H222.882ZM245.088 18.72V16.72L243.088 18.72H245.088ZM245.088 24.64H243.088L245.088 26.64V24.64ZM259.008 24.64H261.008L259.008 22.64V24.64ZM259.008 30.04V32.04L261.008 30.04H259.008ZM235.408 30.04H233.408L235.408 32.04V30.04ZM235.408 2.04V0.0399976L233.408 2.04H235.408ZM259.008 2.04H261.008L259.008 0.0399976V2.04ZM259.008 7.44V9.44L261.008 7.44H259.008ZM245.088 7.44V5.44L243.088 7.44H245.088ZM245.088 13.32H243.088L245.088 15.32V13.32ZM259.008 13.32H261.008L259.008 11.32V13.32ZM259.008 18.72V20.72L261.008 18.72H259.008ZM245.088 18.72H243.088V24.64H245.088H247.088V18.72H245.088ZM245.088 24.64V26.64H259.008V24.64V22.64H245.088V24.64ZM259.008 24.64H257.008V30.04H259.008H261.008V24.64H259.008ZM259.008 30.04V28.04H235.408V30.04V32.04H259.008V30.04ZM235.408 30.04H237.408V2.04H235.408H233.408V30.04H235.408ZM235.408 2.04V4.04H259.008V2.04V0.0399976H235.408V2.04ZM259.008 2.04H257.008V7.44H259.008H261.008V2.04H259.008ZM259.008 7.44V5.44H245.088V7.44V9.44H259.008V7.44ZM245.088 7.44H243.088V13.32H245.088H247.088V7.44H245.088ZM245.088 13.32V15.32H259.008V13.32V11.32H245.088V13.32ZM259.008 13.32H257.008V18.72H259.008H261.008V13.32H259.008ZM259.008 18.72V16.72H245.088V18.72V20.72H259.008V18.72ZM278.689 30.04H276.689L278.689 32.04V30.04ZM278.689 2.04V0.0399976L276.689 2.04H278.689ZM302.289 2.04H304.289L302.289 0.0399976V2.04ZM302.289 30.04V32.04L304.289 30.04H302.289ZM288.369 7.44V5.44L286.369 7.44H288.369ZM288.369 24.64H286.369L288.369 26.64V24.64ZM292.569 24.64V26.64L294.569 24.64H292.569ZM292.569 7.44H294.569L292.569 5.44V7.44ZM278.689 30.04H280.689V29.92H278.689H276.689V30.04H278.689ZM278.689 29.92H280.689V2.04H278.689H276.689V29.92H278.689ZM278.689 2.04V4.04H302.289V2.04V0.0399976H278.689V2.04ZM302.289 2.04H300.289V30.04H302.289H304.289V2.04H302.289ZM302.289 30.04V28.04H278.689V30.04V32.04H302.289V30.04ZM288.369 7.44H286.369V24.64H288.369H290.369V7.44H288.369ZM288.369 24.64V26.64H292.569V24.64V22.64H288.369V24.64ZM292.569 24.64H294.569V7.44H292.569H290.569V24.64H292.569ZM292.569 7.44V5.44H288.369V7.44V9.44H292.569V7.44ZM322.295 2.04V0.0399976L320.295 2.04H322.295ZM331.975 2.04H333.975L331.975 0.0399976V2.04ZM331.975 30.04V32.04L333.975 30.04H331.975ZM322.295 30.04H320.295L322.295 32.04V30.04ZM322.295 22.04H324.295L322.295 20.04V22.04ZM318.615 22.04H316.615L318.615 24.04V22.04ZM318.615 16.16H320.615L318.615 14.16V16.16ZM314.775 16.16V14.16L312.775 16.16H314.775ZM314.775 30.04V32.04L316.775 30.04H314.775ZM305.095 30.04H303.095L305.095 32.04V30.04ZM305.095 2.04V0.0399976L303.095 2.04H305.095ZM314.775 2.04H316.775L314.775 0.0399976V2.04ZM314.775 7.44H312.775L314.775 9.44V7.44ZM318.735 7.44H320.735L318.735 5.44V7.44ZM318.735 13.32H316.735L318.735 15.32V13.32ZM322.295 13.32V15.32L324.295 13.32H322.295ZM322.295 2.04V4.04H331.975V2.04V0.0399976H322.295V2.04ZM331.975 2.04H329.975V30.04H331.975H333.975V2.04H331.975ZM331.975 30.04V28.04H322.295V30.04V32.04H331.975V30.04ZM322.295 30.04H324.295V22.04H322.295H320.295V30.04H322.295ZM322.295 22.04V20.04H318.615V22.04V24.04H322.295V22.04ZM318.615 22.04H320.615V16.16H318.615H316.615V22.04H318.615ZM318.615 16.16V14.16H314.775V16.16V18.16H318.615V16.16ZM314.775 16.16H312.775V30.04H314.775H316.775V16.16H314.775ZM314.775 30.04V28.04H305.095V30.04V32.04H314.775V30.04ZM305.095 30.04H307.095V2.04H305.095H303.095V30.04H305.095ZM305.095 2.04V4.04H314.775V2.04V0.0399976H305.095V2.04ZM314.775 2.04H312.775V7.44H314.775H316.775V2.04H314.775ZM314.775 7.44V9.44H318.735V7.44V5.44H314.775V7.44ZM318.735 7.44H316.735V13.32H318.735H320.735V7.44H318.735ZM318.735 13.32V15.32H322.295V13.32V11.32H318.735V13.32ZM322.295 13.32H324.295V2.04H322.295H320.295V13.32H322.295Z" fill="white" mask="url(#path-1-outside-1_18_112)"/>
<mask id="path-3-outside-2_18_112" maskUnits="userSpaceOnUse" x="105" y="39" width="172" height="31" fill="black">
<rect fill="white" x="105" y="39" width="172" height="31"/>
<path d="M130.433 68.04H106.873V62.64H120.753V56.72H106.873V40.04H130.433V45.44H116.553V51.32H130.433V68.04ZM133.279 68.04V67.92V40.04H156.879V68.04H133.279ZM142.959 45.44V62.64H147.159V45.44H142.959ZM159.685 68.04V40.04H183.285V45.44H169.365V62.64H183.285V68.04H159.685ZM186.13 68.04V40H195.81V68.04H186.13ZM222.23 68.04H212.55V56.72H208.35V68.04H198.67V40H222.27L222.23 68.04ZM212.55 51.32V45.44H208.35V51.32H212.55ZM225.115 68.04V40.04H234.795V62.64H248.715V68.04H225.115ZM275.081 68.04H251.521V62.64H265.401V56.72H251.521V40.04H275.081V45.44H261.201V51.32H275.081V68.04Z"/>
</mask>
<path d="M130.433 68.04H106.873V62.64H120.753V56.72H106.873V40.04H130.433V45.44H116.553V51.32H130.433V68.04ZM133.279 68.04V67.92V40.04H156.879V68.04H133.279ZM142.959 45.44V62.64H147.159V45.44H142.959ZM159.685 68.04V40.04H183.285V45.44H169.365V62.64H183.285V68.04H159.685ZM186.13 68.04V40H195.81V68.04H186.13ZM222.23 68.04H212.55V56.72H208.35V68.04H198.67V40H222.27L222.23 68.04ZM212.55 51.32V45.44H208.35V51.32H212.55ZM225.115 68.04V40.04H234.795V62.64H248.715V68.04H225.115ZM275.081 68.04H251.521V62.64H265.401V56.72H251.521V40.04H275.081V45.44H261.201V51.32H275.081V68.04Z" fill="white"/>
<path d="M130.433 68.04V69.04L131.433 68.04H130.433ZM106.873 68.04H105.873L106.873 69.04V68.04ZM106.873 62.64V61.64L105.873 62.64H106.873ZM120.753 62.64V63.64L121.753 62.64H120.753ZM120.753 56.72H121.753L120.753 55.72V56.72ZM106.873 56.72H105.873L106.873 57.72V56.72ZM106.873 40.04V39.04L105.873 40.04H106.873ZM130.433 40.04H131.433L130.433 39.04V40.04ZM130.433 45.44V46.44L131.433 45.44H130.433ZM116.553 45.44V44.44L115.553 45.44H116.553ZM116.553 51.32H115.553L116.553 52.32V51.32ZM130.433 51.32H131.433L130.433 50.32V51.32ZM130.433 68.04V67.04H106.873V68.04V69.04H130.433V68.04ZM106.873 68.04H107.873V62.64H106.873H105.873V68.04H106.873ZM106.873 62.64V63.64H120.753V62.64V61.64H106.873V62.64ZM120.753 62.64H121.753V56.72H120.753H119.753V62.64H120.753ZM120.753 56.72V55.72H106.873V56.72V57.72H120.753V56.72ZM106.873 56.72H107.873V40.04H106.873H105.873V56.72H106.873ZM106.873 40.04V41.04H130.433V40.04V39.04H106.873V40.04ZM130.433 40.04H129.433V45.44H130.433H131.433V40.04H130.433ZM130.433 45.44V44.44H116.553V45.44V46.44H130.433V45.44ZM116.553 45.44H115.553V51.32H116.553H117.553V45.44H116.553ZM116.553 51.32V52.32H130.433V51.32V50.32H116.553V51.32ZM130.433 51.32H129.433V68.04H130.433H131.433V51.32H130.433ZM133.279 68.04H132.279L133.279 69.04V68.04ZM133.279 40.04V39.04L132.279 40.04H133.279ZM156.879 40.04H157.879L156.879 39.04V40.04ZM156.879 68.04V69.04L157.879 68.04H156.879ZM142.959 45.44V44.44L141.959 45.44H142.959ZM142.959 62.64H141.959L142.959 63.64V62.64ZM147.159 62.64V63.64L148.159 62.64H147.159ZM147.159 45.44H148.159L147.159 44.44V45.44ZM133.279 68.04H134.279V67.92H133.279H132.279V68.04H133.279ZM133.279 67.92H134.279V40.04H133.279H132.279V67.92H133.279ZM133.279 40.04V41.04H156.879V40.04V39.04H133.279V40.04ZM156.879 40.04H155.879V68.04H156.879H157.879V40.04H156.879ZM156.879 68.04V67.04H133.279V68.04V69.04H156.879V68.04ZM142.959 45.44H141.959V62.64H142.959H143.959V45.44H142.959ZM142.959 62.64V63.64H147.159V62.64V61.64H142.959V62.64ZM147.159 62.64H148.159V45.44H147.159H146.159V62.64H147.159ZM147.159 45.44V44.44H142.959V45.44V46.44H147.159V45.44ZM159.685 68.04H158.685L159.685 69.04V68.04ZM159.685 40.04V39.04L158.685 40.04H159.685ZM183.285 40.04H184.285L183.285 39.04V40.04ZM183.285 45.44V46.44L184.285 45.44H183.285ZM169.365 45.44V44.44L168.365 45.44H169.365ZM169.365 62.64H168.365L169.365 63.64V62.64ZM183.285 62.64H184.285L183.285 61.64V62.64ZM183.285 68.04V69.04L184.285 68.04H183.285ZM159.685 68.04H160.685V40.04H159.685H158.685V68.04H159.685ZM159.685 40.04V41.04H183.285V40.04V39.04H159.685V40.04ZM183.285 40.04H182.285V45.44H183.285H184.285V40.04H183.285ZM183.285 45.44V44.44H169.365V45.44V46.44H183.285V45.44ZM169.365 45.44H168.365V62.64H169.365H170.365V45.44H169.365ZM169.365 62.64V63.64H183.285V62.64V61.64H169.365V62.64ZM183.285 62.64H182.285V68.04H183.285H184.285V62.64H183.285ZM183.285 68.04V67.04H159.685V68.04V69.04H183.285V68.04ZM186.13 68.04H185.13L186.13 69.04V68.04ZM186.13 40V39L185.13 40H186.13ZM195.81 40H196.81L195.81 39V40ZM195.81 68.04V69.04L196.81 68.04H195.81ZM186.13 68.04H187.13V40H186.13H185.13V68.04H186.13ZM186.13 40V41H195.81V40V39H186.13V40ZM195.81 40H194.81V68.04H195.81H196.81V40H195.81ZM195.81 68.04V67.04H186.13V68.04V69.04H195.81V68.04ZM222.23 68.04V69.04L223.23 68.0414L222.23 68.04ZM212.55 68.04H211.55L212.55 69.04V68.04ZM212.55 56.72H213.55L212.55 55.72V56.72ZM208.35 56.72V55.72L207.35 56.72H208.35ZM208.35 68.04V69.04L209.35 68.04H208.35ZM198.67 68.04H197.67L198.67 69.04V68.04ZM198.67 40V39L197.67 40H198.67ZM222.27 40L223.27 40.0014L222.27 39V40ZM212.55 51.32V52.32L213.55 51.32H212.55ZM212.55 45.44H213.55L212.55 44.44V45.44ZM208.35 45.44V44.44L207.35 45.44H208.35ZM208.35 51.32H207.35L208.35 52.32V51.32ZM222.23 68.04V67.04H212.55V68.04V69.04H222.23V68.04ZM212.55 68.04H213.55V56.72H212.55H211.55V68.04H212.55ZM212.55 56.72V55.72H208.35V56.72V57.72H212.55V56.72ZM208.35 56.72H207.35V68.04H208.35H209.35V56.72H208.35ZM208.35 68.04V67.04H198.67V68.04V69.04H208.35V68.04ZM198.67 68.04H199.67V40H198.67H197.67V68.04H198.67ZM198.67 40V41H222.27V40V39H198.67V40ZM222.27 40L221.27 39.9986L221.23 68.0386L222.23 68.04L223.23 68.0414L223.27 40.0014L222.27 40ZM212.55 51.32H213.55V45.44H212.55H211.55V51.32H212.55ZM212.55 45.44V44.44H208.35V45.44V46.44H212.55V45.44ZM208.35 45.44H207.35V51.32H208.35H209.35V45.44H208.35ZM208.35 51.32V52.32H212.55V51.32V50.32H208.35V51.32ZM225.115 68.04H224.115L225.115 69.04V68.04ZM225.115 40.04V39.04L224.115 40.04H225.115ZM234.795 40.04H235.795L234.795 39.04V40.04ZM234.795 62.64H233.795L234.795 63.64V62.64ZM248.715 62.64H249.715L248.715 61.64V62.64ZM248.715 68.04V69.04L249.715 68.04H248.715ZM225.115 68.04H226.115V40.04H225.115H224.115V68.04H225.115ZM225.115 40.04V41.04H234.795V40.04V39.04H225.115V40.04ZM234.795 40.04H233.795V62.64H234.795H235.795V40.04H234.795ZM234.795 62.64V63.64H248.715V62.64V61.64H234.795V62.64ZM248.715 62.64H247.715V68.04H248.715H249.715V62.64H248.715ZM248.715 68.04V67.04H225.115V68.04V69.04H248.715V68.04ZM275.081 68.04V69.04L276.081 68.04H275.081ZM251.521 68.04H250.521L251.521 69.04V68.04ZM251.521 62.64V61.64L250.521 62.64H251.521ZM265.401 62.64V63.64L266.401 62.64H265.401ZM265.401 56.72H266.401L265.401 55.72V56.72ZM251.521 56.72H250.521L251.521 57.72V56.72ZM251.521 40.04V39.04L250.521 40.04H251.521ZM275.081 40.04H276.081L275.081 39.04V40.04ZM275.081 45.44V46.44L276.081 45.44H275.081ZM261.201 45.44V44.44L260.201 45.44H261.201ZM261.201 51.32H260.201L261.201 52.32V51.32ZM275.081 51.32H276.081L275.081 50.32V51.32ZM275.081 68.04V67.04H251.521V68.04V69.04H275.081V68.04ZM251.521 68.04H252.521V62.64H251.521H250.521V68.04H251.521ZM251.521 62.64V63.64H265.401V62.64V61.64H251.521V62.64ZM265.401 62.64H266.401V56.72H265.401H264.401V62.64H265.401ZM265.401 56.72V55.72H251.521V56.72V57.72H265.401V56.72ZM251.521 56.72H252.521V40.04H251.521H250.521V56.72H251.521ZM251.521 40.04V41.04H275.081V40.04V39.04H251.521V40.04ZM275.081 40.04H274.081V45.44H275.081H276.081V40.04H275.081ZM275.081 45.44V44.44H261.201V45.44V46.44H275.081V45.44ZM261.201 45.44H260.201V51.32H261.201H262.201V45.44H261.201ZM261.201 51.32V52.32H275.081V51.32V50.32H261.201V51.32ZM275.081 51.32H274.081V68.04H275.081H276.081V51.32H275.081Z" fill="#0F0099" mask="url(#path-3-outside-2_18_112)"/>
</svg>
